<?xml version="1.0" encoding="UTF-8" standalone="no"?>
<!-- Created with Inkscape (http://www.inkscape.org/) -->

<svg
   xmlns:dc="http://purl.org/dc/elements/1.1/"
   xmlns:cc="http://creativecommons.org/ns#"
   xmlns:rdf="http://www.w3.org/1999/02/22-rdf-syntax-ns#"
   xmlns:svg="http://www.w3.org/2000/svg"
   xmlns="http://www.w3.org/2000/svg"
   xmlns:sodipodi="http://sodipodi.sourceforge.net/DTD/sodipodi-0.dtd"
   xmlns:inkscape="http://www.inkscape.org/namespaces/inkscape"
   width="64"
   height="64"
   id="svg3364"
   sodipodi:version="0.32"
   inkscape:version="0.92.1 r15371"
   sodipodi:docname="sew.svg"
   inkscape:output_extension="org.inkscape.output.svg.inkscape"
   version="1.1"
   inkscape:export-filename="/home/tanderson/temp/testExport.png"
   inkscape:export-xdpi="97.741203"
   inkscape:export-ydpi="97.741203">
  <defs
     id="defs3366" />
  <sodipodi:namedview
     id="base"
     pagecolor="#ffffff"
     bordercolor="#666666"
     borderopacity="1.0"
     inkscape:pageopacity="0.0"
     inkscape:pageshadow="2"
     inkscape:zoom="6.1640625"
     inkscape:cx="34.15448"
     inkscape:cy="30.724757"
     inkscape:current-layer="layer1"
     showgrid="true"
     inkscape:document-units="px"
     inkscape:grid-bbox="true"
     inkscape:window-width="1360"
     inkscape:window-height="681"
     inkscape:window-x="0"
     inkscape:window-y="0"
     inkscape:window-maximized="1" />
  <metadata
     id="metadata3369">
    <rdf:RDF>
      <cc:Work
         rdf:about="">
        <dc:format>image/svg+xml</dc:format>
        <dc:type
           rdf:resource="http://purl.org/dc/dcmitype/StillImage" />
        <dc:title></dc:title>
      </cc:Work>
    </rdf:RDF>
  </metadata>
  <g
     id="layer1"
     inkscape:label="Layer 1"
     inkscape:groupmode="layer"
     transform="translate(0,-4.2666702)">
    <g
       id="layer1-3"
       inkscape:label="Layer 1"
       transform="matrix(0.93749487,0,0,0.93749365,-10.303501,24.711634)">
      <circle
         style="fill:#a1a39d;fill-opacity:1;stroke:#000000;stroke-width:2.128582;stroke-miterlimit:4;stroke-dasharray:none;stroke-opacity:1"
         id="path3938"
         cx="45.123795"
         cy="12.325686"
         r="33.069042" />
    </g>
    <g
       id="g879"
       transform="matrix(0.66342044,0,0,0.66342044,65.342278,13.511224)">
      <path
         sodipodi:nodetypes="ccccc"
         inkscape:connector-curvature="0"
         id="path3820-1"
         d="m -79.024469,9.9891534 0.274697,21.6551326 c 16.615381,-23.8067832 43.589968,20.01893 59.228676,-3.328664 L -19.780785,5.0525142 C -35.712638,25.357545 -67.26767,-11.391613 -79.024469,9.9891534 Z"
         style="fill:#5c7ddb;fill-opacity:1;stroke:#0f118e;stroke-width:3.20000005;stroke-linecap:butt;stroke-linejoin:round;stroke-miterlimit:4;stroke-dasharray:none;stroke-opacity:1" />
      <ellipse
         ry="1.9739083"
         rx="3.9141874"
         cy="23.482162"
         cx="-26.243494"
         id="path3810"
         style="fill:#0f118e;fill-opacity:1;stroke:none;stroke-width:1.42688417" />
      <path
         style="fill:#5c7ddb;fill-opacity:1;stroke:#0f118e;stroke-width:3.20000005;stroke-linecap:butt;stroke-linejoin:round;stroke-miterlimit:4;stroke-dasharray:none;stroke-opacity:1"
         d="m -79.024469,41.137443 0.274697,24.53244 C -62.134391,41.8631 -35.159804,76.235755 -19.521096,52.888161 l -0.259689,-23.263108 c -7.965926,10.152515 -19.784912,4.792268 -25.650014,2.930149 -5.8651,-1.862119 -27.71527,-2.108143 -33.59367,8.582241 z"
         id="path3018"
         inkscape:connector-curvature="0"
         sodipodi:nodetypes="cccczc" />
      <ellipse
         ry="1.9739083"
         rx="3.9141874"
         cy="43.794258"
         cx="-25.631685"
         style="fill:#0f118e;fill-opacity:1;stroke:none;stroke-width:1.42688417"
         id="path3823" />
      <path
         sodipodi:nodetypes="cc"
         inkscape:connector-curvature="0"
         id="path3020"
         d="m -26.242982,24.625772 c 0.86523,12.286269 0.742867,18.037284 0.742867,18.037284"
         style="fill:none;stroke:#ff0900;stroke-width:3.20000005;stroke-linecap:butt;stroke-linejoin:miter;stroke-miterlimit:4;stroke-dasharray:none;stroke-opacity:1" />
      <ellipse
         ry="1.9739083"
         rx="3.9141874"
         cy="23.482162"
         cx="-34.686478"
         style="fill:#0f118e;fill-opacity:1;stroke:none;stroke-width:1.42688417"
         id="path3815" />
      <ellipse
         ry="1.9739083"
         rx="3.9141874"
         cy="43.794258"
         cx="-33.829941"
         id="path3821"
         style="fill:#0f118e;fill-opacity:1;stroke:none;stroke-width:1.42688417" />
      <path
         style="fill:none;stroke:#ff0900;stroke-width:3.20000005;stroke-linecap:butt;stroke-linejoin:miter;stroke-miterlimit:4;stroke-dasharray:none;stroke-opacity:1"
         d="m -34.685962,24.748133 c 0.86523,12.286269 0.742867,17.914923 0.742867,17.914923"
         id="path3811"
         inkscape:connector-curvature="0"
         sodipodi:nodetypes="cc" />
      <ellipse
         ry="1.9739083"
         rx="3.9141874"
         cy="23.482162"
         cx="-43.007095"
         id="path3817"
         style="fill:#0f118e;fill-opacity:1;stroke:none;stroke-width:1.42688417" />
      <ellipse
         ry="1.9739083"
         rx="3.9141874"
         cy="43.794258"
         cx="-42.395287"
         style="fill:#0f118e;fill-opacity:1;stroke:none;stroke-width:1.42688417"
         id="path3819" />
      <path
         sodipodi:nodetypes="cc"
         inkscape:connector-curvature="0"
         id="path3813"
         d="m -43.006581,24.748133 c 0.86523,12.286269 0.742867,17.914923 0.742867,17.914923"
         style="fill:none;stroke:#ff0900;stroke-width:3.20000005;stroke-linecap:butt;stroke-linejoin:miter;stroke-miterlimit:4;stroke-dasharray:none;stroke-opacity:1" />
      <ellipse
         ry="1.9739083"
         rx="3.9141874"
         cy="23.482162"
         cx="-51.327713"
         style="fill:#0f118e;fill-opacity:1;stroke:none;stroke-width:1.42688417"
         id="path3825" />
      <path
         sodipodi:nodetypes="czzc"
         inkscape:connector-curvature="0"
         id="path3827"
         d="m -51.327712,23.115075 c 0,0 3.274929,-11.461012 -0.122361,-15.9070639 -3.397291,-4.4460518 -11.688431,-5.0168435 -16.143094,-2.0899056 -4.454662,2.9269379 -5.700331,10.2442455 -5.700331,10.2442455"
         style="fill:none;stroke:#ff0900;stroke-width:3.20000005;stroke-linecap:butt;stroke-linejoin:miter;stroke-miterlimit:4;stroke-dasharray:none;stroke-opacity:1" />
      <path
         sodipodi:nodetypes="zczzzzz"
         inkscape:connector-curvature="0"
         id="path3829"
         d="m -55.97747,37.899888 c 2.760649,2.093748 4.896283,3.693655 4.896283,3.693655 0,0 -0.738613,-1.95667 -2.556559,-5.548278 -1.817945,-3.591607 -11.883265,-15.619231 -15.65237,-20.098646 -3.769105,-4.479417 -6.78298,-7.4319376 -8.467795,-5.801919 -1.684816,1.630019 0.383123,4.346448 4.07888,9.20939 3.695757,4.862941 14.940913,16.45205 17.701561,18.545798 z"
         style="fill:#c1c2e4;fill-opacity:1;stroke:#000000;stroke-width:3.20000005;stroke-linecap:butt;stroke-linejoin:miter;stroke-miterlimit:5;stroke-dasharray:none;stroke-opacity:1" />
      <path
         style="fill:none;stroke:#ff0900;stroke-width:3.20000005;stroke-linecap:butt;stroke-linejoin:miter;stroke-miterlimit:4;stroke-dasharray:none;stroke-opacity:1"
         d="m -75.212287,52.328676 c 0,0 9.554397,-5.841672 9.361005,-12.624901 -0.193392,-6.78323 -8.04601,-9.051792 -9.096342,-13.131562 -1.050332,-4.07977 -0.957121,-6.545544 -0.09447,-8.767396 1.274748,-3.283263 1.84832,-3.674526 1.84832,-3.674526"
         id="path3831"
         inkscape:connector-curvature="0"
         sodipodi:nodetypes="czzsc" />
    </g>
  </g>
</svg>
