<?xml version="1.0" encoding="UTF-8" standalone="no"?>
<!-- Created with Inkscape (http://www.inkscape.org/) -->

<svg
   xmlns:dc="http://purl.org/dc/elements/1.1/"
   xmlns:cc="http://creativecommons.org/ns#"
   xmlns:rdf="http://www.w3.org/1999/02/22-rdf-syntax-ns#"
   xmlns:svg="http://www.w3.org/2000/svg"
   xmlns="http://www.w3.org/2000/svg"
   xmlns:xlink="http://www.w3.org/1999/xlink"
   xmlns:sodipodi="http://sodipodi.sourceforge.net/DTD/sodipodi-0.dtd"
   xmlns:inkscape="http://www.inkscape.org/namespaces/inkscape"
   width="64"
   height="64"
   id="svg5181"
   version="1.1"
   inkscape:version="0.91 r13725"
   sodipodi:docname="constructionBoolean.svg">
  <defs
     id="defs5183">
    <linearGradient
       id="linearGradient3856">
      <stop
         id="stop3858"
         offset="0"
         style="stop-color:#b0c4f7;stop-opacity:1" />
      <stop
         id="stop3860"
         offset="1"
         style="stop-color:#384fa0;stop-opacity:1" />
    </linearGradient>
    <linearGradient
       id="linearGradient3796">
      <stop
         style="stop-color:#e3c7cd;stop-opacity:1;"
         offset="0"
         id="stop3798" />
      <stop
         style="stop-color:#a50029;stop-opacity:1;"
         offset="1"
         id="stop3800" />
    </linearGradient>
    <linearGradient
       id="linearGradient3811">
      <stop
         style="stop-color:#b0c4f7;stop-opacity:1"
         offset="0"
         id="stop3813" />
      <stop
         style="stop-color:#1c2853;stop-opacity:1"
         offset="1"
         id="stop3815" />
    </linearGradient>
    <linearGradient
       inkscape:collect="always"
       xlink:href="#linearGradient3796"
       id="linearGradient3827"
       x1="97.728348"
       y1="6.6754622"
       x2="122.93019"
       y2="31.532604"
       gradientUnits="userSpaceOnUse"
       gradientTransform="translate(-78.634807,-17.428571)" />
    <linearGradient
       inkscape:collect="always"
       xlink:href="#linearGradient3796"
       id="linearGradient3835"
       x1="125.4445"
       y1="-8.8503036"
       x2="127.40688"
       y2="35.43541"
       gradientUnits="userSpaceOnUse"
       gradientTransform="translate(-78.634807,-17.428571)" />
    <linearGradient
       inkscape:collect="always"
       xlink:href="#linearGradient3796"
       id="linearGradient3852"
       x1="85.571434"
       y1="23.142857"
       x2="107.57143"
       y2="44"
       gradientUnits="userSpaceOnUse"
       gradientTransform="translate(-78.634807,-17.428571)" />
    <linearGradient
       inkscape:collect="always"
       xlink:href="#linearGradient3856"
       id="linearGradient3844"
       x1="27.716667"
       y1="35.015976"
       x2="69.270958"
       y2="101.97839"
       gradientUnits="userSpaceOnUse" />
    <linearGradient
       inkscape:collect="always"
       xlink:href="#linearGradient3811"
       id="linearGradient3854"
       x1="96.893021"
       y1="-0.34756649"
       x2="122.75977"
       y2="59.955055"
       gradientUnits="userSpaceOnUse"
       gradientTransform="translate(-80.857143,-17.428571)" />
  </defs>
  <sodipodi:namedview
     id="base"
     pagecolor="#ffffff"
     bordercolor="#666666"
     borderopacity="1.0"
     inkscape:pageopacity="0.0"
     inkscape:pageshadow="2"
     inkscape:zoom="7"
     inkscape:cx="23.261083"
     inkscape:cy="30.403355"
     inkscape:current-layer="layer1"
     showgrid="true"
     inkscape:grid-bbox="true"
     inkscape:document-units="px"
     inkscape:window-width="1368"
     inkscape:window-height="667"
     inkscape:window-x="0"
     inkscape:window-y="0"
     inkscape:window-maximized="1" />
  <metadata
     id="metadata5186">
    <rdf:RDF>
      <cc:Work
         rdf:about="">
        <dc:format>image/svg+xml</dc:format>
        <dc:type
           rdf:resource="http://purl.org/dc/dcmitype/StillImage" />
        <dc:title />
      </cc:Work>
    </rdf:RDF>
  </metadata>
  <g
     id="layer1"
     inkscape:label="Layer 1"
     inkscape:groupmode="layer"
     transform="translate(0,16)">
    <g
       id="layer1-3"
       inkscape:label="Layer 1"
       transform="translate(-10.303556,4.4446691)">
      <circle
         style="fill:#a1a39d;fill-opacity:1;stroke:#000000;stroke-width:2;stroke-miterlimit:4;stroke-dasharray:none;stroke-opacity:1"
         id="path3938"
         transform="matrix(0.99777284,0,0,0.99777284,9.8759387,-21.442444)"
         cx="32.5"
         cy="33.07143"
         r="31.071428" />
    </g>
    <path
       style="opacity:0.61306529;fill:url(#linearGradient3827);fill-opacity:1;stroke:none"
       d="m 28.595834,16.081009 c -2.31747,-0.256112 -3.70508,-0.641766 -5.4277,-1.508513 -2.06821,-1.040626 -3.0502,-2.194469 -2.8892,-3.394825 0.12975,-0.967341 0.92916,-2.0338254 1.96847,-2.6261184 0.47812,-0.272479 0.7575,-0.562627 0.69698,-0.723835 -0.0556,-0.147985 -0.10102,-0.392438 -0.10102,-0.543231 0,-0.150793 -2.23568,-1.797459 -4.96817,-3.659258 -3.789771,-2.582176 -4.879948,-3.41641603 -4.596198,-3.51716603 0.204588,-0.07264 5.291418,-1.34276197 11.304058,-2.82248697 l 10.93209,-2.690409 8.41822,6.22301397 c 4.63002,3.42265703 8.39284,6.24508403 8.36183,6.27205903 -0.031,0.02698 -2.55652,0.574121 -5.61223,1.215881 -3.05571,0.641759 -5.6013,1.205754 -5.65685,1.253321 -0.0556,0.04757 -0.0791,0.5850034 -0.0524,1.1943004 0.0595,1.355244 -0.25949,2.025947 -1.40923,2.962774 -2.18797,1.782792 -6.94779,2.808853 -10.96869,2.364493 l 0,0 z"
       id="path3049"
       inkscape:connector-curvature="0" />
    <path
       style="fill:none;stroke:#000000;stroke-width:1.5;stroke-linecap:butt;stroke-linejoin:round;stroke-miterlimit:4;stroke-opacity:1;stroke-dasharray:none"
       d="m 41.673924,35.949096 12.40768,-2.638143 -0.123,-25.774763 -12.38951,2.465735 z"
       id="path3022"
       inkscape:connector-curvature="0"
       sodipodi:nodetypes="ccccc" />
    <path
       style="fill:none;stroke:#000000;stroke-width:1.5;stroke-linecap:butt;stroke-linejoin:round;stroke-miterlimit:4;stroke-opacity:1;stroke-dasharray:none"
       d="m 22.427254,7.5621088 -11.381161,-7.70498543 0.55227,25.09963763 8.052941,6.300844"
       id="path3024"
       inkscape:connector-curvature="0"
       sodipodi:nodetypes="cccc" />
    <path
       style="fill:none;stroke:#000000;stroke-width:1.5;stroke-linecap:butt;stroke-linejoin:round;stroke-miterlimit:4;stroke-opacity:1;stroke-dasharray:none"
       d="M 22.441424,7.4923455 11.354223,-0.07093363 35.668124,-6.0710162 53.876664,7.3933879 41.129244,10.118743"
       id="path3026"
       inkscape:connector-curvature="0"
       sodipodi:nodetypes="ccccc" />
    <path
       sodipodi:type="arc"
       style="fill:none;stroke:#000000;stroke-width:2.05761313;stroke-linecap:butt;stroke-linejoin:miter;stroke-miterlimit:4;stroke-opacity:1;stroke-dasharray:none"
       id="path3048"
       sodipodi:cx="33.42857"
       sodipodi:cy="44.5"
       sodipodi:rx="15.142858"
       sodipodi:ry="7.5"
       d="m 48.571427,44.5 a 15.142858,7.5 0 0 1 -7.664509,6.52159 15.142858,7.5 0 0 1 -15.234794,-0.08017 15.142858,7.5 0 0 1 -7.382993,-6.600779"
       transform="matrix(0.729,0,0,0.729,6.2641033,3.7955724)"
       sodipodi:start="0"
       sodipodi:end="3.1628426"
       sodipodi:open="true" />
    <path
       transform="matrix(0.729,0,0,0.729,6.2641033,-21.094569)"
       d="M 48.571427,44.5 A 15.142858,7.5 0 0 1 33.42857,52 15.142858,7.5 0 0 1 18.285712,44.5 15.142858,7.5 0 0 1 33.42857,37 15.142858,7.5 0 0 1 48.571427,44.5 Z"
       sodipodi:ry="7.5"
       sodipodi:rx="15.142858"
       sodipodi:cy="44.5"
       sodipodi:cx="33.42857"
       id="path3050"
       style="fill:url(#linearGradient3844);fill-opacity:1;stroke:#000000;stroke-width:2.05761313;stroke-linecap:butt;stroke-linejoin:miter;stroke-miterlimit:4;stroke-opacity:1;stroke-dasharray:none"
       sodipodi:type="arc" />
    <path
       style="fill:none;stroke:#000000;stroke-width:1.5;stroke-linecap:butt;stroke-linejoin:miter;stroke-miterlimit:4;stroke-opacity:1;stroke-dasharray:none"
       d="m 19.594404,36.079859 0,-24.681857"
       id="path3052"
       inkscape:connector-curvature="0" />
    <path
       style="opacity:0.61306529;fill:none;stroke:none"
       d="m 28.595834,16.081009 c -2.31747,-0.256112 -3.70508,-0.641766 -5.4277,-1.508513 -2.06821,-1.040626 -3.0502,-2.194469 -2.8892,-3.394825 0.12975,-0.967341 0.92916,-2.0338254 1.96847,-2.6261184 0.47812,-0.272479 0.7575,-0.562627 0.69698,-0.723835 -0.0556,-0.147985 -0.10102,-0.392438 -0.10102,-0.543231 0,-0.150793 -2.23568,-1.797459 -4.96817,-3.659258 -3.789771,-2.582176 -4.879948,-3.41641603 -4.596198,-3.51716603 0.204588,-0.07264 5.291418,-1.34276197 11.304058,-2.82248697 l 10.93209,-2.690409 8.41822,6.22301397 c 4.63002,3.42265703 8.39284,6.24508403 8.36183,6.27205903 -0.031,0.02698 -2.55652,0.574121 -5.61223,1.215881 -3.05571,0.641759 -5.6013,1.205754 -5.65685,1.253321 -0.0556,0.04757 -0.0791,0.5850034 -0.0524,1.1943004 0.0595,1.355244 -0.25949,2.025947 -1.40923,2.962774 -2.18797,1.782792 -6.94779,2.808853 -10.96869,2.364493 l 0,0 z"
       id="path3042"
       inkscape:connector-curvature="0" />
    <path
       style="opacity:0.61306529;fill:url(#linearGradient3835);fill-opacity:1;stroke:none"
       d="m 42.238294,22.868304 0,-12.388897 5.5247,-1.1045204 5.52471,-1.10452 0.11523,12.2370674 c 0.0634,6.730387 0.0982,12.254114 0.0774,12.27495 -0.0208,0.02083 -2.44512,0.547195 -5.3874,1.16969 -2.94228,0.622494 -5.46324,1.170803 -5.60213,1.218466 -0.20023,0.06871 -0.25254,-2.479587 -0.25254,-12.302236 z"
       id="path3046"
       inkscape:connector-curvature="0" />
    <path
       style="opacity:0.61306529;fill:url(#linearGradient3852);fill-opacity:1;stroke:none"
       d="M 15.772296,27.453668 C 14.161102,26.173629 12.696166,25.02214 12.516883,24.894802 12.228615,24.69006 12.161258,23.313008 11.934534,12.989112 11.793525,6.5683196 11.716623,1.2764756 11.763638,1.2294606 c 0.06535,-0.06535 9.050686,5.910931 9.446616,6.283088 0.0463,0.0435 -0.28436,0.420039 -0.73475,0.836741 -1.50052,1.38826 -1.47072,1.14726 -1.47072,11.8939924 0,5.264478 -0.0682,9.564116 -0.15152,9.554754 -0.0833,-0.0094 -1.46978,-1.064329 -3.080968,-2.344368 z"
       id="path3051"
       inkscape:connector-curvature="0" />
    <path
       style="opacity:0.61306529;fill:url(#linearGradient3854);fill-opacity:1;stroke:none"
       d="m 28.564744,41.052556 c -3.86614,-0.387192 -7.22002,-1.93414 -8.12331,-3.746809 l -0.26096,-0.523678 0,-11.187848 0,-11.187849 0.73236,0.552628 c 4.60427,3.474313 14.52132,3.533036 19.28646,0.114204 l 0.76441,-0.548436 0.0626,0.599243 c 0.0344,0.329583 0.0638,5.332945 0.0652,11.11858 l 0.003,10.519338 -0.25985,0.531099 c -1.2534,2.561869 -6.91291,4.295999 -12.26959,3.759528 z"
       id="path3846"
       inkscape:connector-curvature="0" />
  </g>
</svg>
