<?xml version="1.0" encoding="UTF-8" standalone="no"?>
<!-- Created with Inkscape (http://www.inkscape.org/) -->

<svg
   xmlns:dc="http://purl.org/dc/elements/1.1/"
   xmlns:cc="http://creativecommons.org/ns#"
   xmlns:rdf="http://www.w3.org/1999/02/22-rdf-syntax-ns#"
   xmlns:svg="http://www.w3.org/2000/svg"
   xmlns="http://www.w3.org/2000/svg"
   xmlns:xlink="http://www.w3.org/1999/xlink"
   xmlns:sodipodi="http://sodipodi.sourceforge.net/DTD/sodipodi-0.dtd"
   xmlns:inkscape="http://www.inkscape.org/namespaces/inkscape"
   width="64"
   height="64"
   id="svg5181"
   version="1.1"
   inkscape:version="0.91 r13725"
   sodipodi:docname="constructionIntersect.svg">
  <defs
     id="defs5183">
    <linearGradient
       id="linearGradient3796">
      <stop
         style="stop-color:#e3c7cd;stop-opacity:1;"
         offset="0"
         id="stop3798" />
      <stop
         style="stop-color:#a50029;stop-opacity:1;"
         offset="1"
         id="stop3800" />
    </linearGradient>
    <linearGradient
       inkscape:collect="always"
       xlink:href="#linearGradient3796"
       id="linearGradient4241"
       x1="25.08412"
       y1="14.49533"
       x2="46.588848"
       y2="53.487217"
       gradientUnits="userSpaceOnUse" />
    <linearGradient
       inkscape:collect="always"
       xlink:href="#linearGradient3796"
       id="linearGradient4250"
       x1="25.08412"
       y1="14.49533"
       x2="46.588848"
       y2="53.487217"
       gradientUnits="userSpaceOnUse" />
    <linearGradient
       inkscape:collect="always"
       xlink:href="#linearGradient3796"
       id="linearGradient4260"
       x1="31.584318"
       y1="3.9495554"
       x2="45.43536"
       y2="52.69532"
       gradientUnits="userSpaceOnUse" />
    <linearGradient
       inkscape:collect="always"
       xlink:href="#linearGradient3796"
       id="linearGradient4268"
       x1="31.584318"
       y1="3.9495554"
       x2="45.43536"
       y2="52.69532"
       gradientUnits="userSpaceOnUse" />
    <linearGradient
       inkscape:collect="always"
       xlink:href="#linearGradient3796"
       id="linearGradient4278"
       x1="17.750683"
       y1="31.783043"
       x2="36.887863"
       y2="42.783043"
       gradientUnits="userSpaceOnUse" />
    <linearGradient
       inkscape:collect="always"
       xlink:href="#linearGradient3796"
       id="linearGradient4286"
       x1="17.750683"
       y1="31.783043"
       x2="36.887863"
       y2="42.783043"
       gradientUnits="userSpaceOnUse" />
  </defs>
  <sodipodi:namedview
     id="base"
     pagecolor="#ffffff"
     bordercolor="#666666"
     borderopacity="1.0"
     inkscape:pageopacity="0.0"
     inkscape:pageshadow="2"
     inkscape:zoom="7"
     inkscape:cx="20.077467"
     inkscape:cy="35.829671"
     inkscape:current-layer="layer1"
     showgrid="true"
     inkscape:grid-bbox="true"
     inkscape:document-units="px"
     inkscape:window-width="1368"
     inkscape:window-height="667"
     inkscape:window-x="0"
     inkscape:window-y="0"
     inkscape:window-maximized="1" />
  <metadata
     id="metadata5186">
    <rdf:RDF>
      <cc:Work
         rdf:about="">
        <dc:format>image/svg+xml</dc:format>
        <dc:type
           rdf:resource="http://purl.org/dc/dcmitype/StillImage" />
        <dc:title />
      </cc:Work>
    </rdf:RDF>
  </metadata>
  <g
     id="layer1"
     inkscape:label="Layer 1"
     inkscape:groupmode="layer"
     transform="translate(0,16)">
    <g
       id="layer1-3"
       inkscape:label="Layer 1"
       transform="translate(-10.303556,4.4446691)">
      <circle
         style="fill:#a1a39d;fill-opacity:1;stroke:#000000;stroke-width:2;stroke-miterlimit:4;stroke-dasharray:none;stroke-opacity:1"
         id="path3938"
         transform="matrix(0.99777284,0,0,0.99777284,9.8759387,-21.442444)"
         cx="32.5"
         cy="33.07143"
         r="31.071428" />
    </g>
    <path
       style="opacity:0.61306529;fill:none;stroke:none"
       d="m 28.595834,16.081009 c -2.31747,-0.256112 -3.70508,-0.641766 -5.4277,-1.508513 -2.06821,-1.040626 -3.0502,-2.194469 -2.8892,-3.394825 0.12975,-0.967341 0.92916,-2.0338254 1.96847,-2.6261184 0.47812,-0.272479 0.7575,-0.562627 0.69698,-0.723835 -0.0556,-0.147985 -0.10102,-0.392438 -0.10102,-0.543231 0,-0.150793 -2.23568,-1.797459 -4.96817,-3.659258 -3.789771,-2.582176 -4.879948,-3.41641603 -4.596198,-3.51716603 0.204588,-0.07264 5.291418,-1.34276197 11.304058,-2.82248697 l 10.93209,-2.690409 8.41822,6.22301397 c 4.63002,3.42265703 8.39284,6.24508403 8.36183,6.27205903 -0.031,0.02698 -2.55652,0.574121 -5.61223,1.215881 -3.05571,0.641759 -5.6013,1.205754 -5.65685,1.253321 -0.0556,0.04757 -0.0791,0.5850034 -0.0524,1.1943004 0.0595,1.355244 -0.25949,2.025947 -1.40923,2.962774 -2.18797,1.782792 -6.94779,2.808853 -10.96869,2.364493 l 0,0 z"
       id="path3042"
       inkscape:connector-curvature="0" />
    <g
       id="g3266"
       transform="matrix(1.5637583,0,0,1.5637583,-16.692207,-16.603884)">
      <path
         sodipodi:nodetypes="ccc"
         inkscape:connector-curvature="0"
         id="path3026"
         d="M 41.805235,9.9648165 29.62462,12.716259 21.425652,6.9290664"
         style="fill:none;stroke:#000000;stroke-width:1.5;stroke-linecap:butt;stroke-linejoin:round;stroke-miterlimit:4;stroke-dasharray:none;stroke-opacity:1" />
      <path
         sodipodi:open="true"
         d="M 21.881318,7.0036801 A 11.039144,5.4675002 0 0 1 33.701244,5.0836325 11.039144,5.4675002 0 0 1 41.62584,9.8326702"
         sodipodi:end="6.1910372"
         sodipodi:start="3.796943"
         sodipodi:ry="5.4675002"
         sodipodi:rx="11.039144"
         sodipodi:cy="10.335777"
         sodipodi:cx="30.633532"
         sodipodi:type="arc"
         style="fill:none;fill-opacity:1;stroke:#000000;stroke-width:1.5;stroke-linecap:butt;stroke-linejoin:miter;stroke-miterlimit:4;stroke-dasharray:none;stroke-opacity:1"
         id="path3050" />
      <path
         inkscape:connector-curvature="0"
         id="path3052"
         d="m 21.917755,31.332142 0,-24.681857"
         style="fill:none;stroke:#000000;stroke-width:1.5;stroke-linecap:butt;stroke-linejoin:miter;stroke-miterlimit:4;stroke-dasharray:none;stroke-opacity:1" />
      <path
         sodipodi:nodetypes="cc"
         style="fill:none;stroke:#000000;stroke-width:1.5;stroke-linecap:butt;stroke-linejoin:miter;stroke-miterlimit:4;stroke-dasharray:none;stroke-opacity:1"
         d="m 41.716745,33.865573 0,-24.1848303"
         id="path4226"
         inkscape:connector-curvature="0" />
      <path
         style="fill:none;stroke:#000000;stroke-width:1.5;stroke-linecap:butt;stroke-linejoin:miter;stroke-miterlimit:4;stroke-dasharray:none;stroke-opacity:1"
         d="m 29.594914,36.68595 0,-24.681857"
         id="path4228"
         inkscape:connector-curvature="0" />
      <path
         style="fill:none;stroke:#000000;stroke-width:1.5;stroke-linecap:butt;stroke-linejoin:round;stroke-miterlimit:4;stroke-dasharray:none;stroke-opacity:1"
         d="M 41.805235,33.29934 29.62462,36.050783 21.425652,30.26359"
         id="path4230"
         inkscape:connector-curvature="0"
         sodipodi:nodetypes="ccc" />
      <path
         transform="translate(0,-16)"
         inkscape:connector-curvature="0"
         id="path4232"
         d="m 26.638117,25.575337 c -1.741456,-1.228757 -3.168054,-2.292418 -3.170219,-2.363691 -0.0067,-0.221814 1.473999,-0.734257 3.144267,-1.088146 2.100724,-0.445092 5.925117,-0.44717 8.06449,-0.0044 0.888935,0.183984 2.261064,0.636593 3.049177,1.005799 1.493776,0.699787 3.244473,2.185481 2.700726,2.291917 -0.162293,0.03177 -2.618672,0.583102 -5.458619,1.225185 l -5.16354,1.167423 -3.166282,-2.234104 z"
         style="opacity:1;fill:url(#linearGradient4241);fill-opacity:1;stroke:url(#linearGradient4250);stroke-width:0.5;stroke-linecap:round;stroke-miterlimit:4;stroke-dasharray:none;stroke-opacity:1" />
      <path
         transform="translate(0,-16)"
         inkscape:connector-curvature="0"
         id="path4252"
         d="m 30.442797,40.143092 0.05228,-10.751546 5.050763,-1.156593 c 2.777919,-0.636126 5.118948,-1.16184 5.202285,-1.168254 0.08334,-0.0064 0.151523,4.852224 0.151523,10.796972 0,5.944747 -0.03747,10.808632 -0.08327,10.808632 -0.0458,0 -2.28937,0.500025 -4.985714,1.111168 -2.696343,0.611142 -5.023424,1.111167 -5.171291,1.111167 -0.221067,0 -0.259559,-1.910903 -0.216572,-10.751546 z"
         style="opacity:1;fill:url(#linearGradient4268);fill-opacity:1;stroke:url(#linearGradient4260);stroke-width:0.5;stroke-linecap:round;stroke-miterlimit:4;stroke-dasharray:none;stroke-opacity:1" />
      <path
         transform="translate(0,-16)"
         inkscape:connector-curvature="0"
         id="path4270"
         d="m 25.718708,48.306613 -2.960625,-2.09789 -0.0037,-10.671057 -0.0037,-10.671057 2.993745,2.099628 2.993745,2.099629 0.0063,10.678572 c 0.0034,5.873214 -0.0098,10.674407 -0.02946,10.669318 -0.01964,-0.0051 -1.367996,-0.953303 -2.99634,-2.107143 z"
         style="opacity:1;fill:url(#linearGradient4278);fill-opacity:1;stroke:url(#linearGradient4286);stroke-width:0.5;stroke-linecap:round;stroke-miterlimit:4;stroke-dasharray:none;stroke-opacity:1" />
    </g>
  </g>
</svg>
