<?xml version="1.0" encoding="UTF-8" standalone="no"?>
<!-- Created with Inkscape (http://www.inkscape.org/) -->

<svg
   xmlns:dc="http://purl.org/dc/elements/1.1/"
   xmlns:cc="http://creativecommons.org/ns#"
   xmlns:rdf="http://www.w3.org/1999/02/22-rdf-syntax-ns#"
   xmlns:svg="http://www.w3.org/2000/svg"
   xmlns="http://www.w3.org/2000/svg"
   xmlns:xlink="http://www.w3.org/1999/xlink"
   xmlns:sodipodi="http://sodipodi.sourceforge.net/DTD/sodipodi-0.dtd"
   xmlns:inkscape="http://www.inkscape.org/namespaces/inkscape"
   width="68.26667"
   height="68.26667"
   id="svg5181"
   version="1.1"
   inkscape:version="0.92.1 r15371"
   sodipodi:docname="constructionInstancePolar.svg">
  <defs
     id="defs5183">
    <linearGradient
       id="linearGradient3796">
      <stop
         style="stop-color:#e3c7cd;stop-opacity:1;"
         offset="0"
         id="stop3798" />
      <stop
         style="stop-color:#a50029;stop-opacity:1;"
         offset="1"
         id="stop3800" />
    </linearGradient>
    <linearGradient
       inkscape:collect="always"
       xlink:href="#linearGradient3796"
       id="linearGradient3833"
       x1="13.142856"
       y1="7.4285712"
       x2="51.571426"
       y2="56.142857"
       gradientUnits="userSpaceOnUse"
       gradientTransform="matrix(1.0666667,0,0,1.0666667,0,-17.066667)" />
    <linearGradient
       inkscape:collect="always"
       xlink:href="#linearGradient3796"
       id="linearGradient3847"
       x1="17.071424"
       y1="41.928574"
       x2="75.071426"
       y2="46.214287"
       gradientUnits="userSpaceOnUse"
       gradientTransform="matrix(1.0666667,0,0,1.0666667,-0.76190476,-49.828572)" />
    <linearGradient
       id="linearGradient3851">
      <stop
         style="stop-color:#e6eb24;stop-opacity:1;"
         offset="0"
         id="stop3853" />
      <stop
         style="stop-color:#9b825d;stop-opacity:1;"
         offset="1"
         id="stop3855" />
    </linearGradient>
    <linearGradient
       inkscape:collect="always"
       xlink:href="#linearGradient3851"
       id="linearGradient4547"
       gradientUnits="userSpaceOnUse"
       gradientTransform="matrix(0.56687042,0,0,0.56687042,76.958785,-22.085057)"
       x1="13.151066"
       y1="26.95993"
       x2="89.327278"
       y2="43.006721" />
    <linearGradient
       inkscape:collect="always"
       xlink:href="#linearGradient3851"
       id="linearGradient4549"
       gradientUnits="userSpaceOnUse"
       gradientTransform="matrix(0.56687042,0,0,0.56687042,77.363692,-4.6740379)"
       x1="4.9457412"
       y1="-3.9761095"
       x2="45.290569"
       y2="48.039452" />
    <linearGradient
       inkscape:collect="always"
       xlink:href="#linearGradient3811-7-4"
       id="linearGradient4517"
       gradientUnits="userSpaceOnUse"
       x1="79.606712"
       y1="57.65247"
       x2="177.03908"
       y2="4.8199897"
       gradientTransform="matrix(0.76635039,0.54588678,0.54588678,-0.76635039,-69.972992,-20.186267)" />
    <linearGradient
       id="linearGradient3811-7-4">
      <stop
         id="stop3813-9-2"
         offset="0"
         style="stop-color:#acc2fb;stop-opacity:1" />
      <stop
         id="stop3815-5-6"
         offset="1"
         style="stop-color:#4547f2;stop-opacity:1;" />
    </linearGradient>
    <linearGradient
       inkscape:collect="always"
       xlink:href="#linearGradient3851"
       id="linearGradient4525"
       gradientUnits="userSpaceOnUse"
       gradientTransform="matrix(0.56687042,0,0,0.56687042,76.958785,-22.085057)"
       x1="13.151066"
       y1="26.95993"
       x2="89.327278"
       y2="43.006721" />
    <linearGradient
       inkscape:collect="always"
       xlink:href="#linearGradient3851"
       id="linearGradient4527"
       gradientUnits="userSpaceOnUse"
       gradientTransform="matrix(0.56687042,0,0,0.56687042,77.363692,-4.6740379)"
       x1="4.9457412"
       y1="-3.9761095"
       x2="45.290569"
       y2="48.039452" />
    <linearGradient
       inkscape:collect="always"
       xlink:href="#linearGradient3851"
       id="linearGradient4541"
       gradientUnits="userSpaceOnUse"
       gradientTransform="matrix(0.56687042,0,0,0.56687042,76.958785,-22.085057)"
       x1="13.151066"
       y1="26.95993"
       x2="89.327278"
       y2="43.006721" />
    <linearGradient
       inkscape:collect="always"
       xlink:href="#linearGradient3851"
       id="linearGradient4543"
       gradientUnits="userSpaceOnUse"
       gradientTransform="matrix(0.56687042,0,0,0.56687042,77.363692,-4.6740379)"
       x1="4.9457412"
       y1="-3.9761095"
       x2="45.290569"
       y2="48.039452" />
  </defs>
  <sodipodi:namedview
     id="base"
     pagecolor="#ffffff"
     bordercolor="#666666"
     borderopacity="1.0"
     inkscape:pageopacity="0.0"
     inkscape:pageshadow="2"
     inkscape:zoom="4.9497476"
     inkscape:cx="37.56584"
     inkscape:cy="31.75624"
     inkscape:current-layer="layer1"
     showgrid="true"
     inkscape:grid-bbox="true"
     inkscape:document-units="px"
     inkscape:window-width="1368"
     inkscape:window-height="683"
     inkscape:window-x="0"
     inkscape:window-y="0"
     inkscape:window-maximized="1" />
  <metadata
     id="metadata5186">
    <rdf:RDF>
      <cc:Work
         rdf:about="">
        <dc:format>image/svg+xml</dc:format>
        <dc:type
           rdf:resource="http://purl.org/dc/dcmitype/StillImage" />
        <dc:title></dc:title>
      </cc:Work>
    </rdf:RDF>
  </metadata>
  <g
     id="layer1"
     inkscape:label="Layer 1"
     inkscape:groupmode="layer"
     transform="translate(0,17.066667)">
    <g
       id="layer1-3"
       inkscape:label="Layer 1"
       transform="translate(-10.99046,4.7409804)">
      <circle
         style="fill:#a1a39d;fill-opacity:1;stroke:#000000;stroke-width:2.128582;stroke-miterlimit:4;stroke-dasharray:none;stroke-opacity:1"
         id="path3938"
         cx="45.123795"
         cy="12.325686"
         r="33.069042" />
    </g>
    <g
       id="g919"
       transform="matrix(0.8732691,0,0,0.8732691,-27.637028,6.2505801)">
      <path
         sodipodi:type="arc"
         style="fill:none;fill-rule:evenodd;stroke:#000000;stroke-width:0.56687045px;stroke-linecap:butt;stroke-linejoin:miter;stroke-opacity:1"
         id="path879"
         sodipodi:cx="95.908455"
         sodipodi:cy="22.495251"
         sodipodi:rx="8.5840378"
         sodipodi:ry="4.2515278"
         d="m 104.49249,22.495251 a 8.5840378,4.2515278 0 0 1 -4.34478,3.696896 8.5840378,4.2515278 0 0 1 -8.636154,-0.04545 8.5840378,4.2515278 0 0 1 -4.185201,-3.741785"
         sodipodi:start="0"
         sodipodi:end="3.1628426"
         sodipodi:open="true" />
      <ellipse
         id="ellipse881"
         style="fill:url(#linearGradient4547);fill-opacity:1;fill-rule:evenodd;stroke:#000000;stroke-width:0.56687045px;stroke-linecap:butt;stroke-linejoin:miter;stroke-opacity:1"
         cx="95.908455"
         cy="3.1406755"
         rx="8.5840378"
         ry="4.2515278" />
      <path
         style="fill:none;stroke:#000000;stroke-width:0.56687045px;stroke-linecap:butt;stroke-linejoin:miter;stroke-opacity:1"
         d="M 87.324415,22.373779 V 3.1811665"
         id="path883"
         inkscape:connector-curvature="0" />
      <path
         style="fill:none;stroke:#000000;stroke-width:0.56687045px;stroke-linecap:butt;stroke-linejoin:miter;stroke-opacity:1"
         d="M 104.49249,22.535741 V 3.0192037"
         id="path885"
         inkscape:connector-curvature="0" />
      <path
         style="opacity:1;fill:url(#linearGradient4549);fill-opacity:1;stroke:none;stroke-width:0.56687045"
         d="m 94.890609,26.369737 c -3.318866,-0.170312 -6.205755,-1.411626 -7.0028,-3.011086 L 87.683257,22.948169 V 13.964811 4.9814517 l 0.364292,0.335793 c 1.12273,1.0348962 2.945528,1.8058257 5.223431,2.2091846 0.825002,0.1460871 4.436386,0.1463665 5.263796,4.054e-4 2.312644,-0.4079625 4.073504,-1.1463055 5.182554,-2.1730954 l 0.48959,-0.4532725 -0.022,8.9790152 -0.022,8.979015 -0.21391,0.445398 c -0.96574,2.01077 -4.73815,3.287544 -9.058468,3.065842 z"
         id="path887"
         inkscape:connector-curvature="0" />
    </g>
    <g
       id="g829"
       transform="matrix(0.464091,0,0,0.464091,18.519084,28.272272)">
      <path
         sodipodi:open="true"
         sodipodi:end="3.1628426"
         sodipodi:start="0"
         d="m 51.047619,34.057144 a 16.152382,8 0 0 1 -8.175477,6.956363 16.152382,8 0 0 1 -16.250447,-0.08552 16.152382,8 0 0 1 -7.875193,-7.040831"
         sodipodi:ry="8"
         sodipodi:rx="16.152382"
         sodipodi:cy="34.057144"
         sodipodi:cx="34.895237"
         id="path3048"
         style="fill:none;fill-rule:evenodd;stroke:#000000;stroke-width:1.06666672px;stroke-linecap:butt;stroke-linejoin:miter;stroke-opacity:1"
         sodipodi:type="arc" />
      <ellipse
         ry="8"
         rx="16.152382"
         cy="-2.3619051"
         cx="34.895237"
         style="fill:url(#linearGradient3847);fill-opacity:1;fill-rule:evenodd;stroke:#000000;stroke-width:1.06666672px;stroke-linecap:butt;stroke-linejoin:miter;stroke-opacity:1"
         id="path3050" />
      <path
         inkscape:connector-curvature="0"
         id="path3052"
         d="M 18.742858,33.828572 V -2.2857141"
         style="fill:none;stroke:#000000;stroke-width:1.06666672px;stroke-linecap:butt;stroke-linejoin:miter;stroke-opacity:1" />
      <path
         inkscape:connector-curvature="0"
         id="path3054"
         d="M 51.047619,34.133333 V -2.5904757"
         style="fill:none;stroke:#000000;stroke-width:1.06666672px;stroke-linecap:butt;stroke-linejoin:miter;stroke-opacity:1" />
      <path
         inkscape:connector-curvature="0"
         id="path3824"
         d="M 32.979987,41.347673 C 26.734955,41.0272 21.302763,38.691449 19.802982,35.681782 l -0.3849,-0.772394 V 18.005615 1.10184 l 0.68548,0.6318539 c 2.112615,1.9473397 5.54253,3.3979797 9.828806,4.1569706 1.552388,0.2748886 8.347843,0.2754144 9.904762,7.627e-4 4.35165,-0.7676533 7.665008,-2.156976 9.751891,-4.0890624 l 0.92125,-0.852912 -0.04133,16.8956012 -0.04133,16.895601 -0.402521,0.838095 c -1.817206,3.783619 -8.915658,6.186094 -17.045098,5.768923 z"
         style="opacity:1;fill:url(#linearGradient3833);fill-opacity:1;stroke:none;stroke-width:1.06666672" />
    </g>
    <g
       transform="matrix(0.8732691,0,0,0.8732691,-49.456322,-12.538257)"
       id="g4523">
      <path
         sodipodi:open="true"
         sodipodi:end="3.1628426"
         sodipodi:start="0"
         d="m 104.49249,22.495251 a 8.5840378,4.2515278 0 0 1 -4.34478,3.696896 8.5840378,4.2515278 0 0 1 -8.636154,-0.04545 8.5840378,4.2515278 0 0 1 -4.185201,-3.741785"
         sodipodi:ry="4.2515278"
         sodipodi:rx="8.5840378"
         sodipodi:cy="22.495251"
         sodipodi:cx="95.908455"
         id="path4513"
         style="fill:none;fill-rule:evenodd;stroke:#000000;stroke-width:0.56687045px;stroke-linecap:butt;stroke-linejoin:miter;stroke-opacity:1"
         sodipodi:type="arc" />
      <ellipse
         ry="4.2515278"
         rx="8.5840378"
         cy="3.1406755"
         cx="95.908455"
         style="fill:url(#linearGradient4525);fill-opacity:1;fill-rule:evenodd;stroke:#000000;stroke-width:0.56687045px;stroke-linecap:butt;stroke-linejoin:miter;stroke-opacity:1"
         id="ellipse4515" />
      <path
         inkscape:connector-curvature="0"
         id="path4517"
         d="M 87.324415,22.373779 V 3.1811665"
         style="fill:none;stroke:#000000;stroke-width:0.56687045px;stroke-linecap:butt;stroke-linejoin:miter;stroke-opacity:1" />
      <path
         inkscape:connector-curvature="0"
         id="path4519"
         d="M 104.49249,22.535741 V 3.0192037"
         style="fill:none;stroke:#000000;stroke-width:0.56687045px;stroke-linecap:butt;stroke-linejoin:miter;stroke-opacity:1" />
      <path
         inkscape:connector-curvature="0"
         id="path4521"
         d="m 94.890609,26.369737 c -3.318866,-0.170312 -6.205755,-1.411626 -7.0028,-3.011086 L 87.683257,22.948169 V 13.964811 4.9814517 l 0.364292,0.335793 c 1.12273,1.0348962 2.945528,1.8058257 5.223431,2.2091846 0.825002,0.1460871 4.436386,0.1463665 5.263796,4.054e-4 2.312644,-0.4079625 4.073504,-1.1463055 5.182554,-2.1730954 l 0.48959,-0.4532725 -0.022,8.9790152 -0.022,8.979015 -0.21391,0.445398 c -0.96574,2.01077 -4.73815,3.287544 -9.058468,3.065842 z"
         style="opacity:1;fill:url(#linearGradient4527);fill-opacity:1;stroke:none;stroke-width:0.56687045" />
    </g>
    <g
       id="g4539"
       transform="matrix(0.8732691,0,0,0.8732691,-70.467494,6.2505798)">
      <path
         sodipodi:type="arc"
         style="fill:none;fill-rule:evenodd;stroke:#000000;stroke-width:0.56687045px;stroke-linecap:butt;stroke-linejoin:miter;stroke-opacity:1"
         id="path4529"
         sodipodi:cx="95.908455"
         sodipodi:cy="22.495251"
         sodipodi:rx="8.5840378"
         sodipodi:ry="4.2515278"
         d="m 104.49249,22.495251 a 8.5840378,4.2515278 0 0 1 -4.34478,3.696896 8.5840378,4.2515278 0 0 1 -8.636154,-0.04545 8.5840378,4.2515278 0 0 1 -4.185201,-3.741785"
         sodipodi:start="0"
         sodipodi:end="3.1628426"
         sodipodi:open="true" />
      <ellipse
         id="ellipse4531"
         style="fill:url(#linearGradient4541);fill-opacity:1;fill-rule:evenodd;stroke:#000000;stroke-width:0.56687045px;stroke-linecap:butt;stroke-linejoin:miter;stroke-opacity:1"
         cx="95.908455"
         cy="3.1406755"
         rx="8.5840378"
         ry="4.2515278" />
      <path
         style="fill:none;stroke:#000000;stroke-width:0.56687045px;stroke-linecap:butt;stroke-linejoin:miter;stroke-opacity:1"
         d="M 87.324415,22.373779 V 3.1811665"
         id="path4533"
         inkscape:connector-curvature="0" />
      <path
         style="fill:none;stroke:#000000;stroke-width:0.56687045px;stroke-linecap:butt;stroke-linejoin:miter;stroke-opacity:1"
         d="M 104.49249,22.535741 V 3.0192037"
         id="path4535"
         inkscape:connector-curvature="0" />
      <path
         style="opacity:1;fill:url(#linearGradient4543);fill-opacity:1;stroke:none;stroke-width:0.56687045"
         d="m 94.890609,26.369737 c -3.318866,-0.170312 -6.205755,-1.411626 -7.0028,-3.011086 L 87.683257,22.948169 V 13.964811 4.9814517 l 0.364292,0.335793 c 1.12273,1.0348962 2.945528,1.8058257 5.223431,2.2091846 0.825002,0.1460871 4.436386,0.1463665 5.263796,4.054e-4 2.312644,-0.4079625 4.073504,-1.1463055 5.182554,-2.1730954 l 0.48959,-0.4532725 -0.022,8.9790152 -0.022,8.979015 -0.21391,0.445398 c -0.96574,2.01077 -4.73815,3.287544 -9.058468,3.065842 z"
         id="path4537"
         inkscape:connector-curvature="0" />
    </g>
    <path
       sodipodi:nodetypes="cccczczcc"
       inkscape:connector-curvature="0"
       id="path4515"
       d="m 24.091837,11.81784 -9.075546,13.769584 -10.7737624,-13.88245 5.570462,0.06761 C 21.422446,-21.092102 60.433157,-7.3781942 59.43932,16.998038 58.445483,41.37427 25.933319,50.56377 16.65677,28.558635 29.073814,41.945546 52.465615,37.834846 52.283646,16.616032 52.101677,-4.6027814 22.218952,-7.5486221 18.374026,11.805917 Z"
       style="display:inline;fill:url(#linearGradient4517);fill-opacity:1;fill-rule:evenodd;stroke:#00125c;stroke-width:1.17612004;stroke-linecap:butt;stroke-linejoin:round;stroke-miterlimit:4;stroke-dasharray:none;stroke-opacity:1;opacity:0.53" />
  </g>
</svg>
