<?xml version="1.0" encoding="UTF-8" standalone="no"?>
<!-- Created with Inkscape (http://www.inkscape.org/) -->

<svg
   xmlns:dc="http://purl.org/dc/elements/1.1/"
   xmlns:cc="http://creativecommons.org/ns#"
   xmlns:rdf="http://www.w3.org/1999/02/22-rdf-syntax-ns#"
   xmlns:svg="http://www.w3.org/2000/svg"
   xmlns="http://www.w3.org/2000/svg"
   xmlns:xlink="http://www.w3.org/1999/xlink"
   xmlns:sodipodi="http://sodipodi.sourceforge.net/DTD/sodipodi-0.dtd"
   xmlns:inkscape="http://www.inkscape.org/namespaces/inkscape"
   width="64"
   height="64"
   id="svg5181"
   version="1.1"
   inkscape:version="0.91 r13725"
   sodipodi:docname="constructionSubtract.svg">
  <defs
     id="defs5183">
    <linearGradient
       id="linearGradient3796">
      <stop
         style="stop-color:#e3c7cd;stop-opacity:1;"
         offset="0"
         id="stop3798" />
      <stop
         style="stop-color:#a50029;stop-opacity:1;"
         offset="1"
         id="stop3800" />
    </linearGradient>
    <linearGradient
       inkscape:collect="always"
       xlink:href="#linearGradient3796"
       id="linearGradient4312"
       x1="18.247759"
       y1="4.6592894"
       x2="58.174412"
       y2="45.477844"
       gradientUnits="userSpaceOnUse" />
    <linearGradient
       inkscape:collect="always"
       xlink:href="#linearGradient3796"
       id="linearGradient4320"
       x1="18.247759"
       y1="4.6592894"
       x2="58.174412"
       y2="45.477844"
       gradientUnits="userSpaceOnUse" />
    <linearGradient
       inkscape:collect="always"
       xlink:href="#linearGradient3796"
       id="linearGradient4330"
       x1="8.691658"
       y1="14.928717"
       x2="30.549683"
       y2="53.076801"
       gradientUnits="userSpaceOnUse" />
    <linearGradient
       inkscape:collect="always"
       xlink:href="#linearGradient3796"
       id="linearGradient4338"
       x1="8.691658"
       y1="14.928717"
       x2="30.549683"
       y2="53.076801"
       gradientUnits="userSpaceOnUse" />
    <linearGradient
       inkscape:collect="always"
       xlink:href="#linearGradient3796"
       id="linearGradient4348"
       x1="8.0929413"
       y1="1.7238901"
       x2="44.054375"
       y2="55.059944"
       gradientUnits="userSpaceOnUse" />
    <linearGradient
       inkscape:collect="always"
       xlink:href="#linearGradient3796"
       id="linearGradient4356"
       x1="8.0929413"
       y1="1.7238901"
       x2="44.054375"
       y2="55.059944"
       gradientUnits="userSpaceOnUse" />
    <linearGradient
       inkscape:collect="always"
       xlink:href="#linearGradient3796"
       id="linearGradient4374"
       x1="50.31731"
       y1="12.948374"
       x2="50.721375"
       y2="38.808277"
       gradientUnits="userSpaceOnUse" />
    <linearGradient
       inkscape:collect="always"
       xlink:href="#linearGradient3796"
       id="linearGradient4382"
       x1="50.31731"
       y1="12.948374"
       x2="50.721375"
       y2="38.808277"
       gradientUnits="userSpaceOnUse" />
  </defs>
  <sodipodi:namedview
     id="base"
     pagecolor="#ffffff"
     bordercolor="#666666"
     borderopacity="1.0"
     inkscape:pageopacity="0.0"
     inkscape:pageshadow="2"
     inkscape:zoom="7"
     inkscape:cx="20.737576"
     inkscape:cy="32.396768"
     inkscape:current-layer="layer1"
     showgrid="true"
     inkscape:grid-bbox="true"
     inkscape:document-units="px"
     inkscape:window-width="1368"
     inkscape:window-height="667"
     inkscape:window-x="0"
     inkscape:window-y="0"
     inkscape:window-maximized="1" />
  <metadata
     id="metadata5186">
    <rdf:RDF>
      <cc:Work
         rdf:about="">
        <dc:format>image/svg+xml</dc:format>
        <dc:type
           rdf:resource="http://purl.org/dc/dcmitype/StillImage" />
        <dc:title />
      </cc:Work>
    </rdf:RDF>
  </metadata>
  <g
     id="layer1"
     inkscape:label="Layer 1"
     inkscape:groupmode="layer"
     transform="translate(0,16)">
    <g
       id="layer1-3"
       inkscape:label="Layer 1"
       transform="translate(-10.303556,4.4446691)">
      <circle
         style="fill:#a1a39d;fill-opacity:1;stroke:#000000;stroke-width:2;stroke-miterlimit:4;stroke-dasharray:none;stroke-opacity:1"
         id="path3938"
         transform="matrix(0.99777284,0,0,0.99777284,9.8759387,-21.442444)"
         cx="32.5"
         cy="33.07143"
         r="31.071428" />
    </g>
    <path
       style="fill:none;stroke:#000000;stroke-width:1.5;stroke-linecap:butt;stroke-linejoin:round;stroke-miterlimit:4;stroke-opacity:1;stroke-dasharray:none"
       d="m 41.673924,35.949096 12.40768,-2.638143 -0.123,-25.774763 -12.38951,2.465735 z"
       id="path3022"
       inkscape:connector-curvature="0"
       sodipodi:nodetypes="ccccc" />
    <path
       style="fill:none;stroke:#000000;stroke-width:1.5;stroke-linecap:butt;stroke-linejoin:round;stroke-miterlimit:4;stroke-dasharray:none;stroke-opacity:1"
       d="M 22.427254,7.5621088 11.046093,-0.14287663 11.598363,24.956761 22.07567,33.176895"
       id="path3024"
       inkscape:connector-curvature="0"
       sodipodi:nodetypes="cccc" />
    <path
       style="fill:none;stroke:#000000;stroke-width:1.5;stroke-linecap:butt;stroke-linejoin:round;stroke-miterlimit:4;stroke-opacity:1;stroke-dasharray:none"
       d="M 22.441424,7.4923455 11.354223,-0.07093363 35.668124,-6.0710162 53.876664,7.3933879 41.129244,10.118743"
       id="path3026"
       inkscape:connector-curvature="0"
       sodipodi:nodetypes="ccccc" />
    <path
       transform="matrix(0.729,0,0,0.729,6.2641033,-21.094569)"
       d="m 22.053384,39.549367 a 15.142858,7.5 0 0 1 14.89323,-2.344156 15.142858,7.5 0 0 1 11.146541,5.424737"
       sodipodi:ry="7.5"
       sodipodi:rx="15.142858"
       sodipodi:cy="44.5"
       sodipodi:cx="33.42857"
       id="path3050"
       style="fill:none;fill-opacity:1;stroke:#000000;stroke-width:2.05761313;stroke-linecap:butt;stroke-linejoin:miter;stroke-miterlimit:4;stroke-dasharray:none;stroke-opacity:1"
       sodipodi:type="arc"
       sodipodi:start="3.8625237"
       sodipodi:end="6.0311864"
       sodipodi:open="true" />
    <path
       style="fill:none;stroke:#000000;stroke-width:1.5;stroke-linecap:butt;stroke-linejoin:miter;stroke-miterlimit:4;stroke-dasharray:none;stroke-opacity:1"
       d="m 22.119785,33.655493 0,-26.1970859"
       id="path3052"
       inkscape:connector-curvature="0"
       sodipodi:nodetypes="cc" />
    <path
       style="opacity:0.61306529;fill:none;stroke:none"
       d="m 28.595834,16.081009 c -2.31747,-0.256112 -3.70508,-0.641766 -5.4277,-1.508513 -2.06821,-1.040626 -3.0502,-2.194469 -2.8892,-3.394825 0.12975,-0.967341 0.92916,-2.0338254 1.96847,-2.6261184 0.47812,-0.272479 0.7575,-0.562627 0.69698,-0.723835 -0.0556,-0.147985 -0.10102,-0.392438 -0.10102,-0.543231 0,-0.150793 -2.23568,-1.797459 -4.96817,-3.659258 -3.789771,-2.582176 -4.879948,-3.41641603 -4.596198,-3.51716603 0.204588,-0.07264 5.291418,-1.34276197 11.304058,-2.82248697 l 10.93209,-2.690409 8.41822,6.22301397 c 4.63002,3.42265703 8.39284,6.24508403 8.36183,6.27205903 -0.031,0.02698 -2.55652,0.574121 -5.61223,1.215881 -3.05571,0.641759 -5.6013,1.205754 -5.65685,1.253321 -0.0556,0.04757 -0.0791,0.5850034 -0.0524,1.1943004 0.0595,1.355244 -0.25949,2.025947 -1.40923,2.962774 -2.18797,1.782792 -6.94779,2.808853 -10.96869,2.364493 l 0,0 z"
       id="path3042"
       inkscape:connector-curvature="0" />
    <path
       sodipodi:end="6.1163142"
       sodipodi:start="3.8625237"
       sodipodi:type="arc"
       style="fill:none;fill-opacity:1;stroke:#000000;stroke-width:1.5;stroke-linecap:butt;stroke-linejoin:miter;stroke-miterlimit:4;stroke-dasharray:none;stroke-opacity:1"
       id="path4300"
       sodipodi:cx="30.633532"
       sodipodi:cy="36.599743"
       sodipodi:rx="11.039144"
       sodipodi:ry="5.4675002"
       d="m 22.341021,32.990732 a 11.039144,5.4675002 0 0 1 11.311717,-1.650024 11.039144,5.4675002 0 0 1 7.866596,4.350895"
       sodipodi:open="true" />
    <path
       style="opacity:1;fill:url(#linearGradient4312);fill-opacity:1;stroke:url(#linearGradient4320);stroke-width:1;stroke-linecap:round;stroke-miterlimit:4;stroke-dasharray:none;stroke-opacity:1"
       d="M 40.887254,24.169594 C 37.593702,21.119977 29.938748,20.137453 24.264907,22.036091 l -1.638812,0.548396 -4.60613,-3.145984 -4.606131,-3.145984 10.790629,-2.676365 c 5.934845,-1.472 10.972455,-2.647015 11.194689,-2.611144 0.294237,0.04749 15.23028,10.88518 16.308315,11.833417 0.112696,0.09913 -4.630499,1.18149 -9.439278,2.153975 -0.269424,0.05449 -0.729564,-0.219681 -1.380935,-0.822808 z"
       id="path4304"
       inkscape:connector-curvature="0"
       transform="translate(0,-16)" />
    <path
       style="opacity:1;fill:url(#linearGradient4330);fill-opacity:1;stroke:url(#linearGradient4338);stroke-width:0.5;stroke-linecap:round;stroke-miterlimit:4;stroke-dasharray:none;stroke-opacity:1"
       d="M 17.258197,44.305193 C 15.09142,42.597619 13.119093,41.046637 12.875248,40.858567 12.434136,40.518351 12.430713,40.462484 12.198357,29.809005 12.069912,23.919816 11.99668,18.763771 12.035619,18.351128 l 0.0708,-0.75026 4.343656,2.930699 c 2.38901,1.611885 4.458038,3.044454 4.597839,3.183487 0.199615,0.198518 0.242987,2.7691 0.202031,11.973804 l -0.05215,11.721015 -3.939595,-3.10468 z"
       id="path4322"
       inkscape:connector-curvature="0"
       transform="translate(0,-16)" />
    <path
       style="opacity:1;fill:url(#linearGradient4348);fill-opacity:1;stroke:url(#linearGradient4356);stroke-width:0.5;stroke-linecap:round;stroke-miterlimit:4;stroke-dasharray:none;stroke-opacity:1"
       d="m 40.217721,48.859966 c -0.876586,-0.729205 -2.429823,-1.409722 -4.428627,-1.940309 -1.691437,-0.448997 -2.347441,-0.514186 -5.16975,-0.513739 -2.814934,4.04e-4 -3.467362,0.06515 -5.050762,0.500942 -1.000052,0.275239 -1.977374,0.570555 -2.171828,0.65626 C 23.062307,47.710526 23.0432,47.085296 23.0432,35.994079 l 0,-11.724869 1.154818,-0.432073 c 2.239598,-0.837941 3.950641,-1.065487 7.220819,-0.960274 2.400938,0.07725 3.336044,0.193056 4.4533,0.551523 2.008796,0.644515 3.226338,1.306994 4.148566,2.257288 l 0.801182,0.825563 0,11.390362 c 0,6.264699 -0.02273,11.387338 -0.05051,11.383641 -0.02778,-0.0037 -0.276924,-0.19507 -0.553656,-0.425274 z"
       id="path4340"
       inkscape:connector-curvature="0"
       transform="translate(0,-16)" />
    <path
       style="opacity:1;fill:url(#linearGradient4374);fill-opacity:1;stroke:url(#linearGradient4382);stroke-width:0.5;stroke-linecap:round;stroke-miterlimit:4;stroke-dasharray:none;stroke-opacity:1"
       d="m 42.438129,38.808277 c 0,-6.679053 0.02787,-12.143732 0.06194,-12.143732 0.03407,0 2.324495,-0.454569 5.089834,-1.010153 2.765339,-0.555584 5.146678,-1.010152 5.291864,-1.010152 0.214322,0 0.263975,2.261094 0.263975,12.020815 0,6.611448 -0.03952,12.020815 -0.08783,12.020815 -0.115357,0 -9.521507,1.990488 -10.14158,2.146116 l -0.478211,0.120024 0,-12.143733 z"
       id="path4366"
       inkscape:connector-curvature="0"
       transform="translate(0,-16)" />
  </g>
</svg>
