<?xml version="1.0" encoding="UTF-8" standalone="no"?>
<!-- Created with Inkscape (http://www.inkscape.org/) -->

<svg
   xmlns:dc="http://purl.org/dc/elements/1.1/"
   xmlns:cc="http://creativecommons.org/ns#"
   xmlns:rdf="http://www.w3.org/1999/02/22-rdf-syntax-ns#"
   xmlns:svg="http://www.w3.org/2000/svg"
   xmlns="http://www.w3.org/2000/svg"
   xmlns:xlink="http://www.w3.org/1999/xlink"
   xmlns:sodipodi="http://sodipodi.sourceforge.net/DTD/sodipodi-0.dtd"
   xmlns:inkscape="http://www.inkscape.org/namespaces/inkscape"
   width="64"
   height="64"
   id="svg5181"
   version="1.1"
   inkscape:version="0.91 r13725"
   sodipodi:docname="constructionCylinder.svg">
  <defs
     id="defs5183">
    <linearGradient
       id="linearGradient3796">
      <stop
         style="stop-color:#e3c7cd;stop-opacity:1;"
         offset="0"
         id="stop3798" />
      <stop
         style="stop-color:#a50029;stop-opacity:1;"
         offset="1"
         id="stop3800" />
    </linearGradient>
    <linearGradient
       inkscape:collect="always"
       xlink:href="#linearGradient3796"
       id="linearGradient3833"
       x1="13.142856"
       y1="7.4285712"
       x2="51.571426"
       y2="56.142857"
       gradientUnits="userSpaceOnUse" />
    <linearGradient
       inkscape:collect="always"
       xlink:href="#linearGradient3796"
       id="linearGradient3847"
       x1="17.071424"
       y1="41.928574"
       x2="75.071426"
       y2="46.214287"
       gradientUnits="userSpaceOnUse" />
  </defs>
  <sodipodi:namedview
     id="base"
     pagecolor="#ffffff"
     bordercolor="#666666"
     borderopacity="1.0"
     inkscape:pageopacity="0.0"
     inkscape:pageshadow="2"
     inkscape:zoom="7"
     inkscape:cx="23.504452"
     inkscape:cy="33.616351"
     inkscape:current-layer="layer1"
     showgrid="true"
     inkscape:grid-bbox="true"
     inkscape:document-units="px"
     inkscape:window-width="1368"
     inkscape:window-height="667"
     inkscape:window-x="0"
     inkscape:window-y="0"
     inkscape:window-maximized="1" />
  <metadata
     id="metadata5186">
    <rdf:RDF>
      <cc:Work
         rdf:about="">
        <dc:format>image/svg+xml</dc:format>
        <dc:type
           rdf:resource="http://purl.org/dc/dcmitype/StillImage" />
        <dc:title />
      </cc:Work>
    </rdf:RDF>
  </metadata>
  <g
     id="layer1"
     inkscape:label="Layer 1"
     inkscape:groupmode="layer"
     transform="translate(0,16)">
    <g
       id="layer1-3"
       inkscape:label="Layer 1"
       transform="translate(-10.303556,4.4446691)">
      <circle
         style="fill:#a1a39d;fill-opacity:1;stroke:#000000;stroke-width:2;stroke-miterlimit:4;stroke-dasharray:none;stroke-opacity:1"
         id="path3938"
         transform="matrix(0.99777284,0,0,0.99777284,9.8759387,-21.442444)"
         cx="32.5"
         cy="33.07143"
         r="31.071428" />
    </g>
    <path
       sodipodi:type="arc"
       style="fill:none;fill-rule:evenodd;stroke:#000000;stroke-width:1px;stroke-linecap:butt;stroke-linejoin:miter;stroke-opacity:1"
       id="path3048"
       sodipodi:cx="33.42857"
       sodipodi:cy="44.5"
       sodipodi:rx="15.142858"
       sodipodi:ry="7.5"
       d="m 48.571427,44.5 a 15.142858,7.5 0 0 1 -7.664509,6.52159 15.142858,7.5 0 0 1 -15.234794,-0.08017 15.142858,7.5 0 0 1 -7.382993,-6.600779"
       transform="translate(-0.71428571,-12.571429)"
       sodipodi:start="0"
       sodipodi:end="3.1628426"
       sodipodi:open="true" />
    <path
       transform="translate(-0.71428571,-46.714286)"
       d="M 48.571427,44.5 A 15.142858,7.5 0 0 1 33.42857,52 15.142858,7.5 0 0 1 18.285712,44.5 15.142858,7.5 0 0 1 33.42857,37 15.142858,7.5 0 0 1 48.571427,44.5 Z"
       sodipodi:ry="7.5"
       sodipodi:rx="15.142858"
       sodipodi:cy="44.5"
       sodipodi:cx="33.42857"
       id="path3050"
       style="fill:url(#linearGradient3847);fill-rule:evenodd;stroke:#000000;stroke-width:1px;stroke-linecap:butt;stroke-linejoin:miter;stroke-opacity:1;fill-opacity:1"
       sodipodi:type="arc" />
    <path
       style="fill:none;stroke:#000000;stroke-width:1px;stroke-linecap:butt;stroke-linejoin:miter;stroke-opacity:1"
       d="m 17.571429,47.714286 0,-33.857143"
       id="path3052"
       inkscape:connector-curvature="0"
       transform="translate(0,-16)" />
    <path
       style="fill:none;stroke:#000000;stroke-width:1px;stroke-linecap:butt;stroke-linejoin:miter;stroke-opacity:1"
       d="m 47.857143,48 0,-34.428571"
       id="path3054"
       inkscape:connector-curvature="0"
       transform="translate(0,-16)" />
    <path
       style="opacity:0.90000000000000002;fill:url(#linearGradient3833);stroke:none;fill-opacity:1"
       d="M 30.918738,54.763443 C 25.06402,54.463 19.97134,52.273233 18.565296,49.451671 l -0.360844,-0.72412 0,-15.847287 0,-15.847289 0.642637,0.592363 c 1.980577,1.825631 5.196122,3.185606 9.214506,3.89716 1.455364,0.257708 7.826103,0.258201 9.285714,7.15e-4 4.079672,-0.719675 7.185945,-2.022165 9.142398,-3.833496 l 0.863672,-0.799605 -0.03875,15.839626 -0.03875,15.839626 -0.377364,0.785714 c -1.70363,3.547143 -8.358429,5.799463 -15.979779,5.408365 z"
       id="path3824"
       inkscape:connector-curvature="0"
       transform="translate(0,-16)" />
  </g>
</svg>
