<?xml version="1.0" encoding="UTF-8" standalone="no"?>
<!-- Created with Inkscape (http://www.inkscape.org/) -->

<svg
   xmlns:dc="http://purl.org/dc/elements/1.1/"
   xmlns:cc="http://creativecommons.org/ns#"
   xmlns:rdf="http://www.w3.org/1999/02/22-rdf-syntax-ns#"
   xmlns:svg="http://www.w3.org/2000/svg"
   xmlns="http://www.w3.org/2000/svg"
   xmlns:xlink="http://www.w3.org/1999/xlink"
   xmlns:sodipodi="http://sodipodi.sourceforge.net/DTD/sodipodi-0.dtd"
   xmlns:inkscape="http://www.inkscape.org/namespaces/inkscape"
   width="64"
   height="64"
   id="svg5181"
   version="1.1"
   inkscape:version="0.91 r13725"
   sodipodi:docname="debugShapeTrackUp.svg">
  <defs
     id="defs5183">
    <linearGradient
       id="linearGradient3839">
      <stop
         id="stop3841"
         offset="0"
         style="stop-color:#65bddd;stop-opacity:1;" />
      <stop
         id="stop3843"
         offset="1"
         style="stop-color:#328aed;stop-opacity:1;" />
    </linearGradient>
    <linearGradient
       id="linearGradient3783">
      <stop
         style="stop-color:#aaa651;stop-opacity:1;"
         offset="0"
         id="stop3785" />
      <stop
         style="stop-color:#d1cf93;stop-opacity:1;"
         offset="1"
         id="stop3787" />
    </linearGradient>
    <linearGradient
       id="linearGradient3767">
      <stop
         style="stop-color:#7c6161;stop-opacity:1;"
         offset="0"
         id="stop3769" />
      <stop
         style="stop-color:#35161d;stop-opacity:1;"
         offset="1"
         id="stop3771" />
    </linearGradient>
    <linearGradient
       id="linearGradient3811">
      <stop
         style="stop-color:#9bbcf2;stop-opacity:1;"
         offset="0"
         id="stop3813" />
      <stop
         style="stop-color:#4547f2;stop-opacity:1;"
         offset="1"
         id="stop3815" />
    </linearGradient>
    <linearGradient
       id="linearGradient3803">
      <stop
         style="stop-color:#737687;stop-opacity:1;"
         offset="0"
         id="stop3805" />
      <stop
         style="stop-color:#d1d4e3;stop-opacity:1;"
         offset="1"
         id="stop3807" />
    </linearGradient>
    <linearGradient
       id="linearGradient3795">
      <stop
         style="stop-color:#efdce7;stop-opacity:1;"
         offset="0"
         id="stop3797" />
      <stop
         style="stop-color:#efd0cf;stop-opacity:1;"
         offset="1"
         id="stop3799" />
    </linearGradient>
    <linearGradient
       inkscape:collect="always"
       xlink:href="#linearGradient3795"
       id="linearGradient3801"
       x1="1.7367706"
       y1="24.099562"
       x2="46.301685"
       y2="24.099562"
       gradientUnits="userSpaceOnUse"
       gradientTransform="matrix(1.3745655,0,0,1.3933383,-1.0051649,-17.483344)" />
    <linearGradient
       inkscape:collect="always"
       xlink:href="#linearGradient3803"
       id="linearGradient3809"
       x1="3.6779387"
       y1="24.450077"
       x2="44.320427"
       y2="24.450077"
       gradientUnits="userSpaceOnUse"
       gradientTransform="matrix(1.3745655,0,0,1.3933383,-1.0051649,-17.483344)" />
    <linearGradient
       inkscape:collect="always"
       xlink:href="#linearGradient3811"
       id="linearGradient3817"
       x1="13.99983"
       y1="24.399767"
       x2="33.964951"
       y2="24.399767"
       gradientUnits="userSpaceOnUse"
       gradientTransform="matrix(1.3745655,0,0,1.3933383,-1.0051649,-17.483344)" />
    <linearGradient
       inkscape:collect="always"
       xlink:href="#linearGradient3839"
       id="linearGradient3837"
       x1="33.570347"
       y1="12.382076"
       x2="33.956867"
       y2="-20.332211"
       gradientUnits="userSpaceOnUse"
       gradientTransform="matrix(-1,0,0,-1,64.276164,13.956541)" />
  </defs>
  <sodipodi:namedview
     id="base"
     pagecolor="#ffffff"
     bordercolor="#666666"
     borderopacity="1.0"
     inkscape:pageopacity="0.0"
     inkscape:pageshadow="2"
     inkscape:zoom="7"
     inkscape:cx="12.772846"
     inkscape:cy="32.424473"
     inkscape:current-layer="layer1"
     showgrid="true"
     inkscape:grid-bbox="true"
     inkscape:document-units="px"
     inkscape:window-width="1368"
     inkscape:window-height="675"
     inkscape:window-x="0"
     inkscape:window-y="0"
     inkscape:window-maximized="1" />
  <metadata
     id="metadata5186">
    <rdf:RDF>
      <cc:Work
         rdf:about="">
        <dc:format>image/svg+xml</dc:format>
        <dc:type
           rdf:resource="http://purl.org/dc/dcmitype/StillImage" />
        <dc:title />
      </cc:Work>
    </rdf:RDF>
  </metadata>
  <g
     id="layer1"
     inkscape:label="Layer 1"
     inkscape:groupmode="layer"
     transform="translate(0,16)">
    <path
       sodipodi:type="arc"
       style="fill:#a1a39d;fill-opacity:1;stroke:#000000;stroke-width:2;stroke-miterlimit:4;stroke-opacity:1;stroke-dasharray:none"
       id="path3820"
       sodipodi:cx="12.5"
       sodipodi:cy="30"
       sodipodi:rx="30.785713"
       sodipodi:ry="30.857143"
       d="M 43.285713,30 A 30.785713,30.857143 0 0 1 12.5,60.857143 30.785713,30.857143 0 0 1 -18.285713,30 30.785713,30.857143 0 0 1 12.5,-0.8571434 30.785713,30.857143 0 0 1 43.285713,30 Z"
       transform="translate(19.571428,-14)" />
    <path
       inkscape:connector-curvature="0"
       id="path3367"
       style="font-style:normal;font-weight:normal;font-size:12.5px;line-height:125%;font-family:sans-serif;letter-spacing:0px;word-spacing:0px;fill:#ffffff;fill-opacity:1;stroke:none;stroke-width:1px;stroke-linecap:butt;stroke-linejoin:miter;stroke-opacity:1"
       d="m 7.23219,16.18744 q -1.36109,0 -1.88599,0.31128 -0.5249,0.31128 -0.5249,1.06201 0,0.59814 0.39062,0.95215 0.39673,0.3479 1.07422,0.3479 0.93384,0 1.49536,-0.65918 0.56763,-0.66529 0.56763,-1.76392 l 0,-0.25024 -1.11694,0 z m 2.23999,-0.46387 0,3.90015 -1.12305,0 0,-1.0376 q -0.38452,0.62256 -0.95825,0.92163 -0.57373,0.29297 -1.40381,0.29297 -1.0498,0 -1.67236,-0.58594 -0.61646,-0.59204 -0.61646,-1.58081 0,-1.15356 0.76904,-1.7395 0.77515,-0.58594 2.30713,-0.58594 l 1.57471,0 0,-0.10986 q 0,-0.77515 -0.51269,-1.19629 -0.5066,-0.42725 -1.42823,-0.42725 -0.58593,0 -1.14135,0.14038 -0.55542,0.14038 -1.06812,0.42115 l 0,-1.0376 q 0.61646,-0.23804 1.19629,-0.35401 0.57983,-0.12207 1.12915,-0.12207 1.48315,0 2.21558,0.76905 0.73242,0.76904 0.73242,2.33154 z" />
    <path
       inkscape:connector-curvature="0"
       id="path3369"
       style="font-style:normal;font-weight:normal;font-size:12.5px;line-height:125%;font-family:sans-serif;letter-spacing:0px;word-spacing:0px;fill:#ffffff;fill-opacity:1;stroke:none;stroke-width:1px;stroke-linecap:butt;stroke-linejoin:miter;stroke-opacity:1"
       d="m 16.14942,12.98919 0,1.06202 q -0.47607,-0.24414 -0.98877,-0.36621 -0.51269,-0.12208 -1.06201,-0.12208 -0.83618,0 -1.25732,0.25635 -0.41504,0.25635 -0.41504,0.76905 0,0.39062 0.29907,0.61645 0.29907,0.21973 1.20239,0.42114 l 0.38453,0.0855 q 1.19628,0.25635 1.69677,0.72632 0.50659,0.46387 0.50659,1.30005 0,0.95215 -0.75683,1.50757 -0.75073,0.55542 -2.06909,0.55542 -0.54932,0 -1.14746,-0.10987 -0.59205,-0.10376 -1.25122,-0.31738 l 0,-1.15967 q 0.62255,0.32349 1.2268,0.48828 0.60425,0.1587 1.19629,0.1587 0.79346,0 1.2207,-0.26856 0.42725,-0.27466 0.42725,-0.76904 0,-0.45777 -0.31128,-0.70191 -0.30517,-0.24414 -1.34888,-0.46997 l -0.39062,-0.0916 q -1.0437,-0.21973 -1.50757,-0.67139 -0.46387,-0.45776 -0.46387,-1.25122 0,-0.96435 0.6836,-1.48925 0.68359,-0.52491 1.94092,-0.52491 0.62255,0 1.17187,0.0916 0.54932,0.0916 1.01318,0.27465 z" />
    <path
       inkscape:connector-curvature="0"
       id="path3371"
       style="font-style:normal;font-weight:normal;font-size:12.5px;line-height:125%;font-family:sans-serif;letter-spacing:0px;word-spacing:0px;fill:#ffffff;fill-opacity:1;stroke:none;stroke-width:1px;stroke-linecap:butt;stroke-linejoin:miter;stroke-opacity:1"
       d="m 22.80836,13.82538 0,-3.69873 1.12305,0 0,9.49707 -1.12305,0 0,-1.02539 q -0.354,0.61035 -0.89722,0.90942 -0.53711,0.29297 -1.29394,0.29297 -1.23902,0 -2.02027,-0.98877 -0.77514,-0.98877 -0.77514,-2.6001 0,-1.61133 0.77514,-2.6001 0.78125,-0.98877 2.02027,-0.98877 0.75683,0 1.29394,0.29908 0.54322,0.29296 0.89722,0.90332 z m -3.82691,2.38647 q 0,1.23901 0.5066,1.94702 0.51269,0.70191 1.40381,0.70191 0.89111,0 1.4038,-0.70191 0.5127,-0.70801 0.5127,-1.94702 0,-1.23901 -0.5127,-1.94092 -0.51269,-0.70801 -1.4038,-0.70801 -0.89112,0 -1.40381,0.70801 -0.5066,0.70191 -0.5066,1.94092 z" />
    <path
       inkscape:connector-curvature="0"
       id="path3373"
       style="font-style:normal;font-weight:normal;font-size:12.5px;line-height:125%;font-family:sans-serif;letter-spacing:0px;word-spacing:0px;fill:#ffffff;fill-opacity:1;stroke:none;stroke-width:1px;stroke-linecap:butt;stroke-linejoin:miter;stroke-opacity:1"
       d="m 29.70533,10.12665 0,0.93383 -1.07422,0 q -0.60424,0 -0.84228,0.24414 -0.23194,0.24414 -0.23194,0.87891 l 0,0.60425 1.84937,0 0,0.8728 -1.84937,0 0,5.96314 -1.12915,0 0,-5.96314 -1.07421,0 0,-0.8728 1.07421,0 0,-0.47608 q 0,-1.14135 0.53101,-1.66015 0.53101,-0.5249 1.68457,-0.5249 l 1.06201,0 z" />
    <path
       inkscape:connector-curvature="0"
       id="path3375"
       style="font-style:normal;font-weight:normal;font-size:12.5px;line-height:125%;font-family:sans-serif;letter-spacing:0px;word-spacing:0px;fill:#ffffff;fill-opacity:1;stroke:none;stroke-width:1px;stroke-linecap:butt;stroke-linejoin:miter;stroke-opacity:1"
       d="m 29.38795,15.69916 3.28979,0 0,1.00097 -3.28979,0 0,-1.00097 z" />
    <path
       inkscape:connector-curvature="0"
       id="path3377"
       style="font-style:normal;font-weight:normal;font-size:12.5px;line-height:125%;font-family:sans-serif;letter-spacing:0px;word-spacing:0px;fill:#ffffff;fill-opacity:1;stroke:none;stroke-width:1px;stroke-linecap:butt;stroke-linejoin:miter;stroke-opacity:1"
       d="m 38.97047,16.1264 q 0,-1.2207 -0.50659,-1.89209 -0.50049,-0.67139 -1.40992,-0.67139 -0.90332,0 -1.40991,0.67139 -0.50049,0.67139 -0.50049,1.89209 0,1.2146 0.50049,1.88599 0.50659,0.67138 1.40991,0.67138 0.90943,0 1.40992,-0.67138 0.50659,-0.67139 0.50659,-1.88599 z m 1.12305,2.64893 q 0,1.7456 -0.77515,2.59399 -0.77515,0.85449 -2.37427,0.85449 -0.59204,0 -1.11694,-0.0916 -0.5249,-0.0854 -1.01929,-0.26855 l 0,-1.09253 q 0.49439,0.26855 0.97656,0.39673 0.48218,0.12817 0.98267,0.12817 1.10474,0 1.65405,-0.57983 0.54932,-0.57374 0.54932,-1.73951 l 0,-0.55542 q -0.3479,0.60425 -0.89111,0.90332 -0.54322,0.29908 -1.30005,0.29908 -1.25733,0 -2.02637,-0.95826 -0.76904,-0.95825 -0.76904,-2.53906 0,-1.58691 0.76904,-2.54516 0.76904,-0.95826 2.02637,-0.95826 0.75683,0 1.30005,0.29908 0.54321,0.29907 0.89111,0.90332 l 0,-1.0376 1.12305,0 0,5.98755 z" />
    <path
       inkscape:connector-curvature="0"
       id="path3379"
       style="font-style:normal;font-weight:normal;font-size:12.5px;line-height:125%;font-family:sans-serif;letter-spacing:0px;word-spacing:0px;fill:#ffffff;fill-opacity:1;stroke:none;stroke-width:1px;stroke-linecap:butt;stroke-linejoin:miter;stroke-opacity:1"
       d="m 48.08912,15.49774 0,4.12598 -1.12305,0 0,-4.08936 q 0,-0.97046 -0.37841,-1.45264 -0.37842,-0.48217 -1.13526,-0.48217 -0.90942,0 -1.43432,0.57983 -0.52491,0.57983 -0.52491,1.58081 l 0,3.86353 -1.12915,0 0,-9.49707 1.12915,0 0,3.72314 q 0.40284,-0.61646 0.94605,-0.92163 0.54932,-0.30518 1.26343,-0.30518 1.17797,0 1.78222,0.73243 0.60425,0.72631 0.60425,2.14233 z" />
    <path
       inkscape:connector-curvature="0"
       id="path3381"
       style="font-style:normal;font-weight:normal;font-size:12.5px;line-height:125%;font-family:sans-serif;letter-spacing:0px;word-spacing:0px;fill:#ffffff;fill-opacity:1;stroke:none;stroke-width:1px;stroke-linecap:butt;stroke-linejoin:miter;stroke-opacity:1"
       d="m 50.34132,12.78778 1.12305,0 0,6.95801 q 0,1.30615 -0.50049,1.89209 -0.49439,0.58593 -1.59912,0.58593 l -0.42725,0 0,-0.95215 0.29907,0 q 0.64087,0 0.8728,-0.29907 0.23194,-0.29297 0.23194,-1.2268 l 0,-6.95801 z m 0,-2.66113 1.12305,0 0,1.42211 -1.12305,0 0,-1.42211 z" />
    <path
       inkscape:connector-curvature="0"
       id="path3383"
       style="font-style:normal;font-weight:normal;font-size:12.5px;line-height:125%;font-family:sans-serif;letter-spacing:0px;word-spacing:0px;fill:#ffffff;fill-opacity:1;stroke:none;stroke-width:1px;stroke-linecap:butt;stroke-linejoin:miter;stroke-opacity:1"
       d="m 53.76539,10.12665 1.12915,0 0,5.60913 3.35083,-2.948 1.43433,0 -3.62549,3.19824 3.77808,3.6377 -1.46485,0 -3.4729,-3.33863 0,3.33863 -1.12915,0 0,-9.49707 z" />
    <path
       style="opacity:0.61306529;fill:url(#linearGradient3837);fill-opacity:1;stroke:#349917;stroke-width:1px;stroke-linecap:butt;stroke-linejoin:miter;stroke-opacity:1"
       d="m 38.316474,37.484622 0,-25.418207 10.746485,0 -16.621831,-19.0279944 -16.621832,19.0279944 10.544453,0 0,25.418207 z"
       id="path3829"
       inkscape:connector-curvature="0"
       sodipodi:nodetypes="cccccccc" />
  </g>
</svg>
