<?xml version="1.0" encoding="UTF-8" standalone="no"?>
<!-- Created with Inkscape (http://www.inkscape.org/) -->

<svg
   xmlns:dc="http://purl.org/dc/elements/1.1/"
   xmlns:cc="http://creativecommons.org/ns#"
   xmlns:rdf="http://www.w3.org/1999/02/22-rdf-syntax-ns#"
   xmlns:svg="http://www.w3.org/2000/svg"
   xmlns="http://www.w3.org/2000/svg"
   xmlns:xlink="http://www.w3.org/1999/xlink"
   xmlns:sodipodi="http://sodipodi.sourceforge.net/DTD/sodipodi-0.dtd"
   xmlns:inkscape="http://www.inkscape.org/namespaces/inkscape"
   width="64"
   height="64"
   id="svg5181"
   version="1.1"
   inkscape:version="0.91 r13725"
   sodipodi:docname="debugCheckShapeIds.svg">
  <defs
     id="defs5183">
    <linearGradient
       id="linearGradient4860">
      <stop
         id="stop4862"
         offset="0"
         style="stop-color:#82a2f2;stop-opacity:1;" />
      <stop
         id="stop4864"
         offset="1"
         style="stop-color:#454767;stop-opacity:1" />
    </linearGradient>
    <linearGradient
       id="linearGradient4854">
      <stop
         id="stop4856"
         offset="0"
         style="stop-color:#82a2f2;stop-opacity:1;" />
      <stop
         id="stop4858"
         offset="1"
         style="stop-color:#454767;stop-opacity:1" />
    </linearGradient>
    <linearGradient
       id="linearGradient3811">
      <stop
         style="stop-color:#82a2f2;stop-opacity:1;"
         offset="0"
         id="stop3813" />
      <stop
         style="stop-color:#454767;stop-opacity:1"
         offset="1"
         id="stop3815" />
    </linearGradient>
    <linearGradient
       inkscape:collect="always"
       xlink:href="#linearGradient3811"
       id="linearGradient3904"
       gradientUnits="userSpaceOnUse"
       gradientTransform="matrix(1.771561,0,0,1.771561,-25.379349,-12.231121)"
       x1="24.170107"
       y1="0.28350139"
       x2="49.684925"
       y2="27.746431" />
    <linearGradient
       inkscape:collect="always"
       xlink:href="#linearGradient4854"
       id="linearGradient3907"
       gradientUnits="userSpaceOnUse"
       gradientTransform="matrix(1.771561,0,0,1.771561,-39.586746,-31.258847)"
       x1="32.189812"
       y1="11.024157"
       x2="57.704632"
       y2="38.487087" />
    <linearGradient
       inkscape:collect="always"
       xlink:href="#linearGradient4860"
       id="linearGradient3910"
       gradientUnits="userSpaceOnUse"
       gradientTransform="matrix(1.771561,0,0,1.771561,-0.57009766,-34.194272)"
       x1="10.165932"
       y1="12.681128"
       x2="35.680748"
       y2="40.144058" />
  </defs>
  <sodipodi:namedview
     id="base"
     pagecolor="#ffffff"
     bordercolor="#666666"
     borderopacity="1.0"
     inkscape:pageopacity="0.0"
     inkscape:pageshadow="2"
     inkscape:zoom="7"
     inkscape:cx="23.279273"
     inkscape:cy="30.336525"
     inkscape:current-layer="layer1"
     showgrid="true"
     inkscape:grid-bbox="true"
     inkscape:document-units="px"
     inkscape:window-width="1368"
     inkscape:window-height="667"
     inkscape:window-x="0"
     inkscape:window-y="0"
     inkscape:window-maximized="1" />
  <metadata
     id="metadata5186">
    <rdf:RDF>
      <cc:Work
         rdf:about="">
        <dc:format>image/svg+xml</dc:format>
        <dc:type
           rdf:resource="http://purl.org/dc/dcmitype/StillImage" />
        <dc:title />
      </cc:Work>
    </rdf:RDF>
  </metadata>
  <g
     id="layer1"
     inkscape:label="Layer 1"
     inkscape:groupmode="layer"
     transform="translate(0,16)">
    <g
       id="layer1-3"
       inkscape:label="Layer 1"
       transform="translate(-10.303556,4.4446691)">
      <circle
         style="fill:#a1a39d;fill-opacity:1;stroke:#000000;stroke-width:2;stroke-miterlimit:4;stroke-dasharray:none;stroke-opacity:1"
         id="path3938"
         transform="matrix(0.99777284,0,0,0.99777284,9.8759387,-21.442444)"
         cx="32.5"
         cy="33.07143"
         r="31.071428" />
    </g>
    <path
       style="fill:url(#linearGradient3910);fill-opacity:1;stroke:#000000;stroke-width:1;stroke-linecap:butt;stroke-linejoin:round;stroke-miterlimit:4;stroke-dasharray:none;stroke-opacity:1"
       d="M 31.250583,39.68717 55.104169,22.613999 54.929166,5.7525783 31.379476,22.980898 Z"
       id="path3022"
       inkscape:connector-curvature="0"
       sodipodi:nodetypes="ccccc" />
    <path
       style="fill:url(#linearGradient3907);fill-opacity:1;stroke:#000000;stroke-width:1;stroke-linecap:butt;stroke-linejoin:round;stroke-miterlimit:4;stroke-dasharray:none;stroke-opacity:1"
       d="M 31.446329,22.992932 10.064654,8.7219554 11.324039,25.437326 31.397784,39.112284 Z"
       id="path3024"
       inkscape:connector-curvature="0"
       sodipodi:nodetypes="ccccc" />
    <path
       style="fill:url(#linearGradient3904);fill-opacity:1;stroke:#000000;stroke-width:1;stroke-linecap:butt;stroke-linejoin:round;stroke-miterlimit:4;stroke-dasharray:none;stroke-opacity:1"
       d="M 9.7666961,8.288822 33.516354,-8.7912493 55.016546,5.7526334 31.359486,22.519107 Z"
       id="path3026"
       inkscape:connector-curvature="0"
       sodipodi:nodetypes="ccccc" />
    <g
       transform="translate(348.0639,222.06126)"
       style="font-style:normal;font-weight:normal;font-size:40px;line-height:125%;font-family:sans-serif;text-align:center;letter-spacing:0px;word-spacing:0px;text-anchor:middle;fill:#ffffff;fill-opacity:1;stroke:none;stroke-width:1px;stroke-linecap:butt;stroke-linejoin:miter;stroke-opacity:1"
       id="flowRoot4866">
      <path
         d="m -340.96631,-206.58629 q -1.36108,0 -1.88598,0.31128 -0.52491,0.31128 -0.52491,1.06201 0,0.59815 0.39063,0.95215 0.39673,0.3479 1.07422,0.3479 0.93383,0 1.49536,-0.65918 0.56762,-0.66528 0.56762,-1.76392 l 0,-0.25024 -1.11694,0 z m 2.23999,-0.46387 0,3.90015 -1.12305,0 0,-1.0376 q -0.38452,0.62256 -0.95825,0.92163 -0.57373,0.29297 -1.40381,0.29297 -1.0498,0 -1.67236,-0.58594 -0.61645,-0.59204 -0.61645,-1.58081 0,-1.15356 0.76904,-1.7395 0.77515,-0.58594 2.30713,-0.58594 l 1.5747,0 0,-0.10986 q 0,-0.77515 -0.51269,-1.19629 -0.50659,-0.42724 -1.42822,-0.42724 -0.58594,0 -1.14136,0.14038 -0.55542,0.14038 -1.06812,0.42114 l 0,-1.0376 q 0.61646,-0.23804 1.19629,-0.354 0.57984,-0.12207 1.12915,-0.12207 1.48316,0 2.21558,0.76904 0.73242,0.76904 0.73242,2.33154 z"
         style="font-size:12.5px;text-align:center;text-anchor:middle;fill:#ffffff;fill-opacity:1"
         id="path4875" />
      <path
         d="m -332.04907,-209.78453 0,1.06201 q -0.47608,-0.24414 -0.98877,-0.36621 -0.5127,-0.12207 -1.06201,-0.12207 -0.83619,0 -1.25733,0.25635 -0.41504,0.25634 -0.41504,0.76904 0,0.39062 0.29908,0.61645 0.29907,0.21973 1.20239,0.42115 l 0.38452,0.0854 q 1.19629,0.25634 1.69678,0.72631 0.50659,0.46387 0.50659,1.30005 0,0.95215 -0.75684,1.50757 -0.75073,0.55542 -2.06909,0.55542 -0.54932,0 -1.14746,-0.10986 -0.59204,-0.10376 -1.25122,-0.31738 l 0,-1.15967 q 0.62256,0.32348 1.22681,0.48828 0.60424,0.15869 1.19629,0.15869 0.79345,0 1.2207,-0.26855 0.42724,-0.27466 0.42724,-0.76905 0,-0.45776 -0.31128,-0.7019 -0.30517,-0.24414 -1.34887,-0.46997 l -0.39063,-0.0916 q -1.0437,-0.21972 -1.50757,-0.67138 -0.46386,-0.45777 -0.46386,-1.25122 0,-0.96436 0.68359,-1.48926 0.68359,-0.5249 1.94092,-0.5249 0.62256,0 1.17187,0.0916 0.54932,0.0916 1.01319,0.27466 z"
         style="font-size:12.5px;text-align:center;text-anchor:middle;fill:#ffffff;fill-opacity:1"
         id="path4877" />
      <path
         d="m -325.39014,-208.94835 0,-3.69873 1.12305,0 0,9.49707 -1.12305,0 0,-1.02539 q -0.354,0.61035 -0.89721,0.90942 -0.53711,0.29297 -1.29395,0.29297 -1.23901,0 -2.02026,-0.98877 -0.77515,-0.98877 -0.77515,-2.6001 0,-1.61132 0.77515,-2.60009 0.78125,-0.98877 2.02026,-0.98877 0.75684,0 1.29395,0.29907 0.54321,0.29297 0.89721,0.90332 z m -3.8269,2.38647 q 0,1.23902 0.50659,1.94703 0.5127,0.7019 1.40381,0.7019 0.89111,0 1.40381,-0.7019 0.51269,-0.70801 0.51269,-1.94703 0,-1.23901 -0.51269,-1.94091 -0.5127,-0.70801 -1.40381,-0.70801 -0.89111,0 -1.40381,0.70801 -0.50659,0.7019 -0.50659,1.94091 z"
         style="font-size:12.5px;text-align:center;text-anchor:middle;fill:#ffffff;fill-opacity:1"
         id="path4879" />
      <path
         d="m -318.49316,-212.64708 0,0.93384 -1.07422,0 q -0.60425,0 -0.84229,0.24414 -0.23193,0.24414 -0.23193,0.8789 l 0,0.60425 1.84936,0 0,0.8728 -1.84936,0 0,5.96314 -1.12915,0 0,-5.96314 -1.07422,0 0,-0.8728 1.07422,0 0,-0.47607 q 0,-1.14136 0.531,-1.66016 0.53101,-0.5249 1.68457,-0.5249 l 1.06202,0 z"
         style="font-size:12.5px;text-align:center;text-anchor:middle;fill:#ffffff;fill-opacity:1"
         id="path4881" />
      <path
         d="m -318.81055,-207.07457 3.2898,0 0,1.00098 -3.2898,0 0,-1.00098 z"
         style="font-size:12.5px;text-align:center;text-anchor:middle;fill:#ffffff;fill-opacity:1"
         id="path4883" />
      <path
         d="m -309.22803,-206.64732 q 0,-1.22071 -0.50659,-1.89209 -0.50049,-0.67139 -1.40991,-0.67139 -0.90332,0 -1.40991,0.67139 -0.50049,0.67138 -0.50049,1.89209 0,1.21459 0.50049,1.88598 0.50659,0.67139 1.40991,0.67139 0.90942,0 1.40991,-0.67139 0.50659,-0.67139 0.50659,-1.88598 z m 1.12305,2.64892 q 0,1.74561 -0.77515,2.59399 -0.77514,0.8545 -2.37426,0.8545 -0.59205,0 -1.11695,-0.0916 -0.5249,-0.0854 -1.01928,-0.26855 l 0,-1.09253 q 0.49438,0.26856 0.97656,0.39673 0.48218,0.12817 0.98266,0.12817 1.10474,0 1.65406,-0.57983 0.54931,-0.57373 0.54931,-1.7395 l 0,-0.55542 q -0.3479,0.60424 -0.89111,0.90332 -0.54321,0.29907 -1.30005,0.29907 -1.25732,0 -2.02637,-0.95825 -0.76904,-0.95825 -0.76904,-2.53906 0,-1.58692 0.76904,-2.54517 0.76905,-0.95825 2.02637,-0.95825 0.75684,0 1.30005,0.29907 0.54321,0.29907 0.89111,0.90332 l 0,-1.0376 1.12305,0 0,5.98755 z"
         style="font-size:12.5px;text-align:center;text-anchor:middle;fill:#ffffff;fill-opacity:1"
         id="path4885" />
      <path
         d="m -300.10937,-207.27599 0,4.12598 -1.12305,0 0,-4.08936 q 0,-0.97045 -0.37842,-1.45263 -0.37842,-0.48218 -1.13525,-0.48218 -0.90943,0 -1.43433,0.57983 -0.5249,0.57984 -0.5249,1.58081 l 0,3.86353 -1.12915,0 0,-9.49707 1.12915,0 0,3.72314 q 0.40283,-0.61645 0.94604,-0.92163 0.54932,-0.30517 1.26343,-0.30517 1.17798,0 1.78223,0.73242 0.60425,0.72632 0.60425,2.14233 z"
         style="font-size:12.5px;text-align:center;text-anchor:middle;fill:#ffffff;fill-opacity:1"
         id="path4887" />
      <path
         d="m -297.85718,-209.98595 1.12305,0 0,6.95801 q 0,1.30615 -0.50049,1.89209 -0.49438,0.58594 -1.59912,0.58594 l -0.42725,0 0,-0.95215 0.29908,0 q 0.64087,0 0.8728,-0.29907 0.23193,-0.29297 0.23193,-1.22681 l 0,-6.95801 z m 0,-2.66113 1.12305,0 0,1.42212 -1.12305,0 0,-1.42212 z"
         style="font-size:12.5px;text-align:center;text-anchor:middle;fill:#ffffff;fill-opacity:1"
         id="path4889" />
      <path
         d="m -294.43311,-212.64708 1.12915,0 0,5.60913 3.35084,-2.948 1.43432,0 -3.62549,3.19824 3.77808,3.6377 -1.46484,0 -3.47291,-3.33862 0,3.33862 -1.12915,0 0,-9.49707 z"
         style="font-size:12.5px;text-align:center;text-anchor:middle;fill:#ffffff;fill-opacity:1"
         id="path4891" />
    </g>
  </g>
</svg>
