<?xml version="1.0" encoding="UTF-8" standalone="no"?>
<!-- Created with Inkscape (http://www.inkscape.org/) -->

<svg
   xmlns:dc="http://purl.org/dc/elements/1.1/"
   xmlns:cc="http://creativecommons.org/ns#"
   xmlns:rdf="http://www.w3.org/1999/02/22-rdf-syntax-ns#"
   xmlns:svg="http://www.w3.org/2000/svg"
   xmlns="http://www.w3.org/2000/svg"
   xmlns:xlink="http://www.w3.org/1999/xlink"
   xmlns:sodipodi="http://sodipodi.sourceforge.net/DTD/sodipodi-0.dtd"
   xmlns:inkscape="http://www.inkscape.org/namespaces/inkscape"
   width="64"
   height="64"
   id="svg5181"
   version="1.1"
   inkscape:version="0.91 r13725"
   sodipodi:docname="debugInquiry.svg">
  <defs
     id="defs5183">
    <linearGradient
       inkscape:collect="always"
       id="linearGradient3290">
      <stop
         style="stop-color:#828fe0;stop-opacity:1"
         offset="0"
         id="stop3292" />
      <stop
         style="stop-color:#20295f;stop-opacity:1"
         offset="1"
         id="stop3294" />
    </linearGradient>
    <linearGradient
       inkscape:collect="always"
       xlink:href="#linearGradient3290"
       id="linearGradient3296"
       x1="-180.54919"
       y1="-127.09594"
       x2="-156.65761"
       y2="-94.243401"
       gradientUnits="userSpaceOnUse" />
  </defs>
  <sodipodi:namedview
     id="base"
     pagecolor="#ffffff"
     bordercolor="#666666"
     borderopacity="1.0"
     inkscape:pageopacity="0.0"
     inkscape:pageshadow="2"
     inkscape:zoom="7"
     inkscape:cx="10.46873"
     inkscape:cy="33.327283"
     inkscape:current-layer="layer1"
     showgrid="true"
     inkscape:grid-bbox="true"
     inkscape:document-units="px"
     inkscape:window-width="1368"
     inkscape:window-height="667"
     inkscape:window-x="0"
     inkscape:window-y="0"
     inkscape:window-maximized="1" />
  <metadata
     id="metadata5186">
    <rdf:RDF>
      <cc:Work
         rdf:about="">
        <dc:format>image/svg+xml</dc:format>
        <dc:type
           rdf:resource="http://purl.org/dc/dcmitype/StillImage" />
        <dc:title />
      </cc:Work>
    </rdf:RDF>
  </metadata>
  <g
     id="layer1"
     inkscape:label="Layer 1"
     inkscape:groupmode="layer"
     transform="translate(0,16)">
    <circle
       style="fill:#a1a39d;fill-opacity:1;stroke:#000000;stroke-width:2.01122451;stroke-miterlimit:4;stroke-dasharray:none;stroke-opacity:1"
       id="path3820"
       cx="32"
       cy="16"
       r="30.994389" />
    <g
       transform="matrix(1.7290174,0,0,1.6784963,326.91838,198.57083)"
       style="font-style:normal;font-variant:normal;font-weight:bold;font-stretch:normal;font-size:40px;line-height:125%;font-family:sans-serif;-inkscape-font-specification:'sans-serif Bold';letter-spacing:0px;word-spacing:0px;fill:#000000;fill-opacity:1;stroke:none;stroke-width:1px;stroke-linecap:butt;stroke-linejoin:miter;stroke-opacity:1"
       id="flowRoot3279">
      <path
         d="m -166.72461,-103.11636 -7.05078,0 0,-0.95703 q 0,-1.60157 0.64453,-2.83203 0.64453,-1.25 2.71484,-3.16407 l 1.25,-1.13281 q 1.11329,-1.01562 1.6211,-1.91406 0.52734,-0.89844 0.52734,-1.79688 0,-1.36718 -0.9375,-2.1289 -0.9375,-0.78125 -2.61719,-0.78125 -1.58203,0 -3.41796,0.66406 -1.83594,0.64453 -3.82813,1.93359 l 0,-6.13281 q 2.36328,-0.82031 4.31641,-1.21094 1.95312,-0.39062 3.76953,-0.39062 4.76562,0 7.26562,1.95312 2.5,1.9336 2.5,5.66407 0,1.91406 -0.76172,3.4375 -0.76171,1.5039 -2.59765,3.24218 l -1.25,1.11328 q -1.32813,1.21094 -1.73828,1.95313 -0.41016,0.72266 -0.41016,1.60156 l 0,0.87891 z m -7.05078,2.89062 7.05078,0 0,6.953128 -7.05078,0 0,-6.953128 z"
         id="path3288"
         inkscape:connector-curvature="0"
         style="stroke:#000000;stroke-opacity:1;fill-opacity:1;fill:url(#linearGradient3296)" />
    </g>
  </g>
</svg>
