<?xml version="1.0" encoding="UTF-8" standalone="no"?>
<!-- Created with Inkscape (http://www.inkscape.org/) -->

<svg
   xmlns:dc="http://purl.org/dc/elements/1.1/"
   xmlns:cc="http://creativecommons.org/ns#"
   xmlns:rdf="http://www.w3.org/1999/02/22-rdf-syntax-ns#"
   xmlns:svg="http://www.w3.org/2000/svg"
   xmlns="http://www.w3.org/2000/svg"
   xmlns:xlink="http://www.w3.org/1999/xlink"
   xmlns:sodipodi="http://sodipodi.sourceforge.net/DTD/sodipodi-0.dtd"
   xmlns:inkscape="http://www.inkscape.org/namespaces/inkscape"
   width="64"
   height="64"
   id="svg5181"
   version="1.1"
   inkscape:version="0.91 r13725"
   sodipodi:docname="editForceUpdate.svg">
  <defs
     id="defs5183">
    <linearGradient
       id="linearGradient3811-7">
      <stop
         id="stop3813-9"
         offset="0"
         style="stop-color:#acc2fb;stop-opacity:1" />
      <stop
         id="stop3815-5"
         offset="1"
         style="stop-color:#4547f2;stop-opacity:1;" />
    </linearGradient>
    <linearGradient
       inkscape:collect="always"
       xlink:href="#linearGradient3811-7"
       id="linearGradient4489"
       x1="96.892403"
       y1="-3.4672959"
       x2="108.20267"
       y2="46.104134"
       gradientUnits="userSpaceOnUse"
       gradientTransform="matrix(0.7144929,0,0,0.7144929,-53.860101,13.804629)" />
    <linearGradient
       inkscape:collect="always"
       xlink:href="#linearGradient3811-7"
       id="linearGradient4517"
       gradientUnits="userSpaceOnUse"
       x1="96.892403"
       y1="-3.4672959"
       x2="108.20267"
       y2="46.104134"
       gradientTransform="matrix(-0.7144929,0,0,-0.7144929,119.18021,20.019882)" />
    <linearGradient
       inkscape:collect="always"
       xlink:href="#linearGradient3949"
       id="linearGradient4160"
       gradientUnits="userSpaceOnUse"
       x1="94.928574"
       y1="24.642859"
       x2="121.26183"
       y2="44.9016"
       gradientTransform="translate(-13.518203,-21.842785)" />
    <linearGradient
       id="linearGradient3949">
      <stop
         style="stop-color:#a3def4;stop-opacity:1"
         offset="0"
         id="stop3951" />
      <stop
         style="stop-color:#3c7bc2;stop-opacity:1"
         offset="1"
         id="stop3953" />
    </linearGradient>
    <linearGradient
       inkscape:collect="always"
       xlink:href="#linearGradient3963"
       id="linearGradient4162"
       gradientUnits="userSpaceOnUse"
       x1="90.5"
       y1="21.357143"
       x2="125.64286"
       y2="48.5"
       gradientTransform="translate(-13.518203,-21.842785)" />
    <linearGradient
       id="linearGradient3963">
      <stop
         id="stop3965"
         offset="0"
         style="stop-color:#bdcde7;stop-opacity:1" />
      <stop
         id="stop3967"
         offset="1"
         style="stop-color:#2d2fa5;stop-opacity:1" />
    </linearGradient>
    <linearGradient
       inkscape:collect="always"
       xlink:href="#linearGradient4070"
       id="linearGradient4164"
       gradientUnits="userSpaceOnUse"
       x1="86.303711"
       y1="13.819511"
       x2="124.37602"
       y2="46.649467"
       gradientTransform="translate(-7.0000003,-16)" />
    <linearGradient
       id="linearGradient4070">
      <stop
         id="stop4072"
         offset="0"
         style="stop-color:#ffffff;stop-opacity:1" />
      <stop
         id="stop4074"
         offset="1"
         style="stop-color:#a6a6a6;stop-opacity:1" />
    </linearGradient>
    <filter
       inkscape:collect="always"
       id="filter4128">
      <feGaussianBlur
         inkscape:collect="always"
         stdDeviation="0.28444646"
         id="feGaussianBlur4130" />
    </filter>
    <linearGradient
       inkscape:collect="always"
       xlink:href="#linearGradient4070"
       id="linearGradient4166"
       gradientUnits="userSpaceOnUse"
       x1="83.34256"
       y1="14.126993"
       x2="123.5021"
       y2="45.643753"
       gradientTransform="translate(-7.0000003,-16)" />
    <filter
       inkscape:collect="always"
       id="filter4136">
      <feGaussianBlur
         inkscape:collect="always"
         stdDeviation="0.30949682"
         id="feGaussianBlur4138" />
    </filter>
  </defs>
  <sodipodi:namedview
     id="base"
     pagecolor="#ffffff"
     bordercolor="#666666"
     borderopacity="1.0"
     inkscape:pageopacity="0.0"
     inkscape:pageshadow="2"
     inkscape:zoom="7"
     inkscape:cx="11.577212"
     inkscape:cy="38.466893"
     inkscape:current-layer="layer1"
     showgrid="true"
     inkscape:grid-bbox="true"
     inkscape:document-units="px"
     inkscape:window-width="1368"
     inkscape:window-height="667"
     inkscape:window-x="0"
     inkscape:window-y="0"
     inkscape:window-maximized="1" />
  <metadata
     id="metadata5186">
    <rdf:RDF>
      <cc:Work
         rdf:about="">
        <dc:format>image/svg+xml</dc:format>
        <dc:type
           rdf:resource="http://purl.org/dc/dcmitype/StillImage" />
        <dc:title />
      </cc:Work>
    </rdf:RDF>
  </metadata>
  <g
     id="layer1"
     inkscape:label="Layer 1"
     inkscape:groupmode="layer"
     transform="translate(0,16)"
     style="display:inline">
    <g
       style="display:inline"
       id="layer1-3"
       inkscape:label="Layer 1"
       transform="translate(-10.303556,4.4446691)">
      <circle
         style="fill:#a1a39d;fill-opacity:1;stroke:#000000;stroke-width:2;stroke-miterlimit:4;stroke-dasharray:none;stroke-opacity:1"
         id="path3938"
         transform="matrix(0.99777284,0,0,0.99777284,9.8759387,-21.442444)"
         cx="32.5"
         cy="33.07143"
         r="31.071428" />
    </g>
    <g
       transform="translate(-61.954634,1.0068866)"
       id="g4220">
      <circle
         id="path3939"
         style="fill:url(#linearGradient4160);fill-opacity:1;fill-rule:evenodd;stroke:url(#linearGradient4162);stroke-width:1px;stroke-linecap:butt;stroke-linejoin:miter;stroke-opacity:1"
         cx="94.41037"
         cy="14.371502"
         r="14.5" />
      <path
         sodipodi:nodetypes="ssssszcssssss"
         inkscape:connector-curvature="0"
         id="path3993"
         d="m 108.11951,15.271058 c 0.089,-4.247102 -3.51291,-12.326125 -6.55336,-12.727923 -1.50102,-0.19836 -3.75279,1.512267 -3.4724,2.424367 0.42032,1.367316 2.60541,-1.430978 3.1441,-0.555585 0.7451,1.210828 -6.52569,3.079489 -5.39169,4.747718 0.7764,1.142164 2.24319,-1.306724 3.59867,-1.010153 1.35548,0.296571 2.63956,0.721833 3.34612,2.272843 -0.30359,1.247961 -4.18143,-2.582944 -7.26047,0.808123 -1.2253,1.349467 -1.66224,3.709681 -0.65659,4.697209 1.00677,0.988634 3.23915,-0.02628 4.44468,1.010153 0.59518,0.511702 0.139,3.481929 0.15152,5.10127 0.0101,1.300578 0.53564,5.250703 2.17182,4.520432 3.42156,-1.527134 6.39419,-7.308338 6.4776,-11.288454 z"
         style="fill:url(#linearGradient4164);fill-opacity:1;stroke:none;filter:url(#filter4128)" />
      <path
         sodipodi:nodetypes="sssssssssssssssssss"
         inkscape:connector-curvature="0"
         id="path4060"
         d="m 87.09571,26.231213 c 1.588757,0.209308 2.790536,-3.138636 4.192132,-6.565992 0.911203,-2.228186 -4.351848,-4.400341 -5.858884,-4.89924 -0.57627,-0.190772 -1.346381,-9.25e-4 -1.91929,-0.303045 -0.737421,-0.388873 -2.145931,-1.103256 -1.717259,-1.818275 0.773537,-1.290249 4.815085,-3.193981 7.374114,-5.303301 0.416168,-0.343033 0.44349,-1.647928 -0.606092,-1.868782 -0.9372,-0.197206 -2.703619,0.44448 -2.828427,-0.505076 -0.135818,-1.033321 2.856681,-2.693561 4.444671,-2.222336 1.085123,0.322003 0.284362,2.643819 1.414213,2.575889 0.868543,-0.05222 2.782602,-0.934847 3.586042,-1.818274 0.8045,-0.884587 1.10111,-2.701345 -0.0444,-3.0442 -1.22665,-0.367147 -5.821279,-0.02214 -10.861678,4.03702 -2.450688,1.973601 -4.174047,7.261314 -3.665085,9.41534 0.187955,0.79546 0.230188,0.81392 1.035099,0.956056 1.129413,0.199438 2.4987,0.312925 2.878935,1.313198 0.2624,0.690288 -1.386879,2.090311 -1.363706,2.828427 0.04301,1.369976 1.727051,1.461728 2.525381,2.575889 1.963414,2.74017 0.570201,4.535508 1.414214,4.646702 z"
         style="fill:url(#linearGradient4166);fill-opacity:1;stroke:none;filter:url(#filter4136)" />
    </g>
    <path
       style="display:inline;fill:url(#linearGradient4489);fill-opacity:1;fill-rule:evenodd;stroke:#00125c;stroke-width:0.89311618;stroke-linecap:butt;stroke-linejoin:round;stroke-miterlimit:4;stroke-dasharray:none;stroke-opacity:1"
       d="M 29.638004,28.278519 18.42466,14.084872 7.0372875,28.414644 13.73149,28.432684 c 0,0 -2.41027,13.620126 14.879302,13.409543 -9.101381,-4.022212 -6.49647,-13.627879 -6.49647,-13.627879 z"
       id="path4479"
       inkscape:connector-curvature="0"
       sodipodi:nodetypes="ccccccc" />
    <path
       sodipodi:nodetypes="ccccccc"
       inkscape:connector-curvature="0"
       id="path4515"
       d="M 35.682112,5.5459909 46.895457,19.739638 58.282828,5.4098659 51.588624,5.3918259 c 0,0 2.410272,-13.6201246 -14.8793,-13.4095426 9.101381,4.0222123 6.49647,13.6278806 6.49647,13.6278806 z"
       style="display:inline;fill:url(#linearGradient4517);fill-opacity:1;fill-rule:evenodd;stroke:#00125c;stroke-width:0.89311618;stroke-linecap:butt;stroke-linejoin:round;stroke-miterlimit:4;stroke-dasharray:none;stroke-opacity:1" />
  </g>
</svg>
