<?xml version="1.0" encoding="UTF-8" standalone="no"?>
<!-- Created with Inkscape (http://www.inkscape.org/) -->

<svg
   xmlns:dc="http://purl.org/dc/elements/1.1/"
   xmlns:cc="http://creativecommons.org/ns#"
   xmlns:rdf="http://www.w3.org/1999/02/22-rdf-syntax-ns#"
   xmlns:svg="http://www.w3.org/2000/svg"
   xmlns="http://www.w3.org/2000/svg"
   xmlns:xlink="http://www.w3.org/1999/xlink"
   xmlns:sodipodi="http://sodipodi.sourceforge.net/DTD/sodipodi-0.dtd"
   xmlns:inkscape="http://www.inkscape.org/namespaces/inkscape"
   width="64"
   height="64"
   id="svg5181"
   version="1.1"
   inkscape:version="0.91 r13725"
   sodipodi:docname="editRemove.svg">
  <defs
     id="defs5183">
    <linearGradient
       id="linearGradient4203">
      <stop
         style="stop-color:#6b6548;stop-opacity:1"
         offset="0"
         id="stop4205" />
      <stop
         style="stop-color:#e5e0d4;stop-opacity:1"
         offset="1"
         id="stop4207" />
    </linearGradient>
    <linearGradient
       id="linearGradient4197">
      <stop
         style="stop-color:#6b6548;stop-opacity:1"
         offset="0"
         id="stop4199" />
      <stop
         style="stop-color:#e5e0d4;stop-opacity:1"
         offset="1"
         id="stop4201" />
    </linearGradient>
    <linearGradient
       id="linearGradient3851">
      <stop
         style="stop-color:#e6eb24;stop-opacity:1;"
         offset="0"
         id="stop3853" />
      <stop
         style="stop-color:#9b825d;stop-opacity:1;"
         offset="1"
         id="stop3855" />
    </linearGradient>
    <linearGradient
       id="linearGradient3796">
      <stop
         style="stop-color:#e3c7cd;stop-opacity:1;"
         offset="0"
         id="stop3798" />
      <stop
         style="stop-color:#a50029;stop-opacity:1;"
         offset="1"
         id="stop3800" />
    </linearGradient>
    <linearGradient
       id="linearGradient3803-0">
      <stop
         id="stop3805-5"
         offset="0"
         style="stop-color:#6b6548;stop-opacity:1" />
      <stop
         id="stop3807-7"
         offset="1"
         style="stop-color:#e5e0d4;stop-opacity:1" />
    </linearGradient>
    <linearGradient
       inkscape:collect="always"
       xlink:href="#linearGradient3796"
       id="linearGradient4263"
       x1="93.778603"
       y1="3.3224351"
       x2="159.26944"
       y2="46.465294"
       gradientUnits="userSpaceOnUse" />
    <linearGradient
       inkscape:collect="always"
       xlink:href="#linearGradient4203"
       id="linearGradient4285"
       x1="102.8281"
       y1="-8.588769"
       x2="153.54034"
       y2="9.4015293"
       gradientUnits="userSpaceOnUse" />
    <linearGradient
       inkscape:collect="always"
       xlink:href="#linearGradient3851"
       id="linearGradient4294"
       x1="159.44221"
       y1="-10.333357"
       x2="222.72879"
       y2="14.238071"
       gradientUnits="userSpaceOnUse"
       gradientTransform="translate(-60.407122,0)" />
    <linearGradient
       inkscape:collect="always"
       xlink:href="#linearGradient3803-0"
       id="linearGradient4306"
       x1="102.8281"
       y1="-8.588769"
       x2="153.54034"
       y2="9.4015293"
       gradientUnits="userSpaceOnUse" />
    <linearGradient
       inkscape:collect="always"
       xlink:href="#linearGradient4197"
       id="linearGradient4314"
       x1="102.8281"
       y1="-8.588769"
       x2="153.54034"
       y2="9.4015293"
       gradientUnits="userSpaceOnUse" />
    <linearGradient
       inkscape:collect="always"
       xlink:href="#linearGradient3851"
       id="linearGradient4235"
       x1="125.15057"
       y1="28.288019"
       x2="134.7628"
       y2="28.288019"
       gradientUnits="userSpaceOnUse" />
    <linearGradient
       inkscape:collect="always"
       xlink:href="#linearGradient3851"
       id="linearGradient4243"
       x1="136.50847"
       y1="25.492151"
       x2="130.44388"
       y2="21.502048"
       gradientUnits="userSpaceOnUse" />
    <linearGradient
       inkscape:collect="always"
       xlink:href="#linearGradient3851"
       id="linearGradient4255"
       gradientUnits="userSpaceOnUse"
       x1="125.15057"
       y1="28.288019"
       x2="134.7628"
       y2="28.288019" />
    <linearGradient
       inkscape:collect="always"
       xlink:href="#linearGradient3851"
       id="linearGradient4257"
       gradientUnits="userSpaceOnUse"
       x1="136.50847"
       y1="25.492151"
       x2="130.44388"
       y2="21.502048" />
    <linearGradient
       inkscape:collect="always"
       xlink:href="#linearGradient3851"
       id="linearGradient4265"
       gradientUnits="userSpaceOnUse"
       x1="125.15057"
       y1="28.288019"
       x2="134.7628"
       y2="28.288019" />
    <linearGradient
       inkscape:collect="always"
       xlink:href="#linearGradient3851"
       id="linearGradient4267"
       gradientUnits="userSpaceOnUse"
       x1="136.50847"
       y1="25.492151"
       x2="130.44388"
       y2="21.502048" />
  </defs>
  <sodipodi:namedview
     id="base"
     pagecolor="#ffffff"
     bordercolor="#666666"
     borderopacity="1.0"
     inkscape:pageopacity="0.0"
     inkscape:pageshadow="2"
     inkscape:zoom="3.5"
     inkscape:cx="-25.637531"
     inkscape:cy="28.096465"
     inkscape:current-layer="layer1"
     showgrid="true"
     inkscape:grid-bbox="true"
     inkscape:document-units="px"
     inkscape:window-width="1368"
     inkscape:window-height="667"
     inkscape:window-x="0"
     inkscape:window-y="0"
     inkscape:window-maximized="1" />
  <metadata
     id="metadata5186">
    <rdf:RDF>
      <cc:Work
         rdf:about="">
        <dc:format>image/svg+xml</dc:format>
        <dc:type
           rdf:resource="http://purl.org/dc/dcmitype/StillImage" />
        <dc:title />
      </cc:Work>
    </rdf:RDF>
  </metadata>
  <g
     id="layer1"
     inkscape:label="Layer 1"
     inkscape:groupmode="layer"
     transform="translate(0,16)">
    <g
       id="layer1-3"
       inkscape:label="Layer 1"
       transform="translate(-10.303556,4.4446691)">
      <circle
         style="fill:#a1a39d;fill-opacity:1;stroke:#000000;stroke-width:2;stroke-miterlimit:4;stroke-dasharray:none;stroke-opacity:1"
         id="path3938"
         transform="matrix(0.99777284,0,0,0.99777284,9.8759387,-21.442444)"
         cx="32.5"
         cy="33.07143"
         r="31.071428" />
    </g>
    <g
       id="g4280"
       transform="translate(-147.14286,2)">
      <g
         transform="translate(54,0)"
         id="g4217">
        <path
           style="fill:url(#linearGradient4285);fill-opacity:1;fill-rule:evenodd;stroke:#000000;stroke-width:1px;stroke-linecap:butt;stroke-linejoin:miter;stroke-opacity:1"
           d="m 109.29851,-3.113719 -0.10102,0.606092 0.10102,19.293913 32.42589,-0.20203 -0.80812,-19.697975 z"
           id="path4277"
           inkscape:connector-curvature="0" />
        <path
           style="fill:url(#linearGradient4314);fill-opacity:1;fill-rule:evenodd;stroke:#000000;stroke-width:1px;stroke-linecap:butt;stroke-linejoin:miter;stroke-opacity:1"
           d="m 141.0173,-2.810673 -0.20204,0.404061 0.40407,14.142136 2.42436,5.858884 0.30305,-13.030967 z"
           id="path4296"
           inkscape:connector-curvature="0" />
        <path
           style="fill:url(#linearGradient4306);fill-opacity:1;fill-rule:evenodd;stroke:#000000;stroke-width:1px;stroke-linecap:butt;stroke-linejoin:miter;stroke-opacity:1"
           d="m 109.19749,-3.113719 0.30305,15.455334 -2.22234,4.848732 -1.3132,-12.424876 z"
           id="path4298"
           inkscape:connector-curvature="0" />
        <path
           style="fill:url(#linearGradient4263);fill-opacity:1;fill-rule:evenodd;stroke:#000000;stroke-width:1px;stroke-linecap:butt;stroke-linejoin:miter;stroke-opacity:1"
           d="m 104.44977,6.684761 c 0,0 1.4529,26.299974 1.705,27.457766 0.25211,1.157793 0.90399,2.399087 2.10803,2.792713 1.20403,0.393627 32.84728,0.331292 33.81516,-0.02166 0.96788,-0.352955 1.99058,-1.165266 2.27283,-2.070813 0.28226,-0.905547 1.81828,-28.259017 1.81828,-28.259017 z"
           id="path4255"
           inkscape:connector-curvature="0"
           sodipodi:nodetypes="czzzzcc" />
        <path
           id="path4275"
           style="fill:url(#linearGradient4294);fill-opacity:1;fill-rule:evenodd;stroke:#000000;stroke-width:1px;stroke-linecap:butt;stroke-linejoin:miter;stroke-opacity:1"
           d="m 108.99546,-2.911688 -2.52538,7.778174 37.67869,0.202031 -3.23249,-8.182236 z m -2.95182,-2.6171554 c 0.63099,-0.6523194 36.94395,-0.5531213 38.11147,-0.1140136 0.7836,0.662322 4.44876,8.6548881 4.71429,10.357143 0.26553,1.7022549 0.0117,3.3142138 -1.30357,4.0714284 C 146.25054,9.542929 105.45873,9.4031389 104.22654,9 c -1.23219,-0.4031389 -2.15361,-1.7657601 -2.39032,-3.5497638 -0.23671,-1.7840037 3.33181,-10.9063289 4.20742,-10.9790796 z"
           inkscape:connector-curvature="0" />
      </g>
      <g
         transform="translate(53.841131,0)"
         id="g4269">
        <g
           id="g4245">
          <path
             sodipodi:nodetypes="cccczczcc"
             inkscape:connector-curvature="0"
             id="path4224"
             d="m 128.78571,23.857143 -3.57142,4.428571 3.42857,4.428572 0,-2.714286 c 0,0 2.08242,0.15743 2.97908,-0.332631 0.89666,-0.490061 3.10064,-3.474375 3.10064,-3.474375 0,0 -0.59272,0.309972 -1.72258,0.449864 -1.12986,0.139892 -4.21429,0 -4.21429,0 z"
             style="fill:url(#linearGradient4235);fill-opacity:1;fill-rule:evenodd;stroke:#000000;stroke-width:0.1;stroke-linecap:butt;stroke-linejoin:miter;stroke-miterlimit:4;stroke-dasharray:none;stroke-opacity:1" />
          <path
             sodipodi:nodetypes="ccszcc"
             inkscape:connector-curvature="0"
             id="path4226"
             d="m 130.21429,22.642857 3.92857,-1.964286 c 0,0 1.2129,1.914472 1.28571,3 0.0446,0.665702 0.0347,1.390336 -0.53571,1.928572 -0.5704,0.538236 -2.64286,0.571428 -2.64286,0.571428 z"
             style="fill:url(#linearGradient4243);fill-opacity:1;fill-rule:evenodd;stroke:#000000;stroke-width:0.1;stroke-linecap:butt;stroke-linejoin:miter;stroke-miterlimit:4;stroke-dasharray:none;stroke-opacity:1" />
        </g>
        <g
           id="g4249"
           transform="matrix(-0.51448412,0.85749991,-0.85749991,-0.51448412,209.48994,-74.339686)">
          <path
             style="fill:url(#linearGradient4255);fill-opacity:1;fill-rule:evenodd;stroke:#000000;stroke-width:0.1;stroke-linecap:butt;stroke-linejoin:miter;stroke-miterlimit:4;stroke-dasharray:none;stroke-opacity:1"
             d="m 128.78571,23.857143 -3.57142,4.428571 3.42857,4.428572 0,-2.714286 c 0,0 2.08242,0.15743 2.97908,-0.332631 0.89666,-0.490061 3.10064,-3.474375 3.10064,-3.474375 0,0 -0.59272,0.309972 -1.72258,0.449864 -1.12986,0.139892 -4.21429,0 -4.21429,0 z"
             id="path4251"
             inkscape:connector-curvature="0"
             sodipodi:nodetypes="cccczczcc" />
          <path
             style="fill:url(#linearGradient4257);fill-opacity:1;fill-rule:evenodd;stroke:#000000;stroke-width:0.1;stroke-linecap:butt;stroke-linejoin:miter;stroke-miterlimit:4;stroke-dasharray:none;stroke-opacity:1"
             d="m 130.21429,22.642857 3.92857,-1.964286 c 0,0 1.2129,1.914472 1.28571,3 0.0446,0.665702 0.0347,1.390336 -0.53571,1.928572 -0.5704,0.538236 -2.64286,0.571428 -2.64286,0.571428 z"
             id="path4253"
             inkscape:connector-curvature="0"
             sodipodi:nodetypes="ccszcc" />
        </g>
        <g
           transform="matrix(-0.53209774,-0.84668295,0.84668295,-0.53209774,174.20606,140.73898)"
           id="g4259">
          <path
             sodipodi:nodetypes="cccczczcc"
             inkscape:connector-curvature="0"
             id="path4261"
             d="m 128.78571,23.857143 -3.57142,4.428571 3.42857,4.428572 0,-2.714286 c 0,0 2.08242,0.15743 2.97908,-0.332631 0.89666,-0.490061 3.10064,-3.474375 3.10064,-3.474375 0,0 -0.59272,0.309972 -1.72258,0.449864 -1.12986,0.139892 -4.21429,0 -4.21429,0 z"
             style="fill:url(#linearGradient4265);fill-opacity:1;fill-rule:evenodd;stroke:#000000;stroke-width:0.1;stroke-linecap:butt;stroke-linejoin:miter;stroke-miterlimit:4;stroke-dasharray:none;stroke-opacity:1" />
          <path
             sodipodi:nodetypes="ccszcc"
             inkscape:connector-curvature="0"
             id="path4263"
             d="m 130.21429,22.642857 3.92857,-1.964286 c 0,0 1.2129,1.914472 1.28571,3 0.0446,0.665702 0.0347,1.390336 -0.53571,1.928572 -0.5704,0.538236 -2.64286,0.571428 -2.64286,0.571428 z"
             style="fill:url(#linearGradient4267);fill-opacity:1;fill-rule:evenodd;stroke:#000000;stroke-width:0.1;stroke-linecap:butt;stroke-linejoin:miter;stroke-miterlimit:4;stroke-dasharray:none;stroke-opacity:1" />
        </g>
      </g>
    </g>
  </g>
</svg>
