<?xml version="1.0" encoding="UTF-8" standalone="no"?>
<!-- Created with Inkscape (http://www.inkscape.org/) -->

<svg
   xmlns:dc="http://purl.org/dc/elements/1.1/"
   xmlns:cc="http://creativecommons.org/ns#"
   xmlns:rdf="http://www.w3.org/1999/02/22-rdf-syntax-ns#"
   xmlns:svg="http://www.w3.org/2000/svg"
   xmlns="http://www.w3.org/2000/svg"
   xmlns:xlink="http://www.w3.org/1999/xlink"
   xmlns:sodipodi="http://sodipodi.sourceforge.net/DTD/sodipodi-0.dtd"
   xmlns:inkscape="http://www.inkscape.org/namespaces/inkscape"
   width="64"
   height="64"
   id="svg5181"
   version="1.1"
   inkscape:version="0.91 r13725"
   sodipodi:docname="linkIcon.svg">
  <defs
     id="defs5183">
    <linearGradient
       inkscape:collect="always"
       id="linearGradient4566">
      <stop
         style="stop-color:#808080;stop-opacity:1;"
         offset="0"
         id="stop4568" />
      <stop
         style="stop-color:#c1c1c1;stop-opacity:1"
         offset="1"
         id="stop4570" />
    </linearGradient>
    <linearGradient
       inkscape:collect="always"
       xlink:href="#linearGradient4566"
       id="linearGradient4572"
       x1="124.53918"
       y1="14.148971"
       x2="142.74719"
       y2="31.119534"
       gradientUnits="userSpaceOnUse"
       gradientTransform="translate(-88.75,-16)" />
    <linearGradient
       inkscape:collect="always"
       xlink:href="#linearGradient4566"
       id="linearGradient4580"
       x1="121.33865"
       y1="48.352047"
       x2="105.019"
       y2="33.944748"
       gradientUnits="userSpaceOnUse"
       gradientTransform="translate(-88.75,-16)" />
  </defs>
  <sodipodi:namedview
     id="base"
     pagecolor="#ffffff"
     bordercolor="#666666"
     borderopacity="1.0"
     inkscape:pageopacity="0.0"
     inkscape:pageshadow="2"
     inkscape:zoom="5.6568542"
     inkscape:cx="24.641147"
     inkscape:cy="29.871777"
     inkscape:current-layer="layer1"
     showgrid="true"
     inkscape:grid-bbox="true"
     inkscape:document-units="px"
     inkscape:window-width="1368"
     inkscape:window-height="667"
     inkscape:window-x="0"
     inkscape:window-y="0"
     inkscape:window-maximized="1" />
  <metadata
     id="metadata5186">
    <rdf:RDF>
      <cc:Work
         rdf:about="">
        <dc:format>image/svg+xml</dc:format>
        <dc:type
           rdf:resource="http://purl.org/dc/dcmitype/StillImage" />
        <dc:title />
      </cc:Work>
    </rdf:RDF>
  </metadata>
  <g
     id="layer1"
     inkscape:label="Layer 1"
     inkscape:groupmode="layer"
     transform="translate(0,16)">
    <rect
       style="opacity:1;fill:#78eb82;fill-opacity:1;stroke:#3b3b3b;stroke-width:0.98074055;stroke-linecap:round;stroke-miterlimit:4;stroke-dasharray:none;stroke-opacity:1"
       id="rect4161"
       width="63.019257"
       height="63.01926"
       x="0.49037027"
       y="-15.50963" />
    <g
       id="g4582"
       transform="translate(-1.4142136,-0.70710678)">
      <path
         id="path4539"
         style="fill:none;fill-opacity:1;stroke:#3b3b3b;stroke-width:0.41472;stroke-linecap:butt;stroke-linejoin:miter;stroke-miterlimit:4;stroke-dasharray:none;stroke-opacity:1"
         d="m 28.71183,11.277505 c -0.62686,1.359679 -0.93514,2.691265 -0.97385,3.940106 m 0,0 c -0.1359,4.38406 3.05025,7.748456 7.43792,7.729091 m 3.80431,-0.81438 c 1.55628,-0.648397 3.17598,-1.705591 4.79051,-3.248049 L 55.46827,7.7089162 C 66.09391,-2.4423912 54.29961,-14.542501 43.86276,-4.5715672 L 32.1652,6.6038046 c -1.61252,1.5405308 -2.73951,3.1253277 -3.45336,4.6736894 m 3.80685,-0.683561 c -0.81733,1.106277 -1.32931,2.195384 -1.58297,3.21785 m 0,0 c -0.9679,3.901436 1.82523,6.832582 5.76618,6.044878 m 3.19609,-1.374084 c 0.65002,-0.427271 1.31078,-0.952931 1.97356,-1.586128 L 53.5691,5.72109 c 7.44507,-7.1127125 -0.29185,-15.2311799 -7.74692,-8.1089139 l -11.69755,11.1753593 0,0 c -0.63007,0.6019391 -1.16289,1.2067135 -1.60598,1.8064436"
         inkscape:connector-curvature="0" />
      <path
         id="path4541"
         style="fill:none;fill-opacity:1;stroke:#3b3b3b;stroke-width:0.41472;stroke-linecap:butt;stroke-linejoin:miter;stroke-miterlimit:4;stroke-dasharray:none;stroke-opacity:1"
         d="m 39.03154,21.913573 c 0.57787,-1.27536 0.85978,-2.526825 0.89205,-3.707602 m 0,0 c 0.11696,-4.279938 -3.04595,-7.631124 -7.28286,-7.825182 m -3.8673,0.668089 c -1.521,0.587612 -3.08862,1.577715 -4.62676,3.047193 L 12.44913,25.271422 C 1.5137669,35.718617 12.90738,48.201535 24.05465,37.551891 l 11.69754,-11.17535 c 1.53983,-1.471094 2.60883,-2.983115 3.27935,-4.462963 m -3.74218,0.849811 c 0.77347,-1.059548 1.24112,-2.114206 1.45282,-3.11159 m 0,0 c 0.79273,-3.734859 -2.0036,-6.666609 -5.7707,-6.044542 m -3.18609,1.317892 c -0.55694,0.370017 -1.11885,0.819228 -1.67916,1.354532 l -11.69754,11.17535 0,0 c -8.0198291,7.661815 -0.28603,15.783263 7.74692,8.108913 l 11.69754,-11.17535 c 0.56351,-0.538349 1.04003,-1.082462 1.4363,-1.62529"
         inkscape:connector-curvature="0" />
      <path
         inkscape:connector-curvature="0"
         id="path4562"
         d="M 13.46046,41.068179 C 12.10537,40.687405 11.172795,40.096183 10.13343,38.958952 7.5262839,36.106319 7.8030299,31.515571 10.821493,27.545162 11.68126,26.414245 23.96334,14.537209 25.63041,13.224613 c 0.45037,-0.354604 1.21001,-0.871285 1.68808,-1.148179 l 0.86923,-0.503444 -0.12481,0.431855 c -0.0686,0.237521 -0.23761,0.948927 -0.37548,1.580904 -0.18629,0.853883 -0.37751,1.256997 -0.74442,1.56928 -1.66506,1.417149 -13.59455,12.944977 -14.17613,13.698824 -1.806723,2.341844 -2.448603,5.191184 -1.609069,7.142733 0.475769,1.105965 1.583049,2.170502 2.702229,2.597918 1.34964,0.515435 3.43645,0.324682 5.09185,-0.465437 0.7206,-0.343944 1.70897,-0.942443 2.19636,-1.329999 1.13981,-0.906336 13.06561,-12.313606 13.94091,-13.334767 0.36516,-0.426004 0.95704,-1.36702 1.31531,-2.091147 0.60586,-1.224568 0.65137,-1.428448 0.65109,-2.916816 -3.6e-4,-1.396637 -0.061,-1.715362 -0.47745,-2.505271 -0.80836,-1.533325 -2.2706,-2.477273 -4.13564,-2.669763 -1.11273,-0.114843 -1.12176,-0.192694 -0.19685,-1.695877 l 0.53573,-0.870659 0.85758,0.101568 c 2.14947,0.254572 4.26666,1.901231 5.32833,4.144147 0.51537,1.088775 0.56263,1.336896 0.56304,2.956295 5.3e-4,2.168207 -0.42013,3.534566 -1.68456,5.471465 -1.01443,1.553951 -1.49959,2.049867 -8.95953,9.157984 -6.87331,6.549159 -7.87812,7.331585 -10.65309,8.295358 -1.34422,0.466862 -3.54564,0.571379 -4.77266,0.226594 z"
         style="opacity:1;fill:url(#linearGradient4580);fill-opacity:1;stroke:#3b3b3b;stroke-width:0.5;stroke-linecap:round;stroke-miterlimit:4;stroke-dasharray:none;stroke-opacity:1" />
      <path
         inkscape:connector-curvature="0"
         id="path4564"
         d="M 32.95218,22.344902 C 29.64529,21.311421 27.5708,17.873199 28.13253,14.356913 28.47868,12.19012 29.12096,10.758821 30.66444,8.714691 31.31497,7.853144 42.7392,-3.217221 44.92243,-5.101667 c 2.83572,-2.447639 6.60101,-3.4673442 9.3545,-2.5333614 5.69761,1.9326234 6.73925,8.6348914 2.15291,13.8525914 -1.71864,1.955228 -14.00468,13.543106 -15.2054,14.341344 -1.74179,1.157941 -1.80533,1.169288 -1.49442,0.266843 0.14028,-0.40714 0.30108,-1.069116 0.35735,-1.47106 0.0831,-0.593773 0.23942,-0.833751 0.8335,-1.279829 1.58003,-1.186388 13.84511,-13.11868 14.50234,-14.108848 2.22045,-3.345242 1.77718,-7.033126 -1.04407,-8.686492 -1.67166,-0.979655 -4.10978,-0.864636 -6.28861,0.296664 -1.18223,0.630123 -2.0635,1.424253 -9.84515,8.8717 -6.85907,6.564476 -7.72925,7.793399 -7.72213,10.905631 0.004,1.600685 0.4471,2.65665 1.52433,3.629862 0.91328,0.825094 1.6598,1.132608 3.06893,1.264195 l 1.12787,0.105322 -0.25244,0.604158 c -0.51063,1.222131 -0.93681,1.645329 -1.64396,1.632481 -0.35798,-0.0065 -0.98609,-0.116588 -1.3958,-0.244632 z"
         style="opacity:1;fill:url(#linearGradient4572);fill-opacity:1;stroke:#3b3b3b;stroke-width:0.5;stroke-linecap:round;stroke-miterlimit:4;stroke-dasharray:none;stroke-opacity:1" />
    </g>
  </g>
</svg>
