<?xml version="1.0" encoding="UTF-8" standalone="no"?>
<!-- Created with Inkscape (http://www.inkscape.org/) -->

<svg
   xmlns:dc="http://purl.org/dc/elements/1.1/"
   xmlns:cc="http://creativecommons.org/ns#"
   xmlns:rdf="http://www.w3.org/1999/02/22-rdf-syntax-ns#"
   xmlns:svg="http://www.w3.org/2000/svg"
   xmlns="http://www.w3.org/2000/svg"
   xmlns:xlink="http://www.w3.org/1999/xlink"
   xmlns:sodipodi="http://sodipodi.sourceforge.net/DTD/sodipodi-0.dtd"
   xmlns:inkscape="http://www.inkscape.org/namespaces/inkscape"
   width="64"
   height="64"
   id="svg5181"
   version="1.1"
   inkscape:version="0.91 r13725"
   sodipodi:docname="preferences.svg">
  <defs
     id="defs5183">
    <linearGradient
       id="linearGradient4077">
      <stop
         style="stop-color:#6b747e;stop-opacity:1"
         offset="0"
         id="stop4079" />
      <stop
         style="stop-color:#37393a;stop-opacity:1"
         offset="1"
         id="stop4081" />
    </linearGradient>
    <linearGradient
       id="linearGradient4071">
      <stop
         style="stop-color:#6b747e;stop-opacity:1"
         offset="0"
         id="stop4073" />
      <stop
         style="stop-color:#484b51;stop-opacity:1"
         offset="1"
         id="stop4075" />
    </linearGradient>
    <linearGradient
       id="linearGradient4065">
      <stop
         id="stop4067"
         offset="0"
         style="stop-color:#c0daf9;stop-opacity:1" />
      <stop
         id="stop4069"
         offset="1"
         style="stop-color:#6b747e;stop-opacity:1" />
    </linearGradient>
    <filter
       inkscape:collect="always"
       id="filter3888">
      <feGaussianBlur
         inkscape:collect="always"
         stdDeviation="0.22545975"
         id="feGaussianBlur3890" />
    </filter>
    <filter
       inkscape:collect="always"
       id="filter3937">
      <feGaussianBlur
         inkscape:collect="always"
         stdDeviation="0.22375583"
         id="feGaussianBlur3939" />
    </filter>
    <filter
       inkscape:collect="always"
       id="filter3971"
       x="-0.12830797"
       width="1.2566159"
       y="-1.8532759"
       height="4.7065517">
      <feGaussianBlur
         inkscape:collect="always"
         stdDeviation="0.15228445"
         id="feGaussianBlur3973" />
    </filter>
    <filter
       inkscape:collect="always"
       id="filter4009">
      <feGaussianBlur
         inkscape:collect="always"
         stdDeviation="0.21124038"
         id="feGaussianBlur4011" />
    </filter>
    <linearGradient
       inkscape:collect="always"
       xlink:href="#linearGradient4065"
       id="linearGradient4057"
       gradientUnits="userSpaceOnUse"
       x1="137.5838"
       y1="9.1853294"
       x2="180.41223"
       y2="56.662498"
       gradientTransform="translate(-127.97485,-17.539995)" />
    <linearGradient
       inkscape:collect="always"
       xlink:href="#linearGradient4077"
       id="linearGradient4060"
       gradientUnits="userSpaceOnUse"
       x1="141.27576"
       y1="13.062793"
       x2="180.00351"
       y2="49.511459"
       gradientTransform="translate(-127.46978,-16.479335)" />
    <linearGradient
       inkscape:collect="always"
       xlink:href="#linearGradient4071"
       id="linearGradient4063"
       gradientUnits="userSpaceOnUse"
       x1="139.27118"
       y1="-7.3311076"
       x2="181.95091"
       y2="39.640987"
       gradientTransform="translate(-127.46978,-0.47933422)" />
  </defs>
  <sodipodi:namedview
     id="base"
     pagecolor="#ffffff"
     bordercolor="#666666"
     borderopacity="1.0"
     inkscape:pageopacity="0.0"
     inkscape:pageshadow="2"
     inkscape:zoom="2.4748737"
     inkscape:cx="2.6725243"
     inkscape:cy="27.044116"
     inkscape:current-layer="layer1"
     showgrid="true"
     inkscape:grid-bbox="true"
     inkscape:document-units="px"
     inkscape:window-width="1368"
     inkscape:window-height="667"
     inkscape:window-x="0"
     inkscape:window-y="0"
     inkscape:window-maximized="1" />
  <metadata
     id="metadata5186">
    <rdf:RDF>
      <cc:Work
         rdf:about="">
        <dc:format>image/svg+xml</dc:format>
        <dc:type
           rdf:resource="http://purl.org/dc/dcmitype/StillImage" />
        <dc:title />
      </cc:Work>
    </rdf:RDF>
  </metadata>
  <g
     id="layer1"
     inkscape:label="Layer 1"
     inkscape:groupmode="layer"
     transform="translate(0,16)">
    <circle
       style="fill:#a1a39d;fill-opacity:1;stroke:#000000;stroke-width:2.01122451;stroke-miterlimit:4;stroke-dasharray:none;stroke-opacity:1"
       id="path3820"
       cx="32"
       cy="16"
       r="30.994389" />
    <g
       id="g4083"
       transform="translate(0.40406102,0.80812204)">
      <path
         sodipodi:nodetypes="ssssscccccccccccccccccccccccccccccccccccccccccccccccc"
         inkscape:connector-curvature="0"
         d="m 30.720098,5.2962893 c -5.80207,0 -10.50558,4.522606 -10.50558,10.1015237 0,5.578919 4.70351,10.101526 10.50558,10.101526 5.80208,0 10.50559,-4.522607 10.50559,-10.101526 0,-5.5789177 -4.70351,-10.1015237 -10.50559,-10.1015237 z m -17.22309,-2.6769045 1.71244,-0.662726 3.31232,0.573967 1.38717,-2.09786202 -1.51269,-4.32886298 2.21875,-1.856001 4.29419,-0.03878 2.25065,2.909047 1.28743,-1.16579 0.45456,-4.5456869 6.01041,0 0.78287,5.0507629 1.01015,0.757614 1.43947,-3.762818 4.16688,-0.6565992 2.69244,1.7450512 -0.7984,5.30076298 1.51522,1.66675202 1.9698,-1.26269102 3.3335,-0.101015 2.02031,4.44467002 -3.03046,3.3840105 0.10102,3.2829967 4.87219,1.390754 -0.009,4.78238 -5.25026,1.935134 0.0332,2.447826 3.12176,4.183467 -2.45396,3.916136 -5.61754,-0.92752 -1.21219,1.666751 1.56574,4.545687 -3.53807,2.575889 -2.77897,-0.171828 -2.31469,-3.886114 -1.72233,0.774946 -0.40406,4.747717 -4.5962,-0.404061 -2.92944,-4.596194 -2.6264,2.12132 -3.58604,-0.353553 -3.06744,-2.698547 1.60714,-3.464285 -1.32143,-1.285715 -4.57143,-0.07143 4.5,-7.392857 0.14286,-12.8571427 z"
         style="fill:url(#linearGradient4063);fill-opacity:1;stroke:#000000;stroke-width:0.2;stroke-linecap:butt;stroke-linejoin:miter;stroke-miterlimit:4;stroke-opacity:1;stroke-dasharray:none;filter:url(#filter3937)"
         id="path3910" />
      <path
         sodipodi:nodetypes="czccccc"
         inkscape:connector-curvature="0"
         id="path4003"
         d="m 35.853068,8.0813873 c 0,0 -8.77357,-0.919771 -8.87053,6.9888707 -0.097,7.908641 9.00113,7.828066 9.00113,7.828066 l -11.43775,4.446774 -5.77161,-11.917953 4.61305,-11.9779083 z"
         style="fill:url(#linearGradient4060);fill-opacity:1;stroke:#000000;stroke-width:0.2;stroke-linecap:butt;stroke-linejoin:miter;stroke-miterlimit:4;stroke-opacity:1;stroke-dasharray:none;filter:url(#filter4009)" />
      <path
         sodipodi:nodetypes="zzzzzccccccccccccccccccccccccccccccccccccccccccccccccc"
         inkscape:connector-curvature="0"
         d="m 35.821378,15.145277 c 0,3.517847 -1.97395,7.172082 -5.85889,7.273097 -3.88494,0.101016 -6.41446,-3.553219 -6.36395,-7.42462 0.0505,-3.871401 2.98409,-6.6670067 6.61649,-6.6670067 3.6324,0 5.60635,3.3006817 5.60635,6.8185297 z m -15.10177,-20.7586353 -3.03046,2.424366 1.41421,4.04060998 -1.52643,2.13970402 -4.20797,-0.368347 -1.63971,3.2794056 2.62639,2.828427 -0.6826,3.1488047 -3.7620702,0.891805 -0.20203,4.242641 3.9395902,1.414214 0.90915,3.535534 -3.13149,2.12132 1.71727,4.545686 3.73757,-1.414213 2.22233,2.222335 -1.61624,4.141626 3.33349,2.525381 2.92945,-3.030457 3.03045,0.909137 0.30305,4.495179 4.44468,0.580837 0.90914,-4.57094 3.23249,-0.606091 3.23248,3.434518 3.43452,-2.020305 -1.3132,-4.747717 1.97899,-2.51978 4.89005,1.509628 2.24759,-3.813326 -3.58604,-3.889088 0.42931,-3.207234 5.35381,-1.111168 -0.15152,-4.697209 -5.09515,-0.88314 -0.39792,-4.5528647 3.45903,-3.1477526 -2.32336,-4.01715102 -4.07737,2.34786102 -2.42437,-2.02030502 0.80812,-5.65685498 -4.04061,-1.414213 -2.09786,3.891625 -3.33455,-0.916316 -0.41421,-4.8405018 -4.59979,-0.1071429 -0.66631,5.1741857 -3.33246,0.737745 z"
         style="fill:url(#linearGradient4057);fill-opacity:1;stroke:#000000;stroke-width:0.2;stroke-linecap:butt;stroke-linejoin:miter;stroke-miterlimit:4;stroke-opacity:1;stroke-dasharray:none;filter:url(#filter3888)"
         id="path3872" />
      <path
         id="path3955"
         style="fill:none;stroke:#000000;stroke-width:0.2;stroke-linecap:butt;stroke-linejoin:miter;stroke-miterlimit:4;stroke-opacity:1;stroke-dasharray:none;filter:url(#filter3971)"
         d="m 55.019808,12.788251 -2.84848,0.197209"
         inkscape:connector-curvature="0"
         sodipodi:nodetypes="cc" />
      <path
         sodipodi:nodetypes="cc"
         inkscape:connector-curvature="0"
         d="m 55.091238,17.216822 -2.84848,0.197209"
         style="fill:none;stroke:#000000;stroke-width:0.2;stroke-linecap:butt;stroke-linejoin:miter;stroke-miterlimit:4;stroke-opacity:1;stroke-dasharray:none;filter:url(#filter3971)"
         id="path3975" />
      <path
         id="path3977"
         style="fill:none;stroke:#000000;stroke-width:0.2;stroke-linecap:butt;stroke-linejoin:miter;stroke-miterlimit:4;stroke-opacity:1;stroke-dasharray:none;filter:url(#filter3971)"
         d="m 49.698388,19.484679 -2.81277,-0.427791"
         inkscape:connector-curvature="0"
         sodipodi:nodetypes="cc" />
      <path
         sodipodi:nodetypes="cc"
         inkscape:connector-curvature="0"
         d="m 49.662668,21.78825 -2.95562,-0.552791"
         style="fill:none;stroke:#000000;stroke-width:0.2;stroke-linecap:butt;stroke-linejoin:miter;stroke-miterlimit:4;stroke-opacity:1;stroke-dasharray:none;filter:url(#filter3971)"
         id="path3979" />
      <path
         id="path3981"
         style="fill:none;stroke:#000000;stroke-width:0.2;stroke-linecap:butt;stroke-linejoin:miter;stroke-miterlimit:4;stroke-opacity:1;stroke-dasharray:none;filter:url(#filter3971)"
         d="m 52.880548,26.188721 -2.74493,-0.488976"
         inkscape:connector-curvature="0"
         sodipodi:nodetypes="cc" />
      <path
         sodipodi:nodetypes="cc"
         inkscape:connector-curvature="0"
         d="m 50.447648,29.892546 -2.41917,-0.585659"
         style="fill:none;stroke:#000000;stroke-width:0.2;stroke-linecap:butt;stroke-linejoin:miter;stroke-miterlimit:4;stroke-opacity:1;stroke-dasharray:none;filter:url(#filter3971)"
         id="path3983" />
      <path
         id="path3985"
         style="fill:none;stroke:#000000;stroke-width:0.2;stroke-linecap:butt;stroke-linejoin:miter;stroke-miterlimit:4;stroke-opacity:1;stroke-dasharray:none;filter:url(#filter3971)"
         d="m 43.629118,30.751176 -2.41917,-0.585659"
         inkscape:connector-curvature="0"
         sodipodi:nodetypes="cc" />
      <path
         sodipodi:nodetypes="cc"
         inkscape:connector-curvature="0"
         d="m 45.162728,35.257559 -2.7406,-0.192802"
         style="fill:none;stroke:#000000;stroke-width:0.2;stroke-linecap:butt;stroke-linejoin:miter;stroke-miterlimit:4;stroke-opacity:1;stroke-dasharray:none;filter:url(#filter3971)"
         id="path3987" />
      <path
         id="path3989"
         style="fill:none;stroke:#000000;stroke-width:0.2;stroke-linecap:butt;stroke-linejoin:miter;stroke-miterlimit:4;stroke-opacity:1;stroke-dasharray:none;filter:url(#filter3971)"
         d="m 34.757108,34.817784 -2.13346,-0.157088"
         inkscape:connector-curvature="0"
         sodipodi:nodetypes="cc" />
      <path
         sodipodi:nodetypes="cc"
         inkscape:connector-curvature="0"
         d="m 50.081788,11.351104 -2.83062,0.429352"
         style="fill:none;stroke:#000000;stroke-width:0.2;stroke-linecap:butt;stroke-linejoin:miter;stroke-miterlimit:4;stroke-opacity:1;stroke-dasharray:none;filter:url(#filter3971)"
         id="path3991" />
      <path
         id="path3993"
         style="fill:none;stroke:#000000;stroke-width:0.2;stroke-linecap:butt;stroke-linejoin:miter;stroke-miterlimit:4;stroke-opacity:1;stroke-dasharray:none;filter:url(#filter3971)"
         d="m 50.046078,7.9221873 -3.25919,-0.499219"
         inkscape:connector-curvature="0"
         sodipodi:nodetypes="cc" />
      <path
         sodipodi:nodetypes="cc"
         inkscape:connector-curvature="0"
         d="M 52.967378,4.5468427 50.261758,4.3154803"
         style="fill:none;stroke:#000000;stroke-width:0.2;stroke-linecap:butt;stroke-linejoin:miter;stroke-miterlimit:4;stroke-opacity:1;stroke-dasharray:none;filter:url(#filter3971)"
         id="path3995" />
      <path
         id="path3997"
         style="fill:none;stroke:#000000;stroke-width:0.2;stroke-linecap:butt;stroke-linejoin:miter;stroke-miterlimit:4;stroke-opacity:1;stroke-dasharray:none;filter:url(#filter3971)"
         d="m 44.228508,-0.03762182 -2.84848,0.3936376"
         inkscape:connector-curvature="0"
         sodipodi:nodetypes="cc" />
      <path
         sodipodi:nodetypes="cc"
         inkscape:connector-curvature="0"
         d="m 44.850438,-5.3409227 -2.75919,0.2864947"
         style="fill:none;stroke:#000000;stroke-width:0.2;stroke-linecap:butt;stroke-linejoin:miter;stroke-miterlimit:4;stroke-opacity:1;stroke-dasharray:none;filter:url(#filter3971)"
         id="path3999" />
      <path
         id="path4001"
         style="fill:none;stroke:#000000;stroke-width:0.2;stroke-linecap:butt;stroke-linejoin:miter;stroke-miterlimit:4;stroke-opacity:1;stroke-dasharray:none;filter:url(#filter3971)"
         d="m 35.700648,-3.4499505 -2.6212,-0.030075"
         inkscape:connector-curvature="0"
         sodipodi:nodetypes="cc" />
    </g>
  </g>
</svg>
