<?xml version="1.0" encoding="UTF-8" standalone="no"?>
<!-- Created with Inkscape (http://www.inkscape.org/) -->

<svg
   xmlns:dc="http://purl.org/dc/elements/1.1/"
   xmlns:cc="http://creativecommons.org/ns#"
   xmlns:rdf="http://www.w3.org/1999/02/22-rdf-syntax-ns#"
   xmlns:svg="http://www.w3.org/2000/svg"
   xmlns="http://www.w3.org/2000/svg"
   xmlns:xlink="http://www.w3.org/1999/xlink"
   xmlns:sodipodi="http://sodipodi.sourceforge.net/DTD/sodipodi-0.dtd"
   xmlns:inkscape="http://www.inkscape.org/namespaces/inkscape"
   width="64"
   height="64"
   id="svg5181"
   version="1.1"
   inkscape:version="0.91 r13725"
   sodipodi:docname="unlinkIcon.svg">
  <defs
     id="defs5183">
    <linearGradient
       inkscape:collect="always"
       id="linearGradient4566">
      <stop
         style="stop-color:#808080;stop-opacity:1;"
         offset="0"
         id="stop4568" />
      <stop
         style="stop-color:#c1c1c1;stop-opacity:1"
         offset="1"
         id="stop4570" />
    </linearGradient>
    <linearGradient
       inkscape:collect="always"
       xlink:href="#linearGradient4566"
       id="linearGradient4616"
       x1="107.96648"
       y1="10.041431"
       x2="124.20517"
       y2="24.537119"
       gradientUnits="userSpaceOnUse"
       gradientTransform="translate(-69.888718,-15.875)" />
    <linearGradient
       inkscape:collect="always"
       xlink:href="#linearGradient4566"
       id="linearGradient4624"
       x1="95.009735"
       y1="53.126766"
       x2="80.092896"
       y2="38.4543"
       gradientUnits="userSpaceOnUse"
       gradientTransform="translate(-69.013718,-16.875)" />
  </defs>
  <sodipodi:namedview
     id="base"
     pagecolor="#ffffff"
     bordercolor="#666666"
     borderopacity="1.0"
     inkscape:pageopacity="0.0"
     inkscape:pageshadow="2"
     inkscape:zoom="5.6568542"
     inkscape:cx="-21.561288"
     inkscape:cy="32.617224"
     inkscape:current-layer="layer1"
     showgrid="true"
     inkscape:grid-bbox="true"
     inkscape:document-units="px"
     inkscape:window-width="1368"
     inkscape:window-height="667"
     inkscape:window-x="0"
     inkscape:window-y="0"
     inkscape:window-maximized="1" />
  <metadata
     id="metadata5186">
    <rdf:RDF>
      <cc:Work
         rdf:about="">
        <dc:format>image/svg+xml</dc:format>
        <dc:type
           rdf:resource="http://purl.org/dc/dcmitype/StillImage" />
        <dc:title />
      </cc:Work>
    </rdf:RDF>
  </metadata>
  <g
     id="layer1"
     inkscape:label="Layer 1"
     inkscape:groupmode="layer"
     transform="translate(0,16)">
    <rect
       style="opacity:1;fill:#ff7676;fill-opacity:1;stroke:#000000;stroke-width:0.99169135;stroke-linecap:round;stroke-miterlimit:4;stroke-dasharray:none;stroke-opacity:1"
       id="rect4159"
       width="63.008308"
       height="63.008308"
       x="0.49584568"
       y="-15.504155" />
    <path
       style="opacity:1;fill:url(#linearGradient4616);fill-opacity:1;stroke:#3b3b3b;stroke-width:0.5;stroke-linecap:round;stroke-miterlimit:4;stroke-dasharray:none;stroke-opacity:1"
       d="m 36.613112,17.783538 c -3.04432,-0.249683 -5.47461,-2.291454 -6.22636,-5.230986 -0.524569,-2.051179 -0.19562,-4.236524 0.98239,-6.526566 0.7261,-1.411519 1.66673,-2.616284 3.31459,-4.245366 3.15015,-3.114255 12.2329,-11.712308 12.90974,-12.22082 1.44253,-1.083781 2.83787,-1.788387 4.32584,-2.184429 0.99609,-0.265122 2.76596,-0.324444 3.74869,-0.125646 2.56389,0.518659 4.66562,2.345497 5.47729,4.7609175 1.04163,3.0997465 0.0131,6.6272395 -2.84609,9.7607165 -0.45454,0.498148 -2.73698,2.725534 -5.07208,4.949747 -2.3351,2.224214 -5.08533,4.844498 -6.11162,5.822856 -1.02628,0.978356 -2.18953,2.02513 -2.58498,2.326163 -1.8883,1.437442 -3.96789,2.447021 -5.72844,2.78098 -0.92318,0.17512 -1.35209,0.201069 -2.18897,0.132433 z m 2.74323,-2.643999 c 1.22474,-0.313238 2.79481,-1.191031 4.15106,-2.320778 0.87567,-0.729427 12.96138,-12.32377699 13.39084,-12.84641699 1.39687,-1.69996701 2.06068,-3.32945901 2.06655,-5.07292201 0.008,-2.2718271 -1.21934,-4.0779545 -3.28819,-4.840209 -0.87615,-0.322811 -2.26068,-0.371508 -3.33036,-0.117135 -0.99595,0.236838 -2.35276,0.8907572 -3.28979,1.585523 -0.39313,0.2914896 -2.08092,1.8363297 -3.75063,3.432978 -1.66972,1.596648 -4.46774,4.26705201 -6.21783,5.93423001 -4.07724,3.88407999 -4.72338,4.60522599 -5.52274,6.16391699 -0.76022,1.482373 -1.059,3.148084 -0.80267,4.474984 0.33988,1.759388 1.74274,3.215654 3.50979,3.643414 0.79409,0.192229 2.25502,0.174424 3.08397,-0.03758 z"
       id="path4606"
       inkscape:connector-curvature="0" />
    <path
       style="opacity:1;fill:url(#linearGradient4624);fill-opacity:1;stroke:#3b3b3b;stroke-width:0.5;stroke-linecap:round;stroke-miterlimit:4;stroke-dasharray:none;stroke-opacity:1"
       d="M 8.143183,44.8422 C 6.945005,44.650024 5.537933,44.022449 4.645618,43.282233 3.579826,42.398109 2.732339,41.022735 2.3471,39.552004 2.129863,38.722652 2.087871,37.07087 2.26069,36.152957 c 0.360983,-1.917334 1.374177,-3.92752 2.909098,-5.771678 0.469111,-0.563621 12.667957,-12.292002 13.709881,-13.18114 1.87156,-1.597118 4.384171,-2.692053 6.791789,-2.959696 2.209369,-0.245604 4.694594,0.779111 6.172334,2.544992 0.56618,0.67659 1.2737,2.076804 1.49949,2.967579 0.23201,0.915347 0.2154,2.675644 -0.0348,3.686448 -0.58725,2.372553 -1.6798,4.102708 -4.099368,6.491732 -3.528605,3.484056 -12.229501,11.69638 -13.035762,12.303778 -2.357783,1.77624 -4.33808,2.5604 -6.615966,2.619796 -0.631977,0.01648 -1.268373,0.01082 -1.414213,-0.01257 z m 3.491339,-2.725225 c 0.991404,-0.316214 2.281921,-0.994874 3.195193,-1.680295 0.715217,-0.53678 12.490099,-11.724577 13.722818,-13.038612 1.177427,-1.255096 1.989545,-2.760325 2.298656,-4.260473 0.539853,-2.619949 -0.752242,-5.110321 -3.092067,-5.959631 -2.118613,-0.769016 -4.505218,-0.207815 -6.960728,1.636787 -0.864813,0.649656 -13.208307,12.446953 -13.878958,13.264818 -2.240811,2.732688 -2.859438,5.638915 -1.678632,7.885991 0.585086,1.113423 1.735571,2.003883 3.003578,2.32473 0.829134,0.209797 2.448563,0.127007 3.39014,-0.173315 z"
       id="path4608"
       inkscape:connector-curvature="0" />
  </g>
</svg>
