<?xml version="1.0" encoding="UTF-8" standalone="no"?>
<!-- Created with Inkscape (http://www.inkscape.org/) -->

<svg
   xmlns:dc="http://purl.org/dc/elements/1.1/"
   xmlns:cc="http://creativecommons.org/ns#"
   xmlns:rdf="http://www.w3.org/1999/02/22-rdf-syntax-ns#"
   xmlns:svg="http://www.w3.org/2000/svg"
   xmlns="http://www.w3.org/2000/svg"
   xmlns:xlink="http://www.w3.org/1999/xlink"
   xmlns:sodipodi="http://sodipodi.sourceforge.net/DTD/sodipodi-0.dtd"
   xmlns:inkscape="http://www.inkscape.org/namespaces/inkscape"
   width="64"
   height="64"
   id="svg5181"
   version="1.1"
   inkscape:version="0.48.4 r9939"
   sodipodi:docname="viewBase.svg">
  <defs
     id="defs5183">
    <linearGradient
       id="linearGradient3811">
      <stop
         style="stop-color:#82a2f2;stop-opacity:1;"
         offset="0"
         id="stop3813" />
      <stop
         style="stop-color:#4547f2;stop-opacity:1;"
         offset="1"
         id="stop3815" />
    </linearGradient>
    <linearGradient
       id="linearGradient3803">
      <stop
         style="stop-color:#efeff2;stop-opacity:1;"
         offset="0"
         id="stop3805" />
      <stop
         style="stop-color:#d9d9dc;stop-opacity:1;"
         offset="1"
         id="stop3807" />
    </linearGradient>
    <linearGradient
       id="linearGradient3795">
      <stop
         style="stop-color:#efdce7;stop-opacity:1;"
         offset="0"
         id="stop3797" />
      <stop
         style="stop-color:#efd0cf;stop-opacity:1;"
         offset="1"
         id="stop3799" />
    </linearGradient>
    <linearGradient
       inkscape:collect="always"
       xlink:href="#linearGradient3795"
       id="linearGradient3801"
       x1="1.7367706"
       y1="24.099562"
       x2="46.301685"
       y2="24.099562"
       gradientUnits="userSpaceOnUse"
       gradientTransform="matrix(1.3745655,0,0,1.3933383,-1.0051649,-17.483344)" />
    <linearGradient
       inkscape:collect="always"
       xlink:href="#linearGradient3803"
       id="linearGradient3809"
       x1="3.6779387"
       y1="24.450077"
       x2="44.320427"
       y2="24.450077"
       gradientUnits="userSpaceOnUse"
       gradientTransform="matrix(1.3745655,0,0,1.3933383,-1.0051649,-17.483344)" />
    <linearGradient
       inkscape:collect="always"
       xlink:href="#linearGradient3811"
       id="linearGradient3817"
       x1="13.99983"
       y1="24.399767"
       x2="33.964951"
       y2="24.399767"
       gradientUnits="userSpaceOnUse"
       gradientTransform="matrix(1.3745655,0,0,1.3933383,-1.0051649,-17.483344)" />
  </defs>
  <sodipodi:namedview
     id="base"
     pagecolor="#ffffff"
     bordercolor="#666666"
     borderopacity="1.0"
     inkscape:pageopacity="0.0"
     inkscape:pageshadow="2"
     inkscape:zoom="7"
     inkscape:cx="40.454176"
     inkscape:cy="32.940237"
     inkscape:current-layer="layer1"
     showgrid="true"
     inkscape:grid-bbox="true"
     inkscape:document-units="px"
     inkscape:window-width="1366"
     inkscape:window-height="691"
     inkscape:window-x="-3"
     inkscape:window-y="-3"
     inkscape:window-maximized="1" />
  <metadata
     id="metadata5186">
    <rdf:RDF>
      <cc:Work
         rdf:about="">
        <dc:format>image/svg+xml</dc:format>
        <dc:type
           rdf:resource="http://purl.org/dc/dcmitype/StillImage" />
        <dc:title />
      </cc:Work>
    </rdf:RDF>
  </metadata>
  <g
     id="layer1"
     inkscape:label="Layer 1"
     inkscape:groupmode="layer"
     transform="translate(0,16)">
    <path
       sodipodi:type="arc"
       style="fill:none;stroke:#000000;stroke-width:0.5;stroke-miterlimit:4;stroke-opacity:1;stroke-dasharray:none"
       id="path3007"
       sodipodi:cx="27.375134"
       sodipodi:cy="26.029182"
       sodipodi:rx="22.627415"
       sodipodi:ry="22.273863"
       d="m 50.002548,26.029182 a 22.627415,22.273863 0 1 1 -45.2548292,0 22.627415,22.273863 0 1 1 45.2548292,0 z"
       transform="matrix(1.3745655,0,0,1.3933383,-5.5872836,-20.157564)" />
    <path
       sodipodi:type="arc"
       style="fill:none;stroke:#000000;stroke-width:0.5;stroke-miterlimit:4;stroke-opacity:1;stroke-dasharray:none"
       id="path3777"
       sodipodi:cx="25.203306"
       sodipodi:cy="24.665476"
       sodipodi:rx="20.657619"
       sodipodi:ry="12.424876"
       d="m 45.860926,24.665476 a 20.657619,12.424876 0 1 1 -41.3152393,0 20.657619,12.424876 0 1 1 41.3152393,0 z"
       transform="matrix(1.3745655,0,0,1.3933383,-2.6713899,-17.764841)" />
    <path
       style="fill:url(#linearGradient3801);fill-opacity:1;stroke:none"
       d="M 29.027337,46.58793 C 25.143735,46.017479 23.347066,45.5826 20.951951,44.633303 11.505449,40.889208 4.6666239,33.102642 2.2334262,23.320726 1.1222444,18.853565 1.0981478,13.830753 2.1654373,9.1487918 2.8726847,6.0462544 4.4739348,2.3048576 6.2850019,-0.47675967 10.514743,-6.9732218 17.155298,-11.734219 24.514643,-13.546642 c 2.815659,-0.693426 4.499939,-0.89819 7.428587,-0.903116 5.136486,-0.0086 9.203231,0.93994 13.746356,3.206385 3.279388,1.636002 5.760166,3.4297744 8.263594,5.9751512 4.448256,4.52278474 7.3582,10.2937252 8.421799,16.7019298 0.353916,2.13234 0.352433,7.38526 -0.0025,9.412918 -0.774508,4.422644 -2.333663,8.450856 -4.604492,11.896103 -4.789847,7.26702 -12.167182,12.096573 -20.756507,13.588182 -1.268077,0.220214 -6.982256,0.404164 -7.983994,0.257019 z m 8.95596,-12.644279 C 42.711368,33.26722 46.414943,32.17564 50.038437,30.390555 55.861425,27.521909 59.696443,23.263359 60.555536,18.711961 61.702442,12.635766 57.852637,6.7292641 50.261324,2.9182247 41.105361,-1.678312 28.447541,-2.3932323 18.058022,1.0993622 13.97597,2.471604 10.336799,4.5617968 7.811055,6.9847984 6.174619,8.554672 5.2679535,9.7520757 4.4554163,11.416481 2.283653,15.86515 2.8874118,20.397838 6.1989717,24.506086 10.37654,29.688684 17.74489,32.999608 27.638816,34.139952 c 1.730631,0.199469 8.472394,0.07155 10.344481,-0.196301 z"
       id="path3783"
       inkscape:connector-curvature="0" />
    <path
       sodipodi:type="arc"
       style="fill:none;stroke:#000000;stroke-width:0.5;stroke-miterlimit:4;stroke-opacity:1;stroke-dasharray:none"
       id="path3785"
       sodipodi:cx="27.223612"
       sodipodi:cy="24.008877"
       sodipodi:rx="10.354063"
       sodipodi:ry="9.8489876"
       d="m 37.577675,24.008877 a 10.354063,9.8489876 0 1 1 -20.708126,0 10.354063,9.8489876 0 1 1 20.708126,0 z"
       transform="matrix(1.3745655,0,0,1.3933383,-5.4097993,-16.920351)" />
    <path
       sodipodi:type="arc"
       style="fill:none;stroke:#000000;stroke-width:0.5;stroke-miterlimit:4;stroke-opacity:1;stroke-dasharray:none"
       id="path3787"
       sodipodi:cx="24.344677"
       sodipodi:cy="24.059385"
       sodipodi:rx="4.3436561"
       sodipodi:ry="4.3436561"
       d="m 28.688333,24.059385 a 4.3436561,4.3436561 0 1 1 -8.687312,0 4.3436561,4.3436561 0 1 1 8.687312,0 z"
       transform="matrix(1.3745655,0,0,1.3933383,-1.4525146,-16.638853)" />
    <path
       style="fill:url(#linearGradient3809);fill-opacity:1;stroke:none"
       d="M 27.152834,33.23283 C 20.922106,32.534714 15.264761,30.613128 11.070768,27.77036 9.2748971,26.553085 6.8958934,24.220198 5.9885091,22.786621 4.5810788,20.563023 4.0533258,18.884945 4.050422,16.624172 4.0479434,14.714426 4.2865618,13.733814 5.2147697,11.838728 7.3019559,7.577391 12.011823,4.0278411 18.474579,1.8455897 c 7.771498,-2.62416871 17.43987,-2.80224858 25.467034,-0.4690729 6.491077,1.8866956 11.446797,5.1018521 14.047352,9.1135942 4.343995,6.701255 1.192032,14.234695 -7.919253,18.927631 -4.025371,2.073342 -8.60387,3.345269 -13.950323,3.875456 -1.997612,0.198096 -6.957803,0.1647 -8.966555,-0.06039 z m 7.53165,-2.808299 C 40.241871,29.42014 44.780298,25.330963 46.19537,20.053098 46.558276,18.699547 46.69084,15.808701 46.457302,14.341216 45.982193,11.355824 44.625179,8.7804315 42.379621,6.6024433 41.064936,5.3273204 40.114146,4.660304 38.509558,3.8874448 33.779445,1.6091569 27.965753,2.0314792 23.571826,4.9725613 c -1.929426,1.2914668 -3.9946,3.729785 -4.953861,5.8489437 -0.800975,1.769486 -1.059261,2.922046 -1.144236,5.105964 -0.127948,3.28865 0.515991,5.638868 2.285503,8.3413 2.010486,3.070466 5.688106,5.446204 9.52226,6.151375 1.323507,0.243418 4.068085,0.245645 5.402992,0.0045 l 0,-6e-6 z"
       id="path3789"
       inkscape:connector-curvature="0" />
    <path
       style="fill:url(#linearGradient3817);fill-opacity:1;stroke:none"
       d="M 29.567838,29.630996 C 25.228824,28.895267 21.131782,25.761968 19.369834,21.831864 18.461245,19.805221 18.094463,17.60597 18.28933,15.353099 18.421076,13.829852 18.721241,12.70841 19.393573,11.227384 22.597959,4.168725 31.330822,1.2088481 38.405849,4.7834493 c 3.354006,1.6945847 5.67054,4.4256469 6.879792,8.1108917 0.368347,1.122548 0.392785,1.343985 0.396068,3.589084 0.0032,2.122069 -0.03333,2.512129 -0.322062,3.448336 -0.688797,2.233361 -1.569813,3.788252 -3.044022,5.372335 -2.116676,2.274432 -4.642909,3.679492 -7.657916,4.25924 -1.230965,0.236699 -3.884892,0.271977 -5.089871,0.06765 l 0,0 z m 4.105788,-6.531015 c 3.079168,-0.808789 5.082457,-3.920144 4.608442,-7.157472 -0.468714,-3.20112 -3.072812,-5.475426 -6.26941,-5.475426 -3.160328,0 -5.752552,2.234821 -6.271021,5.406397 -0.517608,3.16633 1.497548,6.380166 4.524614,7.215995 0.948247,0.261832 2.43312,0.266408 3.407375,0.01041 l 0,4e-6 z"
       id="path3791"
       inkscape:connector-curvature="0" />
    <path
       style="fill:#000000;fill-opacity:1;stroke:none"
       d="m 30.247419,22.18379 c -2.704715,-0.974785 -4.285379,-3.869649 -3.597986,-6.589446 1.085556,-4.295207 6.319648,-5.7477475 9.288306,-2.577646 1.309358,1.398206 1.822865,3.016154 1.50765,4.750259 -0.388808,2.138952 -1.726281,3.729466 -3.721169,4.425179 -1.002834,0.349737 -2.493158,0.34616 -3.476801,-0.0083 l 0,0 z"
       id="path3793"
       inkscape:connector-curvature="0" />
  </g>
</svg>
