<?xml version="1.0" encoding="UTF-8" standalone="no"?>
<!-- Created with Inkscape (http://www.inkscape.org/) -->

<svg
   xmlns:dc="http://purl.org/dc/elements/1.1/"
   xmlns:cc="http://creativecommons.org/ns#"
   xmlns:rdf="http://www.w3.org/1999/02/22-rdf-syntax-ns#"
   xmlns:svg="http://www.w3.org/2000/svg"
   xmlns="http://www.w3.org/2000/svg"
   xmlns:sodipodi="http://sodipodi.sourceforge.net/DTD/sodipodi-0.dtd"
   xmlns:inkscape="http://www.inkscape.org/namespaces/inkscape"
   width="64"
   height="64"
   id="svg5181"
   version="1.1"
   inkscape:version="0.91 r13725"
   sodipodi:docname="viewBase.svg">
  <defs
     id="defs5183" />
  <sodipodi:namedview
     id="base"
     pagecolor="#ffffff"
     bordercolor="#666666"
     borderopacity="1.0"
     inkscape:pageopacity="0.0"
     inkscape:pageshadow="2"
     inkscape:zoom="9.8994949"
     inkscape:cx="12.031823"
     inkscape:cy="31.112179"
     inkscape:current-layer="layer1"
     showgrid="true"
     inkscape:grid-bbox="true"
     inkscape:document-units="px"
     inkscape:window-width="1368"
     inkscape:window-height="667"
     inkscape:window-x="0"
     inkscape:window-y="0"
     inkscape:window-maximized="1" />
  <metadata
     id="metadata5186">
    <rdf:RDF>
      <cc:Work
         rdf:about="">
        <dc:format>image/svg+xml</dc:format>
        <dc:type
           rdf:resource="http://purl.org/dc/dcmitype/StillImage" />
        <dc:title />
      </cc:Work>
    </rdf:RDF>
  </metadata>
  <g
     id="layer1"
     inkscape:label="Layer 1"
     inkscape:groupmode="layer"
     transform="translate(0,16)">
    <path
       sodipodi:type="arc"
       style="fill:#a1a39d;fill-opacity:1;stroke:#000000;stroke-width:2;stroke-miterlimit:4;stroke-opacity:1;stroke-dasharray:none"
       id="path3938"
       sodipodi:cx="32.5"
       sodipodi:cy="33.07143"
       sodipodi:rx="31.071428"
       sodipodi:ry="31.071428"
       d="M 63.571428,33.07143 A 31.071428,31.071428 0 0 1 32.5,64.142859 31.071428,31.071428 0 0 1 1.4285717,33.07143 31.071428,31.071428 0 0 1 32.5,2.0000019 31.071428,31.071428 0 0 1 63.571428,33.07143 Z"
       transform="matrix(0.99777284,0,0,0.99777284,-0.42761722,-16.997773)" />
    <path
       sodipodi:type="arc"
       style="fill:#ffffff;fill-opacity:1;stroke:none"
       id="path3940"
       sodipodi:cx="98.285713"
       sodipodi:cy="28.142857"
       sodipodi:rx="29.87034"
       sodipodi:ry="18.283867"
       d="M 128.15605,28.142857 A 29.87034,18.283867 0 0 1 98.285713,46.426723 29.87034,18.283867 0 0 1 68.415373,28.142857 29.87034,18.283867 0 0 1 98.285713,9.8589897 29.87034,18.283867 0 0 1 128.15605,28.142857 Z"
       transform="matrix(0.97222225,0,0,0.88835917,-63.555557,-9.0009631)" />
    <path
       sodipodi:type="arc"
       style="fill:#3d50f3;fill-opacity:1;stroke:none"
       id="path4450"
       sodipodi:cx="97.571426"
       sodipodi:cy="6.5"
       sodipodi:rx="13.943272"
       sodipodi:ry="13.605993"
       d="M 111.5147,6.5 A 13.943272,13.605993 0 0 1 97.571426,20.105993 13.943272,13.605993 0 0 1 83.628155,6.5 13.943272,13.605993 0 0 1 97.571426,-7.1059933 13.943272,13.605993 0 0 1 111.5147,6.5 Z"
       transform="matrix(1.006981,0,0,1.0022458,-66.252573,9.4854022)" />
    <path
       sodipodi:type="arc"
       style="fill:#000000;fill-opacity:1;stroke:none"
       id="path4455"
       sodipodi:cx="94.071426"
       sodipodi:cy="6.6428571"
       sodipodi:rx="4.8106489"
       sodipodi:ry="4.6389303"
       d="M 98.882075,6.6428571 A 4.8106489,4.6389303 0 0 1 94.071426,11.281787 4.8106489,4.6389303 0 0 1 89.260777,6.6428571 4.8106489,4.6389303 0 0 1 94.071426,2.0039268 4.8106489,4.6389303 0 0 1 98.882075,6.6428571 Z"
       transform="matrix(1.2493434,0,0,1.2955901,-85.527516,7.3935801)" />
    <path
       style="fill:none;stroke:#ff0000;stroke-width:0.50000000000000000;stroke-linecap:butt;stroke-linejoin:miter;stroke-opacity:1;stroke-miterlimit:4;stroke-dasharray:none"
       d="m 45.55788,26.11928 c 0.450258,-0.112565 0.305892,-0.0028 0.505076,-0.202031 0.03367,-0.03367 0.05842,-0.07972 0.101015,-0.101015 0.03012,-0.01506 0.0709,0.01506 0.101016,0 0.08518,-0.04259 0.116847,-0.159439 0.20203,-0.202031 0.297269,-0.148634 -0.132995,0.23401 0.202031,-0.101015 0.07937,-0.07937 0.472904,-0.440732 0.505076,-0.505076 0.01506,-0.03012 -0.01506,-0.0709 0,-0.101015 0.0213,-0.04259 0.07972,-0.05842 0.101015,-0.101016 0.01506,-0.03012 -0.01506,-0.0709 0,-0.101015 0.04259,-0.08518 0.159439,-0.116847 0.202031,-0.202031 0.03012,-0.06023 -0.03012,-0.141796 0,-0.20203 0.0213,-0.04259 0.07972,-0.05842 0.101015,-0.101015 0.01506,-0.03012 -0.03367,-0.101016 0,-0.101016 0.03367,0 -0.03367,0.101016 0,0.101016 0.04762,0 0.05842,-0.07972 0.101015,-0.101016 0.03012,-0.01506 0.06734,0 0.101015,0 0.202031,0 0.404061,0 0.606092,0 0.03367,0 0.07721,-0.02381 0.101015,0 0.02381,0.02381 -0.02381,0.07721 0,0.101016 0.02381,0.02381 0.0709,-0.01506 0.101015,0 0.04259,0.0213 0.05842,0.07972 0.101016,0.101015 0.03012,0.01506 0.0709,-0.01506 0.101015,0 0.04259,0.0213 0.05842,0.07972 0.101015,0.101015 0.06023,0.03012 0.141797,-0.03012 0.202031,0 0.04259,0.0213 0.05842,0.07972 0.101015,0.101015 0.03653,0.01827 0.434816,0 0.505076,0 0.0716,0 0.579974,0.01306 0.606092,0 0.04259,-0.0213 0.05842,-0.07972 0.101015,-0.101015 0.06023,-0.03012 0.141797,0.03012 0.20203,0 0.04259,-0.0213 0.05842,-0.07972 0.101016,-0.101015 0.06023,-0.03012 0.141796,0.03012 0.20203,0 0.04259,-0.0213 0.05842,-0.07972 0.101016,-0.101015 0.03012,-0.01506 0.0709,0.01506 0.101015,0 0.04259,-0.0213 0.05842,-0.07972 0.101015,-0.101016 0.06023,-0.03012 0.141797,0.03012 0.202031,0 0.04259,-0.02129 0.05842,-0.07972 0.101015,-0.101015 0.03012,-0.01506 0.0709,0.01506 0.101015,0 0.04259,-0.0213 0.05842,-0.07972 0.101015,-0.101015 0.03012,-0.01506 0.0709,0.01506 0.101016,0 0.04259,-0.0213 0.05842,-0.07972 0.101015,-0.101015 0.03012,-0.01506 0.0709,0.01506 0.101015,0 0.04259,-0.0213 0.05842,-0.07972 0.101015,-0.101016 0.03012,-0.01506 0.07721,0.02381 0.101016,0 0.02381,-0.02381 -0.02381,-0.0772 0,-0.101015 0.02381,-0.02381 0.0772,0.02381 0.101015,0 0.02381,-0.02381 -0.01506,-0.0709 0,-0.101015 0.04259,-0.08518 0.159439,-0.116847 0.20203,-0.202031 0.01506,-0.03012 -0.01506,-0.0709 0,-0.101015 0.0213,-0.04259 0.07972,-0.05842 0.101016,-0.101015 0.01506,-0.03012 -0.01506,-0.0709 0,-0.101015 0.04259,-0.08518 0.159438,-0.116847 0.20203,-0.202031 0.06734,-0.134687 -0.101015,-0.101015 0.101015,-0.101015"
       id="path4461"
       inkscape:connector-curvature="0"
       transform="translate(0,-16)" />
    <path
       style="fill:none;stroke:#ff0000;stroke-width:0.5;stroke-linecap:butt;stroke-linejoin:miter;stroke-opacity:1;stroke-miterlimit:4;stroke-dasharray:none"
       d="m 47.073109,32.180195 c 0.09726,-0.301169 0.354491,0.07529 0.505076,0 0.04259,-0.0213 0.05842,-0.07972 0.101015,-0.101015 0.06023,-0.03012 0.141797,0.03012 0.202031,0 0.335025,-0.335026 -0.09524,0.04762 0.20203,-0.101016 0.107263,-0.05363 0.09477,-0.148399 0.202031,-0.20203 0.03012,-0.01506 0.0709,0.01506 0.101015,0 0.04259,-0.0213 0.05842,-0.07972 0.101015,-0.101015 0.03012,-0.01506 0.0709,0.01506 0.101015,0 0.04259,-0.0213 0.05842,-0.07972 0.101016,-0.101016 0.03012,-0.01506 0.0709,0.01506 0.101015,0 0.04259,-0.0213 0.05842,-0.07972 0.101015,-0.101015 0.03653,-0.01826 0.434816,0 0.505076,0 0.04549,0 0.272304,-0.01537 0.303046,0 0.04259,0.0213 0.06734,0.06734 0.101015,0.101015 0.134687,0.134687 0.269374,0.269374 0.404061,0.404061 0.03367,0.03367 0.06734,0.06734 0.101016,0.101016 0.03367,0.03367 0.05842,0.07972 0.101015,0.101015 0.03012,0.01506 0.07721,-0.02381 0.101015,0 0.02381,0.02381 -0.02381,0.07721 0,0.101015 0.02381,0.02381 0.0709,-0.01506 0.101015,0 0.335026,0.335026 -0.09524,-0.04762 0.202031,0.101015 0.04259,0.0213 0.05842,0.07972 0.101015,0.101016 0.03012,0.01506 0.0709,-0.01506 0.101016,0 0.04259,0.0213 0.05842,0.07972 0.101015,0.101015 0.08081,0.04041 0.222233,-0.04041 0.303046,0 0.04259,0.0213 0.05842,0.07972 0.101015,0.101015 0.03074,0.01537 0.257553,0 0.303046,0 0.20203,0 0.404061,0 0.606091,0 0.134687,0 0.269374,0 0.404061,0 0.03367,0 0.06734,0 0.101015,0 0.03367,0 0.0709,0.01506 0.101016,0 0.04259,-0.0213 0.05842,-0.07972 0.101015,-0.101015 0.06023,-0.03012 0.141797,0.03012 0.20203,0 0.04259,-0.0213 0.05842,-0.07972 0.101016,-0.101015 0.06023,-0.03012 0.141796,0.03012 0.20203,0 0.04259,-0.0213 0.05842,-0.07972 0.101015,-0.101016 0.03012,-0.01506 0.0709,0.01506 0.101016,0 0.04259,-0.0213 0.05842,-0.07972 0.101015,-0.101015 0.03012,-0.01506 0.0709,0.01506 0.101015,0 0.04259,-0.0213 0.05842,-0.07972 0.101015,-0.101015 0.03012,-0.01506 0.0709,0.01506 0.101016,0 0.04259,-0.0213 0.05842,-0.07972 0.101015,-0.101015 0.06023,-0.03012 0.141797,0.03012 0.20203,0 0.04259,-0.0213 0.05842,-0.07972 0.101016,-0.101016 0.03012,-0.01506 0.06734,0 0.101015,0 0.03367,0 0.06734,0 0.101015,0 0.202031,0 0.404061,0 0.606092,0 0.09514,0 0.447612,-0.01915 0.505076,0 0.04518,0.01506 0.05584,0.08596 0.101015,0.101016 0.0462,0.0154 0.359112,-0.02248 0.404061,0 0.04259,0.0213 0.06734,0.06734 0.101016,0.101015 0.03367,0.03367 0.07972,0.05842 0.101015,0.101015 0.01506,0.03012 -0.01506,0.0709 0,0.101015 0.0213,0.04259 0.07972,0.05842 0.101015,0.101016 0.06967,0.139336 -0.122335,0.09036 0.101015,0.20203 0.03074,0.01537 0.257553,0 0.303046,0"
       id="path4463"
       inkscape:connector-curvature="0"
       transform="translate(0,-16)" />
    <path
       style="fill:none;stroke:#ff0000;stroke-width:0.50000000000000000;stroke-linecap:butt;stroke-linejoin:miter;stroke-opacity:1;stroke-miterlimit:4;stroke-dasharray:none"
       d="m 45.254834,38.443141 c -0.09083,0.517177 0.370873,0.134928 0.505076,0.20203 0.04259,0.0213 0.05842,0.07972 0.101016,0.101015 0.06023,0.03012 0.141796,-0.03012 0.20203,0 0.04259,0.0213 0.05842,0.07972 0.101015,0.101016 0.06023,0.03012 0.141797,-0.03012 0.202031,0 0.04259,0.0213 0.05842,0.07972 0.101015,0.101015 0.0053,0.0026 0.297761,0.0026 0.303046,0 0.04259,-0.0213 0.05842,-0.07972 0.101015,-0.101015 0.03012,-0.01506 0.06734,0 0.101015,0 0.168359,0 0.336718,0 0.505077,0 0.03367,0 0.06734,0 0.101015,0 0.03367,0 0.0709,-0.01506 0.101015,0 0.04259,0.0213 0.05842,0.07972 0.101015,0.101015 0.0596,0.0298 0.233565,-0.02316 0.303046,0 0.07143,0.02381 0.130602,0.07721 0.202031,0.101015 0.03194,0.01065 0.0709,-0.01506 0.101015,0 0.02682,0.01341 0.289635,0.276225 0.303046,0.303046 0.03012,0.06023 -0.03012,0.141797 0,0.20203 0.0213,0.04259 0.07972,0.05842 0.101015,0.101016 0.0069,0.0138 0.0069,0.592295 0,0.606091 -0.0213,0.04259 -0.07972,0.05842 -0.101015,0.101015 -0.03012,0.06023 0.03012,0.141797 0,0.202031 -0.0213,0.04259 -0.07972,0.05842 -0.101016,0.101015 -0.01506,0.03012 -0.01506,0.0709 0,0.101015 0.0097,0.01934 0.384725,0.394393 0.404061,0.404061 0.03012,0.01506 0.0709,-0.01506 0.101016,0 0.04259,0.0213 0.05842,0.07972 0.101015,0.101016 0.06023,0.03012 0.141797,-0.03012 0.20203,0 0.04259,0.0213 0.05842,0.07972 0.101016,0.101015 0.03012,0.01506 0.0709,-0.01506 0.101015,0 0.04259,0.0213 0.05842,0.07972 0.101015,0.101015 0.06023,0.03012 0.141797,-0.03012 0.202031,0 0.04259,0.0213 0.05842,0.07972 0.101015,0.101016 0.03012,0.01506 0.0709,-0.01506 0.101015,0 0.04259,0.0213 0.05842,0.07972 0.101015,0.101015 0.03012,0.01506 0.0709,-0.01506 0.101016,0 0.0994,0.0497 0.304659,0.35436 0.404061,0.404061 0.03012,0.01506 0.0709,-0.01506 0.101015,0 0.04259,0.0213 0.06734,0.06734 0.101015,0.101015 0.03367,0.03367 0.06734,0.06734 0.101016,0.101015"
       id="path4465"
       inkscape:connector-curvature="0"
       transform="translate(0,-16)" />
    <path
       style="fill:none;stroke:#ff0000;stroke-width:0.5;stroke-linecap:butt;stroke-linejoin:miter;stroke-opacity:1;stroke-miterlimit:4;stroke-dasharray:none"
       d="m 17.980715,25.210142 c 0.125614,-0.148255 -0.430293,-0.456525 -0.505076,-0.606091 -0.01506,-0.03012 0.01506,-0.0709 0,-0.101016 -0.02339,-0.04678 -0.344649,-0.344649 -0.404061,-0.404061 -0.05318,-0.05318 -0.249095,-0.27607 -0.303046,-0.303045 -0.03012,-0.01506 -0.0709,0.01506 -0.101015,0 -0.08518,-0.04259 -0.116847,-0.159439 -0.202031,-0.202031 -0.01127,-0.0056 -0.493801,-0.0056 -0.505076,0 -0.04259,0.0213 -0.05842,0.07972 -0.101015,0.101015 -0.03012,0.01506 -0.0709,-0.01506 -0.101015,0 -0.04259,0.0213 -0.06734,0.06734 -0.101016,0.101016 -0.03367,0.03367 -0.06734,0.06734 -0.101015,0.101015 -0.03367,0.03367 -0.06734,0.06734 -0.101015,0.101015 -0.03367,0.03367 -0.05842,0.07972 -0.101015,0.101015 -0.06023,0.03012 -0.141797,-0.03012 -0.202031,0 -0.04259,0.0213 -0.05842,0.07972 -0.101015,0.101016 -0.02656,0.01328 -0.351238,0 -0.404061,0 -0.05282,0 -0.3775,0.01328 -0.404061,0 -0.04259,-0.0213 -0.05842,-0.07972 -0.101015,-0.101016 -0.03012,-0.01506 -0.07721,0.02381 -0.101016,0 -0.02381,-0.02381 0.02381,-0.0772 0,-0.101015 -0.02381,-0.02381 -0.0772,0.02381 -0.101015,0 -0.02381,-0.02381 0.02381,-0.07721 0,-0.101015 -0.02381,-0.02381 -0.0709,0.01506 -0.101015,0 -0.04259,-0.0213 -0.06734,-0.06734 -0.101015,-0.101015 -0.03367,-0.03367 -0.06734,-0.06734 -0.101016,-0.101016 -0.134687,-0.134687 -0.269374,-0.269374 -0.404061,-0.404061 -0.20203,-0.20203 -0.404061,-0.404061 -0.606091,-0.606091 -0.05318,-0.05318 -0.249095,-0.276071 -0.303046,-0.303046 -0.03012,-0.01506 -0.0709,0.01506 -0.101015,0 -0.04259,-0.0213 -0.05842,-0.07972 -0.101015,-0.101015 -0.0053,-0.0026 -0.297762,-0.0026 -0.303046,0 -0.04259,0.0213 -0.05842,0.07972 -0.101015,0.101015 -0.06023,0.03012 -0.141797,-0.03012 -0.202031,0 -0.08518,0.04259 -0.116847,0.159439 -0.20203,0.202031 -0.03012,0.01506 -0.06734,0 -0.101016,0 -0.0716,0 -0.579974,-0.01306 -0.606091,0 -0.24965,0.124824 0.03487,0.101015 -0.202031,0.101015"
       id="path4467"
       inkscape:connector-curvature="0"
       transform="translate(0,-16)" />
    <path
       style="fill:none;stroke:#ff0000;stroke-width:0.5;stroke-linecap:butt;stroke-linejoin:miter;stroke-opacity:1;stroke-miterlimit:4;stroke-dasharray:none"
       d="m 16.566502,31.877149 c -0.134687,-0.134687 -0.255324,-0.285071 -0.404061,-0.404061 -0.02629,-0.02104 -0.0709,0.01506 -0.101016,0 -0.335025,-0.335025 0.09524,0.04762 -0.20203,-0.101015 -0.04259,-0.0213 -0.06139,-0.0746 -0.101015,-0.101015 -0.06265,-0.04177 -0.139384,-0.05925 -0.202031,-0.101016 -0.07924,-0.05283 -0.122787,-0.149202 -0.20203,-0.20203 -0.06265,-0.04177 -0.139384,-0.05925 -0.202031,-0.101015 -0.06258,-0.04172 -0.139449,-0.16031 -0.20203,-0.202031 -0.06265,-0.04176 -0.139384,-0.05925 -0.202031,-0.101015 -0.03962,-0.02642 -0.05842,-0.07972 -0.101015,-0.101015 -0.03012,-0.01506 -0.07721,0.02381 -0.101015,0 -0.02381,-0.02381 0.01506,-0.0709 0,-0.101016 -0.210201,-0.420401 0.007,0.107989 -0.202031,-0.101015 -0.02381,-0.02381 0.02381,-0.07721 0,-0.101015 -0.02381,-0.02381 -0.0709,0.01506 -0.101015,0 -0.08518,-0.04259 -0.116847,-0.159439 -0.202031,-0.202031 -0.03012,-0.01506 -0.06907,0.01065 -0.101015,0 -0.07143,-0.02381 -0.130602,-0.0772 -0.20203,-0.101015 -0.03194,-0.01065 -0.06907,0.01065 -0.101016,0 -0.07143,-0.02381 -0.128986,-0.08275 -0.20203,-0.101015 -0.130666,-0.03267 -0.276286,0.04259 -0.404061,0 -0.04518,-0.01506 -0.05584,-0.08596 -0.101015,-0.101016 -0.0066,-0.0022 -0.498443,-0.0022 -0.505077,0 -0.04517,0.01506 -0.05584,0.08596 -0.101015,0.101016 -0.09342,0.03114 -0.539539,-0.03328 -0.606091,0 -0.04259,0.0213 -0.05584,0.08596 -0.101016,0.101015 -0.06389,0.0213 -0.138143,-0.0213 -0.20203,0 -0.04518,0.01506 -0.05842,0.07972 -0.101015,0.101015 -0.03012,0.01506 -0.06734,0 -0.101016,0 -0.03367,0.03367 -0.05842,0.07972 -0.101015,0.101015 -0.03012,0.01506 -0.0709,-0.01506 -0.101015,0 -0.04259,0.0213 -0.05842,0.07972 -0.101016,0.101016 -0.03012,0.01506 -0.0709,-0.01506 -0.101015,0 -0.04259,0.0213 -0.05842,0.07972 -0.101015,0.101015 -0.06023,0.03012 -0.141797,-0.03012 -0.202031,0 -0.04259,0.0213 -0.05842,0.07972 -0.101015,0.101015 -0.02612,0.01306 -0.5344915,0 -0.6060913,0 -0.07026,0 -0.4685458,0.01827 -0.5050763,0 -0.1212183,-0.06061 -0.1818274,-0.242436 -0.3030458,-0.303046 -0.030117,-0.01506 -0.077206,0.02381 -0.1010152,0 -0.02381,-0.02381 0.015059,-0.0709 0,-0.101015 -0.026975,-0.05395 -0.2498648,-0.249865 -0.3030458,-0.303046 -0.2020305,-0.20203 -0.404061,-0.404061 -0.6060915,-0.606091 -0.059412,-0.05941 -0.357283,-0.380672 -0.404061,-0.404061 -0.1066667,-0.05333 -0.095364,0.05333 -0.2020305,0 -0.042592,-0.0213 -0.058423,-0.07972 -0.1010153,-0.101015 -0.00528,-0.0026 -0.2977611,-0.0026 -0.3030457,0 -0.042592,0.0213 -0.058423,0.07972 -0.1010153,0.101015 -0.080812,0.04041 -0.2222336,-0.04041 -0.3030458,0 -0.042592,0.0213 -0.058423,0.07972 -0.1010152,0.101015 -0.060234,0.03012 -0.1417967,-0.03012 -0.2020305,0 -0.3350254,0.335026 0.095238,-0.04762 -0.2020305,0.101015 -0.2233503,0.111676 -0.031347,0.0627 -0.1010153,0.202031 -0.021296,0.04259 -0.079719,0.05842 -0.1010152,0.101015 -0.015059,0.03012 0.015058,0.0709 0,0.101015 -0.021296,0.04259 -0.067344,0.06734 -0.1010153,0.101016 -0.033672,0.03367 -0.067343,0.06734 -0.1010152,0.101015"
       id="path4469"
       inkscape:connector-curvature="0"
       transform="translate(0,-16)" />
    <path
       style="fill:none;stroke:#ff0000;stroke-width:0.5;stroke-linecap:butt;stroke-linejoin:miter;stroke-opacity:1;stroke-miterlimit:4;stroke-dasharray:none"
       d="m 17.576654,38.342125 c -0.134687,-0.06734 -0.264246,-0.146104 -0.404061,-0.20203 -0.06253,-0.02501 -0.134687,0 -0.20203,0 -0.202031,0 -0.404061,0 -0.606092,0 -0.269374,0 -0.538748,0 -0.808122,0 -0.101015,0 -0.207214,-0.03194 -0.303046,0 -0.04518,0.01506 -0.05584,0.08596 -0.101015,0.101015 -0.06389,0.0213 -0.134687,0 -0.20203,0 -0.03367,0 -0.0709,-0.01506 -0.101016,0 -0.335025,0.335026 0.09524,-0.04762 -0.20203,0.101015 -0.04259,0.0213 -0.05842,0.07972 -0.101015,0.101016 -0.03012,0.01506 -0.0709,-0.01506 -0.101016,0 -0.0418,0.0209 -0.274501,0.260229 -0.303045,0.303045 -0.04176,0.06265 -0.05925,0.139384 -0.101016,0.202031 -0.0613,0.09196 -0.258279,0.213512 -0.303045,0.303046 -0.01506,0.03012 0.01506,0.0709 0,0.101015 -0.06061,0.121218 -0.242437,0.181827 -0.303046,0.303046 -0.01506,0.03012 0.01506,0.0709 0,0.101015 -0.0097,0.01934 -0.384725,0.394393 -0.404061,0.404061 -0.03012,0.01506 -0.0709,-0.01506 -0.101015,0 -0.08518,0.04259 -0.116847,0.159439 -0.202031,0.20203 -0.03012,0.01506 -0.06734,0 -0.101015,0 -0.03367,0 -0.0709,0.01506 -0.101015,0 -0.04259,-0.0213 -0.05842,-0.07972 -0.101016,-0.101015 -0.03012,-0.01506 -0.06907,0.01065 -0.101015,0 -0.07143,-0.02381 -0.130602,-0.07721 -0.20203,-0.101015 -0.03194,-0.01065 -0.0709,0.01506 -0.101016,0 -0.462307,-0.231154 0.42865,0.04187 -0.303045,-0.202031 -0.06389,-0.02129 -0.138143,0.0213 -0.202031,0 -0.07143,-0.02381 -0.130602,-0.0772 -0.20203,-0.101015 -0.06389,-0.0213 -0.141797,0.03012 -0.202031,0 -0.04259,-0.0213 -0.05842,-0.07972 -0.101015,-0.101015 -0.03012,-0.01506 -0.06734,0 -0.101016,0 -0.03367,0 -0.0709,-0.01506 -0.101015,0 -0.04259,0.0213 -0.05842,0.07972 -0.101015,0.101015 -0.06023,0.03012 -0.141797,-0.03012 -0.202031,0 -0.04259,0.0213 -0.06734,0.06734 -0.101015,0.101015 -0.06734,0 -0.138143,-0.02129 -0.20203,0 -0.04518,0.01506 -0.05842,0.07972 -0.101016,0.101016 -0.03012,0.01506 -0.06907,-0.01065 -0.101015,0 -0.071428,0.02381 -0.1306017,0.0772 -0.2020303,0.101015 -0.095831,0.03194 -0.2072143,-0.03194 -0.3030458,0 -0.045175,0.01506 -0.067343,0.06734 -0.1010152,0.101015"
       id="path4471"
       inkscape:connector-curvature="0"
       transform="translate(0,-16)" />
  </g>
</svg>
